<svg width="81" height="81" viewBox="0 0 81 81" fill="none" xmlns="http://www.w3.org/2000/svg">
<g clip-path="url(#clip0_2003_4395)">
<path d="M22.4112 73.0459H58.5915C68.8263 67.6331 76.3458 57.7717 78.5751 46.0362L78.574 46.0346L52.8969 13.042H11.5042C5.43047 19.8848 1.73975 28.8906 1.73975 38.7598C1.73975 53.633 10.1182 66.5468 22.4112 73.0459Z" fill="#7D62EE"/>
<path d="M27.3868 58.2394L33.3993 0.651855C24.7519 2.25366 17.1116 6.72448 11.5041 13.042C10.4563 15.553 9.87683 18.3081 9.87683 21.199V53.1615C9.87683 53.9918 10.3264 54.739 11.0254 55.187C11.6962 55.6168 12.1407 56.3682 12.1407 57.2243C12.1407 58.0805 11.6962 58.8317 11.0254 59.2615C10.3264 59.7096 9.87683 60.4568 9.87683 61.287V79.3815C9.87683 80.301 10.8849 80.8646 11.6682 80.3831L14.4788 78.6557C14.8564 78.4236 15.3326 78.4236 15.7103 78.6557L18.8511 80.5864C19.7466 81.1369 20.8757 81.1369 21.7715 80.5865L24.9128 78.6555C25.2904 78.4234 25.7666 78.4234 26.1442 78.6555L29.2858 80.5865C30.1814 81.1369 31.3103 81.1369 32.2059 80.5865L35.3482 78.6553L27.3868 58.2394ZM20.2217 59.6463C18.884 59.6463 17.7995 58.562 17.7995 57.2242C17.7995 55.8864 18.884 54.8019 20.2217 54.8019C21.5595 54.8019 22.6438 55.8863 22.6438 57.2242C22.644 58.562 21.5595 59.6463 20.2217 59.6463Z" fill="#BBF0F9"/>
<path d="M73.097 17.7832C71.0535 14.615 68.5608 11.7637 65.7091 9.31934C65.7091 9.31934 54.502 14.263 54.502 24.274C54.502 34.2849 62.0557 46.037 62.0557 46.037H73.8054L75.9946 32.731L73.097 17.7832Z" fill="#8CE1F9"/>
<path d="M40.4999 -0.000244141C38.0742 -0.000244141 35.7014 0.225354 33.3994 0.651869C31.2355 2.24735 26.2679 6.89488 26.2679 15.942V63.1532C26.2679 67.6542 27.9012 72.0317 30.9642 75.3296C32.1449 76.6009 33.591 77.7776 35.3482 78.6557C35.7258 78.4236 36.2018 78.4236 36.5795 78.6557L39.7219 80.587C40.6173 81.1372 41.7462 81.1374 42.6417 80.587L45.7844 78.6557C46.162 78.4236 46.6379 78.4236 47.0155 78.6557L50.1582 80.5872C51.0536 81.1376 52.1824 81.1376 53.078 80.5872L56.2213 78.6555C56.599 78.4234 57.075 78.4234 57.4525 78.6555L60.2644 80.3834C61.0478 80.8648 62.0557 80.3011 62.0557 79.3817V61.2748C62.0557 60.4492 61.6112 59.7047 60.9181 59.256C60.2522 58.8251 59.8116 58.0766 59.8116 57.2242C59.8116 56.3716 60.2522 55.6232 60.9181 55.1922C61.6112 54.7437 62.0557 53.9991 62.0557 53.1734V21.1988C62.0557 16.7955 63.4022 12.706 65.7062 9.31681C58.9291 3.50933 50.1248 -0.000244141 40.4999 -0.000244141ZM30.7248 59.6463C29.3871 59.6463 28.3028 58.562 28.3028 57.2242C28.3028 55.8864 29.3872 54.802 30.7248 54.802C32.0626 54.802 33.1469 55.8863 33.1469 57.2242C33.1469 58.562 32.0625 59.6463 30.7248 59.6463ZM41.2278 59.6463C39.8902 59.6463 38.8057 58.562 38.8057 57.2242C38.8057 55.8864 39.8902 54.802 41.2278 54.802C42.5656 54.802 43.6499 55.8863 43.6499 57.2242C43.6499 58.562 42.5656 59.6463 41.2278 59.6463ZM51.7307 59.6463C50.393 59.6463 49.3086 58.562 49.3086 57.2242C49.3086 55.8864 50.3931 54.802 51.7307 54.802C53.0685 54.802 54.1528 55.8863 54.1528 57.2242C54.153 58.562 53.0685 59.6463 51.7307 59.6463Z" fill="#E8F8FC"/>
<path d="M56.1192 24.5577C56.1192 23.6687 55.3919 22.9414 54.5029 22.9414H38.9334C38.0444 22.9414 37.3171 23.6687 37.3171 24.5577C37.3171 25.4467 38.0444 26.174 38.9334 26.174H54.5029C55.3917 26.174 56.1192 25.4467 56.1192 24.5577Z" fill="#8CE1F9"/>
<path d="M56.5929 15.9419C56.5929 15.0529 55.8657 14.3257 54.9767 14.3257H19.0944C18.2054 14.3257 17.4781 15.0529 17.4781 15.9419C17.4781 16.8308 18.2054 17.5581 19.0944 17.5581H54.9766C55.8655 17.5581 56.5929 16.8308 56.5929 15.9419Z" fill="#02C0FC"/>
<path d="M48.2019 9.22663C48.2019 8.33764 47.4746 7.61035 46.5857 7.61035H28.208C27.319 7.61035 26.5917 8.3378 26.5917 9.22663C26.5917 10.1156 27.319 10.8429 28.208 10.8429H46.5857C47.4745 10.8431 48.2019 10.1156 48.2019 9.22663Z" fill="#02C0FC"/>
<path d="M56.1192 31.273C56.1192 30.384 55.3919 29.6567 54.5029 29.6567H38.9334C38.0444 29.6567 37.3171 30.384 37.3171 31.273C37.3171 32.162 38.0444 32.8893 38.9334 32.8893H54.5029C55.3917 32.8893 56.1192 32.162 56.1192 31.273Z" fill="#8CE1F9"/>
<path d="M56.1192 37.9886C56.1192 37.0996 55.3919 36.3723 54.5029 36.3723H38.9334C38.0444 36.3723 37.3171 37.0996 37.3171 37.9886C37.3171 38.8776 38.0444 39.6049 38.9334 39.6049H54.5029C55.3917 39.605 56.1192 38.8776 56.1192 37.9886Z" fill="#8CE1F9"/>
<path d="M56.1192 44.7039C56.1192 43.8149 55.3919 43.0876 54.5029 43.0876H38.9334C38.0444 43.0876 37.3171 43.8149 37.3171 44.7039C37.3171 45.5929 38.0444 46.3202 38.9334 46.3202H54.5029C55.3917 46.3202 56.1192 45.5927 56.1192 44.7039Z" fill="#8CE1F9"/>
<path d="M21.9888 43.7472C21.1921 43.3282 20.8858 42.3431 21.3046 41.5463C21.7235 40.7496 22.7088 40.4437 23.5053 40.8622C24.7679 41.5262 25.2579 41.5564 26.8046 41.3982C28.3765 41.2373 29.1773 39.9773 29.2559 38.8748C29.2946 38.3318 29.2048 37.0242 27.538 36.6086L24.2265 35.8213C21.5153 35.1451 19.8354 32.8704 20.0289 30.1564C20.2069 27.6615 22.1087 24.9594 25.3993 24.6227C27.435 24.4143 28.6003 24.4927 30.5472 25.516C31.3438 25.9349 31.6501 26.9202 31.2313 27.7168C30.8122 28.5136 29.8269 28.8194 29.0304 28.4009C27.7678 27.7368 27.2778 27.7062 25.7311 27.8649C24.1591 28.0258 23.3584 29.2858 23.2798 30.3884C23.241 30.9312 23.3309 32.239 24.9977 32.6546L28.3092 33.4418C31.0204 34.118 32.7003 36.3928 32.5066 39.1067C32.3288 41.6017 30.4268 44.3038 27.1362 44.6404C25.0611 44.8529 23.909 44.7566 21.9888 43.7472Z" fill="#FD8D3E"/>
<path d="M26.268 46.3206C25.3679 46.3206 24.6383 45.5911 24.6383 44.6909V24.5708C24.6383 23.6708 25.3679 22.9412 26.268 22.9412C27.168 22.9412 27.8974 23.6706 27.8974 24.5708V44.6909C27.8976 45.5911 27.168 46.3206 26.268 46.3206Z" fill="#FFC242"/>
<path d="M46.6199 66.8514C46.6199 65.9624 45.8926 65.2351 45.0036 65.2351H26.6259C25.7369 65.2351 25.0096 65.9626 25.0096 66.8514C25.0096 67.7404 25.7369 68.4677 26.6259 68.4677H45.0036C45.8925 68.4678 46.6199 67.7404 46.6199 66.8514Z" fill="#02C0FC"/>
<path d="M70.9412 23.8713V39.1579C70.9412 41.837 72.0385 44.2726 73.8056 46.037H78.5757C79.0242 43.6799 79.2601 41.2477 79.2601 38.76C79.2601 31.0302 76.9969 23.8294 73.0972 17.7832C71.7508 19.4535 70.9412 21.572 70.9412 23.8713Z" fill="#BBF0F9"/>
</g>
<defs>
<clipPath id="clip0_2003_4395">
<rect width="81" height="81" fill="white"/>
</clipPath>
</defs>
</svg>
