<svg width="81" height="81" viewBox="0 0 81 81" fill="none" xmlns="http://www.w3.org/2000/svg">
<g clip-path="url(#clip0_2003_3942)">
<path d="M3.51407 53.8623L35.6223 80.6953C37.2202 80.8959 38.8479 81 40.5002 81C50.6577 81 59.9005 77.0911 66.8119 70.6978L73.1091 63.1995C77.0013 57.1566 79.2603 49.9623 79.2603 42.2401C79.2603 20.8334 61.9068 3.47998 40.5002 3.47998C19.0936 3.47998 1.74014 20.8333 1.74014 42.2399C1.74014 46.2893 2.3622 50.1931 3.51407 53.8623Z" fill="#5C45BF"/>
<path d="M31.8408 9.35051C31.7337 9.35051 31.6245 9.33659 31.5161 9.30732C30.8515 9.12838 30.4577 8.44444 30.6366 7.7798C30.7721 7.27669 30.8407 6.73925 30.8407 6.18235C30.8407 5.36124 30.6903 4.57715 30.4053 3.91504C30.1334 3.28283 30.4254 2.54968 31.0576 2.27772C31.6898 2.00592 32.423 2.29766 32.6949 2.93002C33.1125 3.9008 33.3332 5.02536 33.3332 6.18235C33.3332 6.95806 33.2356 7.71351 33.0433 8.42799C32.8938 8.9841 32.3904 9.35051 31.8408 9.35051Z" fill="#FFB332"/>
<path d="M38.1485 9.35051C38.0413 9.35051 37.9323 9.33659 37.8237 9.30732C37.1591 9.12838 36.7653 8.44444 36.9442 7.7798C37.0797 7.27669 37.1483 6.73925 37.1483 6.18235C37.1483 5.36124 36.9979 4.57715 36.7129 3.91504C36.441 3.28283 36.733 2.54968 37.3652 2.27772C37.9975 2.00592 38.7306 2.29766 39.0026 2.93002C39.4201 3.9008 39.6408 5.02536 39.6408 6.18235C39.6408 6.95806 39.5433 7.71351 39.3509 8.42799C39.2016 8.9841 38.6983 9.35051 38.1485 9.35051Z" fill="#FFB332"/>
<path d="M61.3648 9.35051C61.2576 9.35051 61.1485 9.33659 61.0401 9.30732C60.3755 9.12838 59.9817 8.44444 60.1606 7.7798C60.296 7.27669 60.3647 6.73925 60.3647 6.18235C60.3647 5.36124 60.2143 4.57715 59.9293 3.91504C59.6574 3.28283 59.9494 2.54968 60.5816 2.27772C61.2137 2.00592 61.947 2.29766 62.2189 2.93002C62.6364 3.9008 62.8572 5.02536 62.8572 6.18235C62.8572 6.95806 62.7597 7.71351 62.5673 8.42799C62.4176 8.9841 61.9144 9.35051 61.3648 9.35051Z" fill="#FFB332"/>
<path d="M67.6725 9.35051C67.5654 9.35051 67.4563 9.33659 67.3479 9.30732C66.6832 9.12838 66.2894 8.44444 66.4684 7.7798C66.604 7.27669 66.6725 6.73925 66.6725 6.18235C66.6725 5.36124 66.522 4.57715 66.2371 3.91504C65.9651 3.28283 66.2572 2.54968 66.8894 2.27772C67.5214 2.00592 68.2547 2.29766 68.5267 2.93002C68.9442 3.9008 69.1649 5.02536 69.1649 6.18235C69.1649 6.95806 69.0673 7.71351 68.8751 8.42799C68.7256 8.9841 68.2223 9.35051 67.6725 9.35051Z" fill="#FFB332"/>
<path d="M39.7958 19.4004C39.2389 19.6292 38.8005 19.7328 38.8005 19.7328C38.8005 19.7328 36.5236 21.9226 38.8693 24.2681C41.215 26.6138 38.8693 30.8081 38.8693 30.8081C38.8693 30.8081 37.1207 32.2329 38.8693 33.9817C40.6179 35.7303 38.8693 40.5216 38.8693 40.5216C38.8693 40.5216 37.1207 41.9464 38.8693 43.6952C40.6179 45.4438 38.8693 50.2351 38.8693 50.2351C38.8693 50.2351 37.1207 51.6599 38.8693 53.4085C39.1223 53.6615 39.0087 54.5137 38.6304 55.7849C40.3577 58.8099 41.346 62.3087 41.346 66.0344C41.346 67.6375 41.163 69.1985 40.817 70.6979H66.8119C69.2119 68.478 71.3313 65.9596 73.1091 63.1996V19.4004H39.7958Z" fill="#DEEEFF"/>
<path d="M39.117 19.7328C39.117 19.7328 39.5554 19.6293 40.1123 19.4004H20.6101V45.2982C28.4672 45.2982 35.3177 49.6911 38.8348 56.1497C39.3013 54.6767 39.4624 53.6849 39.1858 53.4084C37.4372 51.6597 39.1858 50.235 39.1858 50.235C39.1858 50.235 40.9344 45.4436 39.1858 43.695C37.4372 41.9464 39.1858 40.5215 39.1858 40.5215C39.1858 40.5215 40.9344 35.7301 39.1858 33.9815C37.4372 32.2329 39.1858 30.8079 39.1858 30.8079C39.1858 30.8079 41.5315 26.6137 39.1858 24.268C36.8401 21.9226 39.117 19.7328 39.117 19.7328Z" fill="#D3DCFB"/>
<path d="M68.312 7.07886H40.618C40.618 7.07886 36.9575 10.6853 40.7945 14.5222C40.8803 14.6079 40.9595 14.6919 41.0356 14.7753C41.0608 14.7742 41.0854 14.7715 41.1109 14.7715H52.6082C53.5702 14.7715 54.3528 15.5541 54.3528 16.5161V19.7329H73.1089V11.8756C73.1089 9.23738 70.9504 7.07886 68.312 7.07886Z" fill="#FF4155"/>
<path d="M40.9353 7.07886H25.4071C22.7686 7.07886 20.6098 9.23748 20.6098 11.876V19.7335H39.1176C39.1176 19.7335 39.2114 19.7113 39.3669 19.6651V16.5166C39.3669 15.5545 40.1496 14.7718 41.1117 14.7718H41.3495C41.2743 14.6897 41.1962 14.607 41.1117 14.5227C37.2746 10.6853 40.9353 7.07886 40.9353 7.07886Z" fill="#E80054"/>
<path d="M29.1006 13.8301C30.6041 13.8301 31.8228 12.6113 31.8228 11.1079C31.8228 9.6045 30.6041 8.38574 29.1006 8.38574C27.5972 8.38574 26.3785 9.6045 26.3785 11.1079C26.3785 12.6113 27.5972 13.8301 29.1006 13.8301Z" fill="#CC0053"/>
<path d="M35.1417 13.8301C36.6451 13.8301 37.8639 12.6113 37.8639 11.1079C37.8639 9.6045 36.6451 8.38574 35.1417 8.38574C33.6383 8.38574 32.4196 9.6045 32.4196 11.1079C32.4196 12.6113 33.6383 13.8301 35.1417 13.8301Z" fill="#CC0053"/>
<path d="M58.633 13.8301C60.1364 13.8301 61.3552 12.6113 61.3552 11.1079C61.3552 9.6045 60.1364 8.38574 58.633 8.38574C57.1296 8.38574 55.9109 9.6045 55.9109 11.1079C55.9109 12.6113 57.1296 13.8301 58.633 13.8301Z" fill="#CC0053"/>
<path d="M64.674 13.8301C66.1774 13.8301 67.3962 12.6113 67.3962 11.1079C67.3962 9.6045 66.1774 8.38574 64.674 8.38574C63.1706 8.38574 61.9518 9.6045 61.9518 11.1079C61.9518 12.6113 63.1706 13.8301 64.674 13.8301Z" fill="#CC0053"/>
<path d="M52.6088 14.5222H41.111C40.0143 14.5222 39.1169 15.4196 39.1169 16.5163V19.7332H54.6029V16.5163C54.6027 15.4194 53.7055 14.5222 52.6088 14.5222Z" fill="#FF7186"/>
<path d="M28.9438 12.3649C26.4822 12.3649 24.5541 9.64925 24.5541 6.18238C24.554 2.71568 26.4822 0 28.9438 0C30.5035 0 31.906 1.09545 32.6953 2.93005C32.9673 3.56226 32.6752 4.29541 32.043 4.56737C31.4111 4.83949 30.6778 4.5476 30.4057 3.91507C30.0339 3.05093 29.4601 2.4926 28.9438 2.4926C28.0484 2.4926 27.0466 4.07059 27.0466 6.18238C27.0466 8.29417 28.0482 9.87232 28.9438 9.87232C29.6322 9.87232 30.1901 10.4302 30.1901 11.1185C30.1901 11.8069 29.6321 12.3649 28.9438 12.3649Z" fill="#FFDD40"/>
<path d="M35.2516 12.3649C32.79 12.3649 30.8619 9.64925 30.8619 6.18238C30.8619 2.71568 32.79 0 35.2516 0C36.8114 0 38.2138 1.09545 39.0031 2.93005C39.2751 3.56226 38.983 4.29541 38.3508 4.56737C37.7191 4.83949 36.9856 4.5476 36.7135 3.91507C36.3417 3.05093 35.7679 2.4926 35.2516 2.4926C34.3561 2.4926 33.3545 4.07059 33.3545 6.18238C33.3545 8.29417 34.3561 9.87232 35.2516 9.87232C35.94 9.87232 36.4978 10.4302 36.4978 11.1185C36.4978 11.8069 35.94 12.3649 35.2516 12.3649Z" fill="#FFDD40"/>
<path d="M58.4677 12.3649C56.0061 12.3649 54.078 9.64925 54.078 6.18238C54.078 2.71568 56.0063 0 58.4677 0C60.0274 0 61.4298 1.09545 62.2192 2.9299C62.4913 3.56226 62.1993 4.29525 61.5671 4.56737C60.9352 4.83949 60.2017 4.5476 59.9298 3.91523C59.558 3.05093 58.9841 2.4926 58.4679 2.4926C57.5724 2.4926 56.5708 4.07059 56.5708 6.18238C56.5708 8.29417 57.5724 9.87232 58.4679 9.87232C59.1563 9.87232 59.7141 10.4302 59.7141 11.1185C59.7141 11.8069 59.1561 12.3649 58.4677 12.3649Z" fill="#FFDD40"/>
<path d="M64.7756 12.3649C62.314 12.3649 60.3859 9.64925 60.3859 6.18238C60.3859 2.71568 62.314 0 64.7756 0C66.3352 0 67.7378 1.09545 68.5271 2.93005C68.799 3.56226 68.507 4.29541 67.8748 4.56737C67.243 4.83949 66.5096 4.5476 66.2375 3.91507C65.8657 3.05093 65.2918 2.4926 64.7758 2.4926C63.8803 2.4926 62.8787 4.07059 62.8787 6.18238C62.8787 8.29417 63.8803 9.87232 64.7758 9.87232C65.464 9.87232 66.022 10.4302 66.022 11.1185C66.022 11.8069 65.4638 12.3649 64.7756 12.3649Z" fill="#FFDD40"/>
<path d="M39.186 30.8084H36.1431C35.1774 30.8084 34.3944 30.0256 34.3944 29.0597V26.017C34.3944 25.0513 35.1774 24.2683 36.1431 24.2683H39.186C40.1517 24.2683 40.9347 25.0513 40.9347 26.017V29.0597C40.9347 30.0254 40.1517 30.8084 39.186 30.8084Z" fill="#A8B7EF"/>
<path d="M48.3811 30.8084H45.3382C44.3725 30.8084 43.5895 30.0256 43.5895 29.0597V26.017C43.5895 25.0513 44.3725 24.2683 45.3382 24.2683H48.3811C49.3468 24.2683 50.1298 25.0513 50.1298 26.017V29.0597C50.1298 30.0254 49.3468 30.8084 48.3811 30.8084Z" fill="#73C3F9"/>
<path d="M57.5762 30.8084H54.5333C53.5676 30.8084 52.7846 30.0256 52.7846 29.0597V26.017C52.7846 25.0513 53.5676 24.2683 54.5333 24.2683H57.5762C58.542 24.2683 59.3249 25.0513 59.3249 26.017V29.0597C59.3249 30.0254 58.542 30.8084 57.5762 30.8084Z" fill="#73C3F9"/>
<path d="M66.7711 30.8084H63.7283C62.7626 30.8084 61.9796 30.0256 61.9796 29.0597V26.017C61.9796 25.0513 62.7626 24.2683 63.7283 24.2683H66.7711C67.737 24.2683 68.5198 25.0513 68.5198 26.017V29.0597C68.52 30.0254 67.737 30.8084 66.7711 30.8084Z" fill="#73C3F9"/>
<path d="M29.9909 40.5217H26.9482C25.9823 40.5217 25.1995 39.7387 25.1995 38.773V35.7301C25.1995 34.7644 25.9825 33.9814 26.9482 33.9814H29.9909C30.9566 33.9814 31.7396 34.7644 31.7396 35.7301V38.7728C31.7396 39.7389 30.9566 40.5217 29.9909 40.5217Z" fill="#49B1F7"/>
<path d="M39.186 40.5217H36.1431C35.1774 40.5217 34.3944 39.7387 34.3944 38.773V35.7301C34.3944 34.7644 35.1774 33.9814 36.1431 33.9814H39.186C40.1517 33.9814 40.9347 34.7644 40.9347 35.7301V38.7728C40.9347 39.7389 40.1517 40.5217 39.186 40.5217Z" fill="#49B1F7"/>
<path d="M48.3811 40.5217H45.3382C44.3725 40.5217 43.5895 39.7387 43.5895 38.773V35.7301C43.5895 34.7644 44.3725 33.9814 45.3382 33.9814H48.3811C49.3468 33.9814 50.1298 34.7644 50.1298 35.7301V38.7728C50.1298 39.7389 49.3468 40.5217 48.3811 40.5217Z" fill="#73C3F9"/>
<path d="M57.5762 40.5217H54.5333C53.5676 40.5217 52.7846 39.7387 52.7846 38.773V35.7301C52.7846 34.7644 53.5676 33.9814 54.5333 33.9814H57.5762C58.542 33.9814 59.3249 34.7644 59.3249 35.7301V38.7728C59.3249 39.7389 58.542 40.5217 57.5762 40.5217Z" fill="#BECAF5"/>
<path d="M66.7711 40.5217H63.7283C62.7626 40.5217 61.9796 39.7387 61.9796 38.773V35.7301C61.9796 34.7644 62.7626 33.9814 63.7283 33.9814H66.7711C67.737 33.9814 68.5198 34.7644 68.5198 35.7301V38.7728C68.52 39.7389 67.737 40.5217 66.7711 40.5217Z" fill="#BECAF5"/>
<path d="M31.7366 48.5433C31.7372 48.5242 31.7394 48.5055 31.7394 48.4862V45.4435C31.7394 44.4778 30.9565 43.6948 29.9907 43.6948H26.948C25.9822 43.6948 25.1993 44.4778 25.1993 45.4435V45.8109C27.5548 46.3452 29.7594 47.281 31.7366 48.5433Z" fill="#A8B7EF"/>
<path d="M39.186 50.2351H36.1431C35.1774 50.2351 34.3944 49.4521 34.3944 48.4864V45.4435C34.3944 44.4778 35.1774 43.6948 36.1431 43.6948H39.186C40.1517 43.6948 40.9347 44.4778 40.9347 45.4435V48.4864C40.9347 49.4523 40.1517 50.2351 39.186 50.2351Z" fill="#A8B7EF"/>
<path d="M48.3811 50.2351H45.3382C44.3725 50.2351 43.5895 49.4521 43.5895 48.4864V45.4435C43.5895 44.4778 44.3725 43.6948 45.3382 43.6948H48.3811C49.3468 43.6948 50.1298 44.4778 50.1298 45.4435V48.4864C50.1298 49.4523 49.3468 50.2351 48.3811 50.2351Z" fill="#BECAF5"/>
<path d="M57.5762 50.2351H54.5333C53.5676 50.2351 52.7846 49.4521 52.7846 48.4864V45.4435C52.7846 44.4778 53.5676 43.6948 54.5333 43.6948H57.5762C58.542 43.6948 59.3249 44.4778 59.3249 45.4435V48.4864C59.3249 49.4523 58.542 50.2351 57.5762 50.2351Z" fill="#BECAF5"/>
<path d="M66.7711 50.2351H63.7283C62.7626 50.2351 61.9796 49.4521 61.9796 48.4864V45.4435C61.9796 44.4778 62.7626 43.6948 63.7283 43.6948H66.7711C67.737 43.6948 68.5198 44.4778 68.5198 45.4435V48.4864C68.52 49.4523 67.737 50.2351 66.7711 50.2351Z" fill="#BECAF5"/>
<path d="M40.3044 59.5435C40.6893 59.2228 40.9346 58.74 40.9346 58.1998V55.1571C40.9346 54.1914 40.1516 53.4084 39.1859 53.4084H37.0469C38.4551 55.2372 39.5653 57.3066 40.3044 59.5435Z" fill="#A8B7EF"/>
<path d="M48.3811 59.9485H45.3382C44.3725 59.9485 43.5895 59.1655 43.5895 58.1998V55.1569C43.5895 54.1912 44.3725 53.4082 45.3382 53.4082H48.3811C49.3468 53.4082 50.1298 54.1912 50.1298 55.1569V58.1998C50.1298 59.1655 49.3468 59.9485 48.3811 59.9485Z" fill="#BECAF5"/>
<path d="M57.5762 59.9485H54.5333C53.5676 59.9485 52.7846 59.1655 52.7846 58.1998V55.1569C52.7846 54.1912 53.5676 53.4082 54.5333 53.4082H57.5762C58.542 53.4082 59.3249 54.1912 59.3249 55.1569V58.1998C59.3249 59.1655 58.542 59.9485 57.5762 59.9485Z" fill="#BECAF5"/>
<path d="M9.56932 50.3573C9.92195 50.9031 10.5108 51.2537 11.3222 51.4015C11.2479 51.7272 11.1884 52.2809 11.4602 52.776C11.6785 53.174 12.0607 53.4507 12.5981 53.6008C12.3459 54.5575 11.5964 58.0609 13.2714 60.8141C14.2852 62.4806 15.9995 63.5461 18.3679 63.9816L22.3118 68.5393C22.285 69.1087 22.2721 71.8432 24.2979 73.7842C25.953 75.3702 28.5043 75.9779 31.8815 75.5906C31.9201 75.881 32.0418 76.3444 32.418 76.6982C32.7696 77.029 33.258 77.185 33.8687 77.1699C33.8976 77.5276 34.0258 78.171 34.5467 78.6657C35.0742 79.1666 35.8584 79.375 36.8733 79.2941C39.8241 75.6797 41.5953 71.0644 41.5953 66.0345C41.5953 54.4448 32.2 45.0493 20.6102 45.0493C16.4322 45.0493 12.5397 46.2706 9.26952 48.3752C9.18852 48.7888 9.10531 49.6389 9.56932 50.3573Z" fill="#FFC839"/>
<path d="M34.0997 76.917C32.0321 77.1241 32.1014 75.3247 32.1014 75.3247C21.8657 76.6289 22.5545 68.457 22.5545 68.457L18.4926 63.7628C10.1256 62.2853 12.8941 53.4264 12.8941 53.4264C10.8993 53.0428 11.6261 51.2073 11.6261 51.2073C8.71931 50.8588 9.55589 48.196 9.55589 48.196C7.18601 49.6678 5.12984 51.5968 3.51379 53.8624C3.9778 55.3407 4.5293 56.78 5.15974 58.1761L31.0832 79.8457L31.0829 79.8458C32.5642 80.2156 34.0786 80.5016 35.6219 80.6954C36.1356 80.1695 36.6208 79.6158 37.0774 79.0384C33.931 79.4146 34.0997 76.917 34.0997 76.917Z" fill="#FF9100"/>
<path d="M28.9952 79.2638C30.27 78.4529 31.4192 77.4619 32.4094 76.3285C32.0811 75.8723 32.1016 75.3247 32.1016 75.3247C21.8658 76.629 22.5546 68.457 22.5546 68.457L18.4928 63.7628C10.1257 62.2853 12.8943 53.4264 12.8943 53.4264C12.4545 53.3418 12.1472 53.1866 11.9351 52.9961C9.34577 54.7249 7.29657 57.2021 6.10324 60.1181C10.8346 69.2031 19.0579 76.1792 28.9952 79.2638Z" fill="#BECAF5"/>
<path d="M20.9424 50.3705C17.5382 50.3015 14.3641 51.3154 11.7337 53.131C11.9515 53.3423 12.2395 53.5004 12.5983 53.6005C12.3461 54.5572 11.5965 58.0606 13.2716 60.8138C14.2854 62.4803 15.9997 63.5458 18.3681 63.9813L22.312 68.539C22.2852 69.1084 22.2722 71.8429 24.298 73.7839C25.9532 75.3699 28.5045 75.9776 31.8817 75.5903C31.9138 75.8314 32.0054 76.1913 32.2503 76.5091C41.1805 66.5963 34.3178 50.6504 20.9424 50.3705Z" fill="#DEEEFF"/>
<path d="M20.61 54.2352C19.9218 54.2352 19.3638 53.6774 19.3638 52.989V51.3634C19.3638 50.675 19.9218 50.1172 20.61 50.1172C21.2982 50.1172 21.8562 50.675 21.8562 51.3634V52.989C21.8564 53.6774 21.2984 54.2352 20.61 54.2352Z" fill="#BECAF5"/>
<path d="M35.2812 67.2803H33.6556C32.9672 67.2803 32.4093 66.7224 32.4093 66.0341C32.4093 65.3457 32.9673 64.7878 33.6556 64.7878H35.2812C35.9694 64.7878 36.5274 65.3457 36.5274 66.0341C36.5275 66.7224 35.9695 67.2803 35.2812 67.2803Z" fill="#BECAF5"/>
<path d="M22.7176 63.7536C22.1789 63.2562 21.8565 62.5681 21.8565 61.8348V57.3613C21.8565 56.6789 21.3306 56.0839 20.6486 56.0633C19.9428 56.0421 19.3639 56.6079 19.3639 57.3091V61.8342C19.3639 62.5724 19.0328 63.2598 18.4926 63.7629C17.813 64.3959 17.4165 65.3287 17.5174 66.3494C17.6598 67.7894 18.8157 68.962 20.2538 69.1229C22.1266 69.3324 23.7185 67.866 23.7185 66.0345C23.7185 65.1335 23.3324 64.3214 22.7176 63.7536Z" fill="#3C58A0"/>
<path d="M11.3223 51.4012C11.2479 51.7269 11.1884 52.2806 11.4602 52.7756C11.6785 53.1737 12.0608 53.4504 12.5982 53.6005C12.5967 53.606 12.595 53.6127 12.5936 53.6184C14.9046 52.1207 17.6569 51.2485 20.6101 51.2485C28.7629 51.2485 35.3957 57.8815 35.3957 66.0343C35.3957 69.6754 34.072 73.0122 31.8815 75.5912C31.9203 75.8817 32.042 76.3444 32.4179 76.6978C32.7695 77.0286 33.2579 77.1846 33.8686 77.1696C33.8692 77.1773 33.8702 77.186 33.871 77.1941C36.4153 74.1761 37.9512 70.2816 37.9512 66.0342C37.9512 56.4722 30.172 48.6929 20.6101 48.6929C17.1937 48.6929 14.0059 49.6875 11.3182 51.4002C11.3196 51.4005 11.321 51.401 11.3223 51.4012Z" fill="#FFDD40"/>
<path d="M12.8945 53.4266C10.9338 53.0496 11.602 51.2711 11.6254 51.2102C8.87648 52.8828 6.62546 55.296 5.15601 58.1732C5.61402 59.1878 6.11666 60.1776 6.65726 61.1433C7.79305 57.9131 10.0205 55.1928 12.8945 53.4269V53.4266Z" fill="#FFC839"/>
<path d="M32.1017 75.3247C30.9362 76.7633 29.5082 77.9809 27.8891 78.9004C28.9344 79.26 30.0001 79.5755 31.0837 79.8459C32.2031 78.9949 33.2154 78.01 34.099 76.9171C32.0323 77.1236 32.1017 75.3247 32.1017 75.3247Z" fill="#FFC839"/>
<path d="M21.896 66.0341C21.896 65.3457 21.338 64.7878 20.6498 64.7878H20.5706C19.8822 64.7878 19.3243 65.3457 19.3243 66.0341C19.3243 66.7224 19.8823 67.2803 20.5706 67.2803H20.6498C21.338 67.2803 21.896 66.7224 21.896 66.0341Z" fill="#6289CC"/>
<path d="M10.673 17.4878C5.09506 24.2019 1.74005 32.8289 1.74005 42.2399C1.74005 44.1192 1.87579 45.9666 2.13445 47.7744C3.92721 44.4488 6.51968 42.4461 9.78516 40.5C14.7535 37.5392 14.4143 31.6482 14.4143 24.2682C14.4143 21.0527 12.6567 18.8971 10.673 17.4878Z" fill="#6D59C8"/>
<path d="M60.9675 75.1568C55.1943 74.3739 45.1193 74.0981 42.1596 80.9632C49.0467 80.6728 55.4673 78.5848 60.9675 75.1568Z" fill="#6D59C8"/>
</g>
<defs>
<clipPath id="clip0_2003_3942">
<rect width="81" height="81" fill="white"/>
</clipPath>
</defs>
</svg>
