<svg width="81" height="81" viewBox="0 0 81 81" fill="none" xmlns="http://www.w3.org/2000/svg">
<g clip-path="url(#clip0_2003_4025)">
<path fill-rule="evenodd" clip-rule="evenodd" d="M40.5 0C62.8675 0 81 18.1326 81 40.5C81 62.8675 62.8674 81 40.5 81C18.1325 81 0 62.8674 0 40.5C0 18.1325 18.1326 0 40.5 0Z" fill="#7D62EE"/>
<g clip-path="url(#clip1_2003_4025)">
<path opacity="0.4" d="M61.9095 49.2197H25.8552C24.5721 49.2197 23.5319 50.2874 23.5319 51.6045V56.4864C23.5319 57.8034 24.572 58.8711 25.8552 58.8711H61.9095C63.1926 58.8711 64.2329 57.8035 64.2329 56.4864V51.6045C64.2329 50.2874 63.1926 49.2197 61.9095 49.2197Z" fill="#4832A5"/>
<path opacity="0.4" d="M63.5779 27.7837H24.1868C22.8491 27.7837 21.7647 28.8967 21.7647 30.2698V34.9489C21.7647 36.3219 22.8491 37.435 24.1868 37.435H63.5779C64.9156 37.435 66 36.3219 66 34.9489V30.2698C66 28.8967 64.9156 27.7837 63.5779 27.7837Z" fill="#4832A5"/>
<path d="M59.1448 45.9731H23.0905C21.8074 45.9731 20.7672 47.0408 20.7672 48.3579V53.2398C20.7672 54.5568 21.8073 55.6245 23.0905 55.6245H59.1448C60.4279 55.6245 61.4681 54.5569 61.4681 53.2398V48.3579C61.4681 47.0408 60.4279 45.9731 59.1448 45.9731Z" fill="#FD8087"/>
<path d="M27.973 55.625H23.0911C21.8076 55.625 20.7672 54.557 20.7672 53.2396V48.3583C20.7672 47.0409 21.8076 45.9729 23.0911 45.9729H27.973C26.6904 45.9729 25.65 47.0409 25.65 48.3583V53.2396C25.65 54.5571 26.6904 55.625 27.973 55.625Z" fill="#FE646F"/>
<path d="M60.8132 24.5371H21.4221C20.0844 24.5371 19 25.6502 19 27.0232V31.7023C19 33.0754 20.0844 34.1884 21.4221 34.1884H60.8132C62.1509 34.1884 63.2353 33.0754 63.2353 31.7023V27.0232C63.2353 25.6502 62.1509 24.5371 60.8132 24.5371Z" fill="#FD8087"/>
<path d="M26.3714 34.1885H21.4218C20.0841 34.1885 19 33.0757 19 31.7026V27.0232C19 25.6501 20.0841 24.5374 21.4218 24.5374H26.3714C25.0336 24.5374 23.9487 25.6501 23.9487 27.0232V31.7026C23.9487 33.0757 25.0336 34.1885 26.3714 34.1885Z" fill="#FE646F"/>
<path d="M61.4686 33.2912V35.4134C61.4686 36.1379 61.1962 36.8359 60.7094 37.3612L59.3689 38.8075C58.7797 39.4433 57.7926 39.4433 57.2035 38.8075L55.863 37.3612C55.3762 36.8358 55.1047 36.1379 55.1047 35.4133V37.6635C55.1047 38.3624 54.5529 38.9288 53.872 38.9288H49.9736C49.2927 38.9288 48.7409 38.3624 48.7409 37.6635V37.9256C48.7409 38.7889 48.0591 39.4888 47.2181 39.4888H42.6406C41.7995 39.4888 41.1177 38.789 41.1177 37.9256C41.1177 38.7889 40.436 39.4888 39.5949 39.4888H35.0174C34.1763 39.4888 33.4946 38.789 33.4946 37.9256V37.6635C33.4946 38.3624 32.9428 38.9288 32.2619 38.9288H28.3634C27.6826 38.9288 27.1307 38.3624 27.1307 37.6635V35.4133C27.1307 36.1378 26.8593 36.8358 26.3724 37.3612L25.032 38.8074C24.4428 39.4432 23.4558 39.4432 22.8665 38.8074L21.526 37.3612C21.0391 36.8358 20.7668 36.1379 20.7668 35.4133V33.2911C20.7668 31.4867 22.1918 30.025 23.9487 30.025C24.8281 30.025 25.6229 30.3905 26.1988 30.9815C26.7746 31.5726 27.1307 32.3885 27.1307 33.2911C27.1307 32.3885 27.4867 31.5726 28.0625 30.9815C28.6384 30.3905 29.4341 30.025 30.3126 30.025C32.0695 30.025 33.4945 31.4867 33.4945 33.2911V33.937C33.4945 32.8562 33.9209 31.8786 34.6106 31.1706C35.3004 30.4626 36.2528 30.0249 37.3057 30.0249C39.4116 30.0249 41.1178 31.7763 41.1178 33.9369C41.1178 31.7762 42.8241 30.0249 44.9299 30.0249C45.9828 30.0249 46.9352 30.4626 47.625 31.1706C48.3148 31.8786 48.7411 32.8562 48.7411 33.937V33.2911C48.7411 31.4867 50.1661 30.025 51.9231 30.025C52.8015 30.025 53.5973 30.3905 54.1731 30.9815C54.7489 31.5726 55.105 32.3885 55.105 33.2911C55.105 32.3885 55.461 31.5726 56.0369 30.9815C56.6127 30.3905 57.4075 30.025 58.2869 30.025C60.0436 30.0251 61.4686 31.4868 61.4686 33.2912Z" fill="#FAF7F7"/>
<path d="M36.8257 39.4891H35.0172C34.1761 39.4891 33.4944 38.7893 33.4944 37.9259V33.9381C33.4944 32.8573 33.9207 31.8789 34.6105 31.1708C35.3003 30.4628 36.2527 30.0251 37.3056 30.0251C37.6171 30.0251 37.9206 30.0635 38.2108 30.1366C37.5218 30.3084 36.9059 30.672 36.42 31.1707C35.7302 31.8788 35.3039 32.8572 35.3039 33.938V37.9258C35.3038 38.7893 35.9856 39.4891 36.8257 39.4891Z" fill="#F3EAE6"/>
<path d="M30.1726 38.929H28.3631C27.6822 38.929 27.1304 38.3626 27.1304 37.6637V33.2912C27.1304 32.3886 27.4865 31.5727 28.0623 30.9817C28.6381 30.3906 29.4339 30.0251 30.3123 30.0251C30.6266 30.0251 30.931 30.0717 31.2175 30.1595C30.7022 30.3158 30.242 30.6017 29.8718 30.9818C29.296 31.5728 28.9399 32.3887 28.9399 33.2913V37.6638C28.9399 38.3626 29.4918 38.929 30.1726 38.929Z" fill="#F3EAE6"/>
<path d="M24.6758 38.8075C24.7319 38.8678 24.7915 38.9227 24.8538 38.9711C24.2583 39.4379 23.3994 39.3831 22.8663 38.8075L21.5259 37.3613C21.0391 36.836 20.7668 36.1389 20.7668 35.4135V33.2912C20.7668 31.4869 22.1917 30.0251 23.9487 30.0251C24.2638 30.0251 24.5673 30.0717 24.8539 30.1595C23.5375 30.5587 22.5763 31.8094 22.5763 33.2912V35.4135C22.5763 36.1389 22.8486 36.836 23.3354 37.3613L24.6758 38.8075Z" fill="#F3EAE6"/>
<path d="M44.4491 39.4883H42.6406C41.7995 39.4883 41.1177 38.7885 41.1177 37.9251V33.9373C41.1177 32.8566 41.5441 31.8781 42.2339 31.1701C42.9237 30.4621 43.876 30.0244 44.929 30.0244C45.2405 30.0244 45.544 30.0628 45.8342 30.1359C45.1452 30.3077 44.5293 30.6713 44.0434 31.17C43.3536 31.8781 42.9272 32.8565 42.9272 33.9373V37.925C42.9272 38.7885 43.6089 39.4883 44.4491 39.4883Z" fill="#F3EAE6"/>
<path d="M51.7832 38.9286H49.9737C49.2928 38.9286 48.741 38.3621 48.741 37.6632V33.2907C48.741 32.3881 49.0971 31.5723 49.6729 30.9812C50.2487 30.3901 51.0445 30.0247 51.9229 30.0247C52.2372 30.0247 52.5415 30.0712 52.8281 30.159C52.3128 30.3153 51.8526 30.6012 51.4824 30.9813C50.9066 31.5723 50.5505 32.3882 50.5505 33.2908V37.6633C50.5505 38.3621 51.1023 38.9286 51.7832 38.9286Z" fill="#F3EAE6"/>
<path d="M59.0137 38.8071C59.0698 38.8674 59.1294 38.9222 59.1917 38.9706C58.5962 39.4374 57.7374 39.3826 57.2042 38.8071L55.8638 37.3608C55.377 36.8355 55.1047 36.1384 55.1047 35.413V33.2907C55.1047 31.4864 56.5296 30.0247 58.2866 30.0247C58.6017 30.0247 58.9052 30.0712 59.1918 30.159C57.8754 30.5583 56.9142 31.8089 56.9142 33.2907V35.413C56.9142 36.1384 57.1865 36.8355 57.6733 37.3608L59.0137 38.8071Z" fill="#F3EAE6"/>
<path d="M58.7459 46.0612V47.1073C58.7459 47.9396 58.4166 48.6942 57.8852 49.2397C57.3539 49.7851 56.6186 50.1231 55.8079 50.1231C54.1853 50.1231 52.8699 48.7728 52.8699 47.1074C52.8699 47.9397 52.5405 48.6943 52.0092 49.2398C51.4778 49.7852 50.7427 50.1232 49.9318 50.1232C48.3093 50.1232 46.9938 48.7729 46.9938 47.1075C46.9938 47.9398 46.6645 48.6944 46.1331 49.2399C45.6018 49.7852 44.8666 50.1233 44.0558 50.1233C42.4333 50.1233 41.1178 48.773 41.1178 47.1076C41.1178 48.773 39.8023 50.1233 38.1798 50.1233C37.3689 50.1233 36.6338 49.7852 36.1024 49.2399C35.5711 48.6945 35.2418 47.9399 35.2418 47.1075C35.2418 48.7729 33.9263 50.1232 32.3037 50.1232C31.4929 50.1232 30.7578 49.7852 30.2264 49.2398C29.6951 48.6944 29.3657 47.9398 29.3657 47.1074C29.3657 48.7728 28.0502 50.1231 26.4277 50.1231C25.6169 50.1231 24.8817 49.7851 24.3504 49.2397C23.819 48.6943 23.4897 47.9397 23.4897 47.1073V46.0612C23.4897 45.3916 23.7407 44.7475 24.1902 44.2624L25.4283 42.9267C25.9721 42.3402 26.8835 42.3402 27.4273 42.9267L28.6654 44.2624C29.1148 44.7475 29.3658 45.3916 29.3658 46.0612V44.033C29.3658 43.3679 29.8909 42.8289 30.5398 42.8289H34.0679C34.7167 42.8289 35.2418 43.3679 35.2418 44.033C35.2418 43.3679 35.767 42.8289 36.4158 42.8289H39.944C40.5928 42.8289 41.118 43.3679 41.118 44.033C41.118 43.3679 41.6431 42.8289 42.2919 42.8289H45.8201C46.469 42.8289 46.9941 43.3679 46.9941 44.033C46.9941 43.3679 47.5192 42.8289 48.1681 42.8289H51.6962C52.345 42.8289 52.8701 43.3679 52.8701 44.033V46.0612C52.8701 45.3916 53.1211 44.7475 53.5705 44.2624L54.8086 42.9267C55.3524 42.3402 56.2638 42.3402 56.8077 42.9267L58.0457 44.2624C58.4949 44.7475 58.7459 45.3915 58.7459 46.0612Z" fill="#FAF7F7"/>
<path d="M33.1625 49.9918C32.891 50.0777 32.6026 50.1234 32.3036 50.1234C31.4928 50.1234 30.7576 49.7853 30.2263 49.2399C29.6949 48.6945 29.3656 47.9399 29.3656 47.1077V44.0334C29.3656 43.3674 29.8907 42.8284 30.5395 42.8284H32.2573C31.6093 42.8284 31.0842 43.3674 31.0842 44.0334V47.1077C31.0842 47.9399 31.4126 48.6945 31.9449 49.2399C32.2804 49.5843 32.697 49.8455 33.1625 49.9918Z" fill="#F3EAE6"/>
<path d="M39.0385 49.9918C38.7671 50.0777 38.4787 50.1234 38.1797 50.1234C37.3688 50.1234 36.6337 49.7853 36.1023 49.2399C35.571 48.6945 35.2416 47.9399 35.2416 47.1077V44.0334C35.2416 43.3674 35.7668 42.8284 36.4156 42.8284H38.1333C37.4854 42.8284 36.9602 43.3674 36.9602 44.0334V47.1077C36.9602 47.9399 37.2886 48.6945 37.8209 49.2399C38.1565 49.5843 38.573 49.8456 39.0385 49.9918Z" fill="#F3EAE6"/>
<path d="M44.9146 49.9918C44.6432 50.0777 44.3548 50.1234 44.0558 50.1234C43.2449 50.1234 42.5098 49.7853 41.9784 49.2399C41.4471 48.6945 41.1177 47.9399 41.1177 47.1077V44.0334C41.1177 43.3674 41.6429 42.8284 42.2917 42.8284H44.0094C43.3615 42.8284 42.8363 43.3674 42.8363 44.0334V47.1077C42.8363 47.9399 43.1647 48.6945 43.697 49.2399C44.0325 49.5843 44.4491 49.8456 44.9146 49.9918Z" fill="#F3EAE6"/>
<path d="M50.7907 49.9918C50.5192 50.0777 50.2308 50.1234 49.9318 50.1234C49.121 50.1234 48.3858 49.7853 47.8545 49.2399C47.3231 48.6945 46.9938 47.9399 46.9938 47.1077V44.0334C46.9938 43.3674 47.5189 42.8284 48.1677 42.8284H49.8855C49.2375 42.8284 48.7124 43.3674 48.7124 44.0334V47.1077C48.7124 47.9399 49.0408 48.6945 49.5731 49.2399C49.9086 49.5843 50.3252 49.8456 50.7907 49.9918Z" fill="#F3EAE6"/>
<path d="M26.0688 49.2399C26.4044 49.5844 26.8209 49.8456 27.2864 49.9918C27.015 50.0777 26.7266 50.1234 26.4276 50.1234C25.6167 50.1234 24.8816 49.7853 24.3502 49.2399C23.8189 48.6945 23.4895 47.9399 23.4895 47.1077V46.0616C23.4895 45.3919 23.7405 44.7478 24.19 44.2627L25.4281 42.9271C25.9274 42.3872 26.7374 42.3433 27.2875 42.7955C27.2385 42.8348 27.1913 42.8787 27.1468 42.9271L25.9087 44.2627C25.4593 44.7478 25.2082 45.3919 25.2082 46.0616V47.1077C25.2081 47.9399 25.5365 48.6945 26.0688 49.2399Z" fill="#F3EAE6"/>
<path d="M55.4491 49.2399C55.7847 49.5844 56.2012 49.8456 56.6667 49.9918C56.3952 50.0777 56.1069 50.1234 55.8078 50.1234C54.997 50.1234 54.2618 49.7853 53.7305 49.2399C53.1992 48.6945 52.8698 47.9399 52.8698 47.1077V46.0616C52.8698 45.3919 53.1208 44.7478 53.5703 44.2627L54.8084 42.9271C55.3077 42.3872 56.1177 42.3433 56.6677 42.7955C56.6188 42.8348 56.5716 42.8787 56.5271 42.9271L55.289 44.2627C54.8396 44.7478 54.5885 45.3919 54.5885 46.0616V47.1077C54.5885 47.9398 54.9169 48.6944 55.4491 49.2399Z" fill="#F3EAE6"/>
</g>
</g>
<defs>
<clipPath id="clip0_2003_4025">
<rect width="81" height="81" fill="white"/>
</clipPath>
<clipPath id="clip1_2003_4025">
<rect width="47" height="35" fill="white" transform="translate(19 24)"/>
</clipPath>
</defs>
</svg>
