<svg width="81" height="81" viewBox="0 0 81 81" fill="none" xmlns="http://www.w3.org/2000/svg">
<g clip-path="url(#clip0_2003_4118)">
<path d="M9.64532 63.7823C9.00745 64.5319 7.84165 64.476 7.27797 63.6692C2.69087 57.1042 0.000152588 49.1164 0.000152588 40.5C0.000152588 18.1325 18.1326 0 40.5002 0C62.8677 0 81.0002 18.1325 81.0002 40.5C81.0002 49.1032 78.3175 57.08 73.7432 63.6394C73.1697 64.4618 71.9819 64.5176 71.3314 63.7548C63.903 55.0424 52.8468 49.5176 40.5002 49.5176C28.1405 49.5176 17.0739 55.0541 9.64532 63.7823Z" fill="#7D62EE"/>
<path d="M73.7228 19.6169V63.6684C71.4622 66.904 68.7411 69.7939 65.6544 72.2431C58.7454 77.7254 20.8967 77.195 13.7638 70.9211C11.3235 68.7748 9.14366 66.3394 7.2775 63.6684V19.6169C7.2775 18.7432 7.98577 18.0349 8.85953 18.0349H72.1408C73.0145 18.0349 73.7228 18.7432 73.7228 19.6169Z" fill="#E9F3FE"/>
<path d="M13.6056 18.0349C12.7319 18.0349 12.0236 18.519 12.0236 19.1162V69.2978C10.2777 67.5712 8.68788 65.6871 7.2775 63.6683V19.1162C7.2775 18.519 7.98577 18.0349 8.85953 18.0349H13.6056Z" fill="#C8E2FD"/>
<path d="M73.7228 11.7068V19.6169H7.2775V11.7068C7.2775 9.95928 8.69405 8.54272 10.4416 8.54272H70.5587C72.3063 8.54272 73.7228 9.95928 73.7228 11.7068Z" fill="#76B6FA"/>
<path d="M15.188 8.54272C13.4404 8.54272 12.0238 9.95934 12.0238 11.7069V19.6174H7.2775V11.7069C7.2775 9.95934 8.69411 8.54272 10.4417 8.54272H15.188Z" fill="#55A4F9"/>
<path d="M12.6566 14.0801C12.6566 14.9539 11.9483 15.6623 11.0745 15.6623C10.2007 15.6623 9.49237 14.9539 9.49237 14.0801C9.49237 13.2064 10.2007 12.498 11.0745 12.498C11.9483 12.498 12.6566 13.2064 12.6566 14.0801ZM22.1492 12.498C21.2754 12.498 20.5671 13.2064 20.5671 14.0801C20.5671 14.9539 21.2754 15.6623 22.1492 15.6623C23.023 15.6623 23.7313 14.9539 23.7313 14.0801C23.7313 13.2064 23.023 12.498 22.1492 12.498ZM16.6118 12.498C15.738 12.498 15.0297 13.2064 15.0297 14.0801C15.0297 14.9539 15.738 15.6623 16.6118 15.6623C17.4856 15.6623 18.1939 14.9539 18.1939 14.0801C18.1939 13.2064 17.4856 12.498 16.6118 12.498Z" fill="#1380E2"/>
<path d="M71.1916 14.0801C71.1916 14.9538 70.4833 15.6621 69.6095 15.6621H28.4767C27.603 15.6621 26.8947 14.9538 26.8947 14.0801C26.8947 13.2063 27.603 12.498 28.4767 12.498H69.6095C70.4833 12.498 71.1916 13.2063 71.1916 14.0801Z" fill="#FFF5F5"/>
<path d="M19.3009 40.3416H61.6993C64.3206 40.3416 66.4454 42.4664 66.4454 45.0876C66.4454 47.7089 64.3206 49.8337 61.6993 49.8337H19.3009C16.6796 49.8337 14.5548 47.7089 14.5548 45.0876C14.5548 42.4664 16.6796 40.3416 19.3009 40.3416ZM14.5548 28.7927C14.5548 31.414 16.6796 33.5388 19.3009 33.5388H61.6993C64.3206 33.5388 66.4454 31.414 66.4454 28.7927C66.4454 26.1715 64.3206 24.0466 61.6993 24.0466H19.3009C16.6796 24.0466 14.5548 26.1715 14.5548 28.7927ZM61.6993 55.3708H19.3009C16.6796 55.3708 14.5548 57.4957 14.5548 60.1169V70.6477C14.5548 71.2581 14.8332 71.8355 15.3109 72.2154C22.2254 77.7143 30.9791 80.9998 40.5001 80.9998C50.3717 80.9998 59.4184 77.468 66.4454 71.5992V60.1169C66.4454 57.4957 64.3206 55.3708 61.6993 55.3708Z" fill="#C8E2FD"/>
<path d="M19.3009 39.5508H61.6994C64.7525 39.5508 67.2365 42.0347 67.2365 45.0879C67.2365 48.1411 64.7525 50.625 61.6994 50.625H19.3009C16.2478 50.625 13.7638 48.1411 13.7638 45.0879C13.7638 42.0347 16.2478 39.5508 19.3009 39.5508ZM61.6994 49.043C63.8802 49.043 65.6544 47.2687 65.6544 45.0879C65.6544 42.9071 63.8802 41.1328 61.6994 41.1328H19.3009C17.1201 41.1328 15.3459 42.9071 15.3459 45.0879C15.3459 47.2687 17.1201 49.043 19.3009 49.043H61.6994ZM61.6994 34.3301H19.3009C16.2478 34.3301 13.7638 31.8461 13.7638 28.793C13.7638 25.7398 16.2478 23.2559 19.3009 23.2559H61.6994C64.7525 23.2559 67.2365 25.7398 67.2365 28.793C67.2365 31.8461 64.7525 34.3301 61.6994 34.3301ZM19.3009 24.8379C17.1201 24.8379 15.3459 26.6121 15.3459 28.793C15.3459 30.9738 17.1201 32.748 19.3009 32.748H61.6994C63.8802 32.748 65.6544 30.9738 65.6544 28.793C65.6544 26.6121 63.8802 24.8379 61.6994 24.8379H19.3009ZM61.6994 54.5801H19.3009C16.2478 54.5801 13.7638 57.064 13.7638 60.1172V70.9214C14.2797 71.3751 14.8072 71.816 15.3459 72.2433V60.1172C15.3459 57.9364 17.1201 56.1621 19.3009 56.1621H61.6994C63.8802 56.1621 65.6544 57.9364 65.6544 60.1172V72.2433C66.1931 71.8158 66.7206 71.3751 67.2365 70.9214V60.1172C67.2365 57.064 64.7525 54.5801 61.6994 54.5801Z" fill="white"/>
<path d="M38.3644 62.0352H20.1711C19.5158 62.0352 18.9845 61.5039 18.9845 60.8486C18.9845 60.1934 19.5158 59.6621 20.1711 59.6621H38.3644C39.0197 59.6621 39.5509 60.1934 39.5509 60.8486C39.5509 61.5039 39.0197 62.0352 38.3644 62.0352ZM28.4767 65.1992C28.4767 64.5439 27.9455 64.0127 27.2902 64.0127H20.1711C19.5158 64.0127 18.9845 64.5439 18.9845 65.1992C18.9845 65.8545 19.5158 66.3857 20.1711 66.3857H27.2902C27.9455 66.3857 28.4767 65.8545 28.4767 65.1992ZM39.5509 45.0876C39.5509 44.4324 39.0197 43.9011 38.3644 43.9011H20.1711C19.5158 43.9011 18.9845 44.4324 18.9845 45.0876C18.9845 45.7429 19.5158 46.2742 20.1711 46.2742H38.3644C39.0197 46.2742 39.5509 45.7429 39.5509 45.0876ZM33.2228 28.8718C33.2228 28.2165 32.6916 27.6853 32.0363 27.6853H20.1711C19.5158 27.6853 18.9845 28.2165 18.9845 28.8718C18.9845 29.5271 19.5158 30.0583 20.1711 30.0583H32.0363C32.6916 30.0583 33.2228 29.5271 33.2228 28.8718Z" fill="#A7D0FC"/>
<path d="M21.4456 70.9098C21.4456 71.5894 20.8948 72.1403 20.2151 72.1403C19.5354 72.1403 18.9845 71.5894 18.9845 70.9098C18.9845 70.2301 19.5354 69.6792 20.2151 69.6792C20.8946 69.6792 21.4456 70.2302 21.4456 70.9098ZM24.5219 69.6792C23.8424 69.6792 23.2913 70.2301 23.2913 70.9098C23.2913 71.5894 23.8422 72.1403 24.5219 72.1403C25.2016 72.1403 25.7524 71.5894 25.7524 70.9098C25.7524 70.2302 25.2014 69.6792 24.5219 69.6792ZM28.8287 69.6792C28.1492 69.6792 27.5981 70.2301 27.5981 70.9098C27.5981 71.5894 28.149 72.1403 28.8287 72.1403C29.5084 72.1403 30.0592 71.5894 30.0592 70.9098C30.0592 70.2302 29.5084 69.6792 28.8287 69.6792Z" fill="#76B6FA"/>
<path d="M57.6104 34.1447L51.1331 58.3181C50.9904 58.851 50.4427 59.167 49.91 59.0243C49.3774 58.8817 49.0611 58.334 49.2038 57.8011L55.6811 33.6277C55.8238 33.0949 56.3715 32.7788 56.9042 32.9215C57.4369 33.0643 57.7531 33.612 57.6104 34.1447Z" fill="#958FCA"/>
<path d="M55.8265 49.2926L54.5957 53.8857C54.3697 54.7298 53.502 55.2305 52.6581 55.0044L49.5405 54.1691C48.6964 53.943 48.1957 53.0754 48.4217 52.2315L49.6525 47.6383C49.8785 46.7943 50.7462 46.2935 51.5902 46.5196L54.7079 47.355C55.5518 47.581 56.0525 48.4487 55.8265 49.2926Z" fill="#8078BF"/>
<path d="M69.7536 5.03424L65.6177 20.4696L65.443 21.1214L55.4587 18.2514L55.6688 17.4674L59.7205 2.34578C60.1729 0.65783 61.908 -0.343957 63.5959 0.108366L67.516 1.15872C69.2041 1.61121 70.2059 3.34614 69.7536 5.03424Z" fill="#453D83"/>
<path d="M69.7534 5.0339L65.6175 20.4692L59.2793 18.3402L63.3075 3.30671C63.7598 1.61877 65.4947 0.61698 67.1828 1.0693L67.5159 1.15853C69.204 1.61086 70.2057 3.34579 69.7534 5.0339Z" fill="#51489A"/>
<path d="M65.6174 20.4687L57.9681 49.0161C57.5158 50.704 55.7808 51.7057 54.0929 51.2534L50.1728 50.2031C48.4849 49.7508 47.4832 48.0158 47.9355 46.3279L55.5848 17.7805C56.0371 16.0926 57.7719 15.0909 59.46 15.5432L63.3799 16.5935C65.068 17.0458 66.0695 18.7808 65.6174 20.4687Z" fill="#5F55AF"/>
<path d="M65.6174 20.4683L57.9681 49.0158C57.5158 50.7036 55.7808 51.7054 54.093 51.2531L53.7599 51.1638C52.0721 50.7115 51.0703 48.9765 51.5226 47.2887L59.9908 15.6851L63.38 16.5931C65.068 17.0454 66.0696 18.7805 65.6174 20.4683Z" fill="#6A61B4"/>
<path d="M54.3055 66.4563H62.8884C66.3834 66.4563 69.2168 69.2897 69.2168 72.7847C69.2168 76.2797 66.3834 79.1131 62.8884 79.1131H54.3055C50.8104 79.1131 47.9771 76.2797 47.9771 72.7847C47.9771 69.2897 50.8104 66.4563 54.3055 66.4563Z" fill="#5DB33A"/>
<path d="M59.1703 66.4563H65.4419C68.937 66.4563 71.7704 69.2897 71.7704 72.7847C71.7704 76.2797 68.937 79.1131 65.4419 79.1131H59.1703C55.6753 79.1131 52.8419 76.2797 52.8419 72.7847C52.8419 69.2897 55.6751 66.4563 59.1703 66.4563Z" fill="#6DC54A"/>
<path d="M67.5314 72.7852C67.5314 72.995 67.4482 73.1963 67.2997 73.3447L64.6215 76.0227C64.4671 76.1771 64.2646 76.2543 64.0622 76.2543C63.8598 76.2543 63.6572 76.1771 63.5029 76.0227C63.1939 75.7137 63.1939 75.2128 63.5029 74.904L64.8306 73.5763H53.0068C52.5698 73.5763 52.2157 73.2221 52.2157 72.7852C52.2157 72.3484 52.5698 71.9942 53.0068 71.9942H64.8308L63.5031 70.6665C63.1941 70.3575 63.1941 69.8566 63.5031 69.5478C63.8118 69.239 64.313 69.239 64.6216 69.5478L67.2998 72.226C67.4482 72.3742 67.5314 72.5755 67.5314 72.7852Z" fill="white"/>
</g>
<defs>
<clipPath id="clip0_2003_4118">
<rect width="81" height="81" fill="white"/>
</clipPath>
</defs>
</svg>
