<svg width="759" height="1790" viewBox="0 0 759 1790" fill="none" xmlns="http://www.w3.org/2000/svg">
<g opacity="0.2">
<mask id="mask0_2003_1242" style="mask-type:alpha" maskUnits="userSpaceOnUse" x="272" y="43" width="1355" height="1512">
<path d="M734.763 124.36C871.022 151.906 1203.93 30.801 1364.96 44.9239L1626.95 481.074C1152.99 636.996 1601.57 313.683 894.807 726.572C704.912 837.508 712.962 1219.03 784.381 1554.31L405.091 1196.1C318.442 969.43 268.89 633.109 272.526 574.145C277.072 500.439 598.504 96.8148 734.763 124.36Z" fill="#C4C4C4"/>
</mask>
<g mask="url(#mask0_2003_1242)">
<g opacity="0.4" filter="url(#filter0_f_2003_1242)">
<ellipse cx="437.759" cy="1001.61" rx="633.5" ry="384.5" transform="rotate(-38.7295 437.759 1001.61)" fill="#00D1FF"/>
</g>
<mask id="mask1_2003_1242" style="mask-type:alpha" maskUnits="userSpaceOnUse" x="-707" y="-282" width="2545" height="2446">
<path d="M1009.83 -281.696L1837.01 423.051L263.07 2163.72L-706.304 1383.82L1009.83 -281.696Z" fill="url(#paint0_linear_2003_1242)"/>
</mask>
<g mask="url(#mask1_2003_1242)">
<mask id="mask2_2003_1242" style="mask-type:alpha" maskUnits="userSpaceOnUse" x="-492" y="-82" width="2013" height="2005">
<path d="M129.813 1922.38C-136.888 1651.42 -477.036 1305.7 -491.811 1293.68L899.033 -81.5131L1520.66 547.186L129.813 1922.38Z" fill="url(#paint1_linear_2003_1242)"/>
</mask>
<g mask="url(#mask2_2003_1242)">
<path d="M264.915 763.705C421.784 608.601 649.41 575.019 735.239 661.825C821.067 748.63 870.2 925.332 701.893 1091.75C618.489 1174.21 574.595 1332.37 432.763 1387.12C288.383 1442.85 194.26 1301.78 150.964 1257.99C65.1355 1171.18 108.046 918.808 264.915 763.705Z" fill="#00D1FF"/>
<g filter="url(#filter1_f_2003_1242)">
<path d="M270.384 773.001C438.622 606.656 641.317 570.835 715.092 645.45C788.867 720.065 822.209 880.744 653.971 1047.09C570.601 1129.52 520.609 1281.43 384.82 1342.21C246.591 1404.08 168.898 1279.64 131.682 1242C57.9067 1167.39 102.146 939.346 270.384 773.001Z" fill="#00D1FF"/>
</g>
<g filter="url(#filter2_f_2003_1242)">
<path d="M275.475 767.959C464.037 581.519 700.441 550.697 791.396 642.689C882.352 734.68 930.572 925.744 742.01 1112.18C648.568 1204.57 606.752 1389.21 450.442 1453.17C291.323 1518.27 185.274 1359.62 139.391 1313.21C48.4356 1221.22 86.9125 954.399 275.475 767.959Z" fill="#00D1FF"/>
</g>
<g filter="url(#filter3_f_2003_1242)">
<path d="M308.014 757.336C563.131 549.715 1600.34 347.159 980.393 586.022C360.443 824.884 744.809 913.748 518.666 1137.35C406.601 1248.15 717.515 1521.09 531.362 1599.12C341.864 1678.55 227.496 1501.24 173.796 1446.93C67.3439 1339.27 12.4751 997.854 308.014 757.336Z" fill="#7785FF"/>
</g>
<g filter="url(#filter4_f_2003_1242)">
<path d="M429.534 723.356C673.031 482.599 1586.41 308.963 1123.89 519.312C661.362 729.661 1213.25 864.168 969.754 1104.92C849.09 1224.23 742.301 1409.26 547.112 1498.59C348.417 1589.52 239.65 1413.15 187.147 1360.05C83.0683 1254.78 186.037 964.112 429.534 723.356Z" fill="#7785FF"/>
</g>
<g filter="url(#filter5_f_2003_1242)">
<path d="M565.85 671.669C817.482 422.869 1174.39 350.557 1280.84 458.221C239.249 770.404 1370.89 812.275 1119.26 1061.07C994.566 1184.37 883.789 1375.15 682.629 1468.02C477.855 1562.56 366.96 1381.81 313.26 1327.5C206.808 1219.84 314.218 920.468 565.85 671.669Z" fill="#7785FF"/>
</g>
<g filter="url(#filter6_f_2003_1242)">
<path d="M257.17 819.292C477.348 601.593 1078.35 445.027 974.627 567.023C870.909 689.019 811.121 951.735 590.944 1169.44C481.835 1277.32 586.668 1486.73 404.027 1561.29C218.105 1637.18 102.923 1460.67 49.2232 1406.36C-57.2287 1298.7 36.9922 1036.99 257.17 819.292Z" fill="url(#paint2_linear_2003_1242)"/>
</g>
</g>
</g>
<mask id="mask3_2003_1242" style="mask-type:alpha" maskUnits="userSpaceOnUse" x="331" y="-95" width="1002" height="938">
<path d="M1332.26 327.215L689.867 -94.0621L331.148 521.367C453.78 628.974 700.189 843.764 704.769 842.067C709.349 840.369 1125.01 498.125 1332.26 327.215Z" fill="url(#paint3_linear_2003_1242)"/>
</mask>
<g mask="url(#mask3_2003_1242)">
<mask id="mask4_2003_1242" style="mask-type:alpha" maskUnits="userSpaceOnUse" x="379" y="0" width="839" height="885">
<path d="M807.792 0.65625C983.584 130.255 1207.81 295.612 1217.03 301.44L788.471 884.519L379.235 583.735L807.792 0.65625Z" fill="url(#paint4_linear_2003_1242)"/>
</mask>
<g mask="url(#mask4_2003_1242)">
<path d="M959.936 508.832C926.286 554.616 834.968 546.786 778.464 505.256C721.961 463.727 661.431 390.693 697.535 341.571C715.427 317.229 699.379 259.912 748.773 251.672C799.054 243.284 871.198 306.62 899.701 327.57C956.205 369.099 993.586 463.049 959.936 508.832Z" fill="#00A3FF"/>
<g filter="url(#filter7_f_2003_1242)">
<path d="M959.08 507.994C920.413 560.602 822.781 546.833 760.062 500.734C697.342 454.636 629.622 374.291 668.288 321.683C687.449 295.613 667.157 231.945 721.155 223.928C776.123 215.767 856.396 285.809 888.035 309.063C950.755 355.162 997.746 455.386 959.08 507.994Z" fill="#00A3FF"/>
</g>
<g filter="url(#filter8_f_2003_1242)">
<path d="M948.358 502.718C955.975 544.284 803.383 560.823 743.855 517.071C684.327 473.318 623.487 392.391 669.286 330.079C691.982 299.2 672.652 227.246 729.26 212.347C786.885 197.18 866.867 269.046 896.896 291.117C956.424 334.869 1004.05 489.723 948.358 502.718Z" fill="#00A3FF"/>
</g>
<g filter="url(#filter9_f_2003_1242)">
<path d="M920.382 491.332C856.5 549.031 741.414 551.13 674.891 502.236C608.369 453.343 561.802 366 610.312 299.998C634.351 267.291 592.752 171.958 654.44 157.447C717.235 142.675 801.353 218.354 834.91 243.019C901.433 291.912 994.386 424.491 920.382 491.332Z" fill="#00A3FF"/>
</g>
<g filter="url(#filter10_f_2003_1242)">
<path d="M892.258 526.626C829.793 551.66 668.834 592.206 600.315 541.846C531.797 491.485 618.423 280.801 670.656 209.735C696.541 174.518 701.819 112.539 766.693 95.7765C832.731 78.7131 883.145 189.431 930.264 281.39C992.834 403.505 980.291 519.667 892.258 526.626Z" fill="#00A3FF"/>
</g>
<g filter="url(#filter11_f_2003_1242)">
<path d="M907.765 467.164C853.787 540.605 606.082 576.042 536.002 524.533C465.921 473.024 537.752 312.568 591.73 239.127C618.479 202.733 634.139 64.0491 700.818 46.4609C768.694 28.5568 804.262 92.4523 839.614 118.436C909.695 169.945 961.744 393.724 907.765 467.164Z" fill="#00A3FF"/>
</g>
<g filter="url(#filter12_f_2003_1242)">
<path d="M907.765 467.164C853.787 540.605 606.082 576.042 536.002 524.533C465.921 473.024 537.752 312.568 591.73 239.127C618.479 202.733 634.139 64.0491 700.818 46.4609C768.694 28.5568 804.262 92.4523 839.614 118.436C909.695 169.945 961.744 393.724 907.765 467.164Z" fill="#00A3FF"/>
</g>
<g filter="url(#filter13_f_2003_1242)">
<path d="M907.765 467.164C853.787 540.605 606.082 576.042 536.002 524.533C465.921 473.024 537.752 312.568 591.73 239.127C618.479 202.733 634.139 64.0491 700.818 46.4609C768.694 28.5568 804.262 92.4523 839.614 118.436C909.695 169.945 961.744 393.724 907.765 467.164Z" fill="#00A3FF"/>
</g>
<g filter="url(#filter14_f_2003_1242)">
<path d="M907.765 467.164C853.787 540.605 611.361 588.374 541.28 536.865C471.199 485.357 537.752 312.568 591.73 239.127C618.479 202.733 634.139 64.0491 700.818 46.4609C768.694 28.5568 804.262 92.4523 839.614 118.436C909.695 169.945 961.744 393.724 907.765 467.164Z" fill="#00A3FF"/>
</g>
<g filter="url(#filter15_f_2003_1242)">
<path d="M929.506 509.709C882.275 573.97 749.263 561.414 679.183 509.905C609.102 458.397 558.019 369.136 605.25 304.876C628.655 273.031 647.973 210.321 710.679 198.138C774.512 185.736 840.651 256.726 876.004 282.71C946.085 334.219 976.737 445.449 929.506 509.709Z" fill="#00A3FF"/>
</g>
</g>
</g>
</g>
<mask id="mask5_2003_1242" style="mask-type:alpha" maskUnits="userSpaceOnUse" x="433" y="101" width="740" height="593">
<path d="M433.127 267.989L623.471 101.92L1172.3 410.476L865.043 693.199L433.127 267.989Z" fill="url(#paint5_linear_2003_1242)"/>
</mask>
<g mask="url(#mask5_2003_1242)">
<g opacity="0.58">
<mask id="mask6_2003_1242" style="mask-type:alpha" maskUnits="userSpaceOnUse" x="243" y="18" width="1052" height="948">
<path d="M243.277 236.738L650.702 18.0702L1294.9 594.852L990.453 965.766L243.277 236.738Z" fill="url(#paint6_linear_2003_1242)"/>
</mask>
<g mask="url(#mask6_2003_1242)">
<path d="M956.944 531.374C908.08 398.223 788.846 313.044 708.935 269.229L657.597 250.758L613.769 240.221L529.721 295.201L605.422 439.497L833.168 625.716L935.042 634.255C949.204 634.553 973.411 614.394 956.944 531.374Z" fill="#00A3FF"/>
<g filter="url(#filter16_f_2003_1242)">
<path d="M966.046 527.911C925.804 432.753 889.946 414.255 827.831 380.542L776.493 362.071L732.665 351.534L648.617 406.514L596.519 438.236L824.265 624.454L926.138 632.993C940.3 633.291 982.513 610.931 966.046 527.911Z" fill="#00A3FF"/>
</g>
<g filter="url(#filter17_f_2003_1242)">
<path d="M987.747 548.753C894.91 381.974 734.84 299.399 672.725 265.686L642.878 248.368L609.947 235.14L525.899 290.12L601.6 434.416L829.347 620.635L934.034 590.185C948.196 590.483 1004.21 631.772 987.747 548.753Z" fill="#00A3FF"/>
</g>
<g filter="url(#filter18_f_2003_1242)">
<path d="M989.109 557.174C857.843 366.416 719.165 278.521 657.049 244.809L627.202 227.49L594.272 214.263L463.072 248.124L635.84 456.593L865.552 736.993L979.719 704.791C993.881 705.089 1005.58 640.194 989.109 557.174Z" fill="#00A3FF"/>
</g>
</g>
</g>
</g>
</g>
<defs>
<filter id="filter0_f_2003_1242" x="-377.571" y="238.96" width="1630.66" height="1525.29" filterUnits="userSpaceOnUse" color-interpolation-filters="sRGB">
<feFlood flood-opacity="0" result="BackgroundImageFix"/>
<feBlend mode="normal" in="SourceGraphic" in2="BackgroundImageFix" result="shape"/>
<feGaussianBlur stdDeviation="132.784" result="effect1_foregroundBlur_2003_1242"/>
</filter>
<filter id="filter1_f_2003_1242" x="88.4724" y="599.58" width="695.917" height="768.395" filterUnits="userSpaceOnUse" color-interpolation-filters="sRGB">
<feFlood flood-opacity="0" result="BackgroundImageFix"/>
<feBlend mode="normal" in="SourceGraphic" in2="BackgroundImageFix" result="shape"/>
<feGaussianBlur stdDeviation="4.4002" result="effect1_foregroundBlur_2003_1242"/>
</filter>
<filter id="filter2_f_2003_1242" x="61.5125" y="561.814" width="840.812" height="937.616" filterUnits="userSpaceOnUse" color-interpolation-filters="sRGB">
<feFlood flood-opacity="0" result="BackgroundImageFix"/>
<feBlend mode="normal" in="SourceGraphic" in2="BackgroundImageFix" result="shape"/>
<feGaussianBlur stdDeviation="15.4007" result="effect1_foregroundBlur_2003_1242"/>
</filter>
<filter id="filter3_f_2003_1242" x="44.6499" y="434.014" width="1174.32" height="1229.26" filterUnits="userSpaceOnUse" color-interpolation-filters="sRGB">
<feFlood flood-opacity="0" result="BackgroundImageFix"/>
<feBlend mode="normal" in="SourceGraphic" in2="BackgroundImageFix" result="shape"/>
<feGaussianBlur stdDeviation="22.001" result="effect1_foregroundBlur_2003_1242"/>
</filter>
<filter id="filter4_f_2003_1242" x="27.9771" y="306.126" width="1343.52" height="1336.88" filterUnits="userSpaceOnUse" color-interpolation-filters="sRGB">
<feFlood flood-opacity="0" result="BackgroundImageFix"/>
<feBlend mode="normal" in="SourceGraphic" in2="BackgroundImageFix" result="shape"/>
<feGaussianBlur stdDeviation="59.4027" result="effect1_foregroundBlur_2003_1242"/>
</filter>
<filter id="filter5_f_2003_1242" x="-22.4381" y="115.009" width="1598.09" height="1674.73" filterUnits="userSpaceOnUse" color-interpolation-filters="sRGB">
<feFlood flood-opacity="0" result="BackgroundImageFix"/>
<feBlend mode="normal" in="SourceGraphic" in2="BackgroundImageFix" result="shape"/>
<feGaussianBlur stdDeviation="147.407" result="effect1_foregroundBlur_2003_1242"/>
</filter>
<filter id="filter6_f_2003_1242" x="-131.044" y="387.907" width="1254" height="1328.45" filterUnits="userSpaceOnUse" color-interpolation-filters="sRGB">
<feFlood flood-opacity="0" result="BackgroundImageFix"/>
<feBlend mode="normal" in="SourceGraphic" in2="BackgroundImageFix" result="shape"/>
<feGaussianBlur stdDeviation="68.2031" result="effect1_foregroundBlur_2003_1242"/>
</filter>
<filter id="filter7_f_2003_1242" x="655.4" y="221.71" width="319.272" height="321.644" filterUnits="userSpaceOnUse" color-interpolation-filters="sRGB">
<feFlood flood-opacity="0" result="BackgroundImageFix"/>
<feBlend mode="normal" in="SourceGraphic" in2="BackgroundImageFix" result="shape"/>
<feGaussianBlur stdDeviation="0.780112" result="effect1_foregroundBlur_2003_1242"/>
</filter>
<filter id="filter8_f_2003_1242" x="647.778" y="204.802" width="330.77" height="343.57" filterUnits="userSpaceOnUse" color-interpolation-filters="sRGB">
<feFlood flood-opacity="0" result="BackgroundImageFix"/>
<feBlend mode="normal" in="SourceGraphic" in2="BackgroundImageFix" result="shape"/>
<feGaussianBlur stdDeviation="2.73039" result="effect1_foregroundBlur_2003_1242"/>
</filter>
<filter id="filter9_f_2003_1242" x="582.462" y="147.751" width="372.985" height="396.956" filterUnits="userSpaceOnUse" color-interpolation-filters="sRGB">
<feFlood flood-opacity="0" result="BackgroundImageFix"/>
<feBlend mode="normal" in="SourceGraphic" in2="BackgroundImageFix" result="shape"/>
<feGaussianBlur stdDeviation="3.90056" result="effect1_foregroundBlur_2003_1242"/>
</filter>
<filter id="filter10_f_2003_1242" x="553.937" y="72.958" width="436.454" height="513.985" filterUnits="userSpaceOnUse" color-interpolation-filters="sRGB">
<feFlood flood-opacity="0" result="BackgroundImageFix"/>
<feBlend mode="normal" in="SourceGraphic" in2="BackgroundImageFix" result="shape"/>
<feGaussianBlur stdDeviation="10.5315" result="effect1_foregroundBlur_2003_1242"/>
</filter>
<filter id="filter11_f_2003_1242" x="447.81" y="-15.775" width="541.429" height="623.776" filterUnits="userSpaceOnUse" color-interpolation-filters="sRGB">
<feFlood flood-opacity="0" result="BackgroundImageFix"/>
<feBlend mode="normal" in="SourceGraphic" in2="BackgroundImageFix" result="shape"/>
<feGaussianBlur stdDeviation="29.5587" result="effect1_foregroundBlur_2003_1242"/>
</filter>
<filter id="filter12_f_2003_1242" x="447.81" y="-15.775" width="541.429" height="623.776" filterUnits="userSpaceOnUse" color-interpolation-filters="sRGB">
<feFlood flood-opacity="0" result="BackgroundImageFix"/>
<feBlend mode="normal" in="SourceGraphic" in2="BackgroundImageFix" result="shape"/>
<feGaussianBlur stdDeviation="29.5587" result="effect1_foregroundBlur_2003_1242"/>
</filter>
<filter id="filter13_f_2003_1242" x="447.81" y="-15.775" width="541.429" height="623.776" filterUnits="userSpaceOnUse" color-interpolation-filters="sRGB">
<feFlood flood-opacity="0" result="BackgroundImageFix"/>
<feBlend mode="normal" in="SourceGraphic" in2="BackgroundImageFix" result="shape"/>
<feGaussianBlur stdDeviation="29.5587" result="effect1_foregroundBlur_2003_1242"/>
</filter>
<filter id="filter14_f_2003_1242" x="451.933" y="-15.775" width="537.306" height="633.318" filterUnits="userSpaceOnUse" color-interpolation-filters="sRGB">
<feFlood flood-opacity="0" result="BackgroundImageFix"/>
<feBlend mode="normal" in="SourceGraphic" in2="BackgroundImageFix" result="shape"/>
<feGaussianBlur stdDeviation="29.5587" result="effect1_foregroundBlur_2003_1242"/>
</filter>
<filter id="filter15_f_2003_1242" x="562.749" y="172.513" width="413.636" height="405.014" filterUnits="userSpaceOnUse" color-interpolation-filters="sRGB">
<feFlood flood-opacity="0" result="BackgroundImageFix"/>
<feBlend mode="normal" in="SourceGraphic" in2="BackgroundImageFix" result="shape"/>
<feGaussianBlur stdDeviation="12.0917" result="effect1_foregroundBlur_2003_1242"/>
</filter>
<filter id="filter16_f_2003_1242" x="570.252" y="325.267" width="425.814" height="333.995" filterUnits="userSpaceOnUse" color-interpolation-filters="sRGB">
<feFlood flood-opacity="0" result="BackgroundImageFix"/>
<feBlend mode="normal" in="SourceGraphic" in2="BackgroundImageFix" result="shape"/>
<feGaussianBlur stdDeviation="13.1334" result="effect1_foregroundBlur_2003_1242"/>
</filter>
<filter id="filter17_f_2003_1242" x="499.632" y="208.874" width="517.383" height="438.028" filterUnits="userSpaceOnUse" color-interpolation-filters="sRGB">
<feFlood flood-opacity="0" result="BackgroundImageFix"/>
<feBlend mode="normal" in="SourceGraphic" in2="BackgroundImageFix" result="shape"/>
<feGaussianBlur stdDeviation="13.1334" result="effect1_foregroundBlur_2003_1242"/>
</filter>
<filter id="filter18_f_2003_1242" x="388.474" y="139.665" width="683.276" height="671.926" filterUnits="userSpaceOnUse" color-interpolation-filters="sRGB">
<feFlood flood-opacity="0" result="BackgroundImageFix"/>
<feBlend mode="normal" in="SourceGraphic" in2="BackgroundImageFix" result="shape"/>
<feGaussianBlur stdDeviation="37.2988" result="effect1_foregroundBlur_2003_1242"/>
</filter>
<linearGradient id="paint0_linear_2003_1242" x1="1110.06" y1="490.957" x2="99.4873" y2="1654.69" gradientUnits="userSpaceOnUse">
<stop stop-color="#C4C4C4" stop-opacity="0"/>
<stop offset="0.261523" stop-color="#C4C4C4"/>
<stop offset="0.554366" stop-color="#C4C4C4"/>
<stop offset="1" stop-color="#C4C4C4" stop-opacity="0"/>
</linearGradient>
<linearGradient id="paint1_linear_2003_1242" x1="188.181" y1="818.302" x2="638.853" y2="1253.79" gradientUnits="userSpaceOnUse">
<stop stop-color="#C4C4C4"/>
<stop offset="1" stop-color="#C4C4C4" stop-opacity="0"/>
</linearGradient>
<linearGradient id="paint2_linear_2003_1242" x1="195.966" y1="1479.37" x2="1007.29" y2="677.179" gradientUnits="userSpaceOnUse">
<stop offset="0.5625" stop-color="#491CFF"/>
<stop offset="1" stop-color="#0038FF"/>
</linearGradient>
<linearGradient id="paint3_linear_2003_1242" x1="884.434" y1="109.485" x2="528.489" y2="553.89" gradientUnits="userSpaceOnUse">
<stop stop-color="#C4C4C4" stop-opacity="0"/>
<stop offset="0.430547" stop-color="#C4C4C4"/>
<stop offset="0.498519" stop-color="#C4C4C4"/>
<stop offset="1" stop-color="#C4C4C4" stop-opacity="0"/>
</linearGradient>
<linearGradient id="paint4_linear_2003_1242" x1="1027.95" y1="535.376" x2="591.926" y2="285.573" gradientUnits="userSpaceOnUse">
<stop stop-color="#C4C4C4"/>
<stop offset="1" stop-color="#C4C4C4" stop-opacity="0"/>
</linearGradient>
<linearGradient id="paint5_linear_2003_1242" x1="939.469" y1="574.212" x2="587.268" y2="303.197" gradientUnits="userSpaceOnUse">
<stop stop-color="#C4C4C4" stop-opacity="0"/>
<stop offset="0.11282" stop-color="#C4C4C4"/>
<stop offset="0.284305" stop-color="#C4C4C4"/>
<stop offset="1" stop-color="#C4C4C4" stop-opacity="0"/>
</linearGradient>
<linearGradient id="paint6_linear_2003_1242" x1="858.325" y1="351.924" x2="772.338" y2="433.514" gradientUnits="userSpaceOnUse">
<stop offset="0.155373" stop-color="#C4C4C4"/>
<stop offset="1" stop-color="#C4C4C4" stop-opacity="0"/>
</linearGradient>
</defs>
</svg>
