<svg width="998" height="1240" viewBox="0 0 998 1240" fill="none" xmlns="http://www.w3.org/2000/svg">
<g opacity="0.2">
<mask id="mask0_2003_1287" style="mask-type:alpha" maskUnits="userSpaceOnUse" x="133" y="30" width="938" height="1047">
<path d="M453.348 86.3575C547.661 105.423 778.081 21.6001 889.539 31.3753L1070.88 333.259C742.828 441.181 1053.31 217.398 564.123 503.181C432.687 579.966 438.259 844.037 487.691 1076.11L225.164 828.166C165.19 671.277 130.892 438.491 133.409 397.678C136.555 346.662 359.036 67.2919 453.348 86.3575Z" fill="#C4C4C4"/>
</mask>
<g mask="url(#mask0_2003_1287)">
<g opacity="0.4" filter="url(#filter0_f_2003_1287)">
<ellipse cx="247.499" cy="694.165" rx="438.5" ry="266" transform="rotate(-38.7295 247.499 694.165)" fill="#00D1FF"/>
</g>
<mask id="mask1_2003_1287" style="mask-type:alpha" maskUnits="userSpaceOnUse" x="-545" y="-195" width="1762" height="1693">
<path d="M643.739 -194.696L1216.27 293.098L126.864 1497.91L-544.093 958.1L643.739 -194.696Z" fill="url(#paint0_linear_2003_1287)"/>
</mask>
<g mask="url(#mask1_2003_1287)">
<mask id="mask2_2003_1287" style="mask-type:alpha" maskUnits="userSpaceOnUse" x="-396" y="-57" width="1394" height="1388">
<path d="M34.6295 1330.86C-149.969 1143.32 -385.404 904.025 -395.63 895.706L567.049 -56.1386L997.309 379.019L34.6295 1330.86Z" fill="url(#paint1_linear_2003_1287)"/>
</mask>
<g mask="url(#mask2_2003_1287)">
<path d="M128.141 528.883C236.719 421.528 394.271 398.284 453.678 458.367C513.084 518.449 547.092 640.755 430.597 755.938C372.869 813.017 342.487 922.486 244.317 960.38C144.384 998.956 79.2366 901.313 49.2689 871.005C-10.1376 810.922 19.5633 636.239 128.141 528.883Z" fill="#00D1FF"/>
<g filter="url(#filter1_f_2003_1287)">
<path d="M131.926 535.317C248.373 420.181 388.669 395.387 439.733 447.032C490.797 498.677 513.875 609.892 397.428 725.029C339.723 782.085 305.121 887.227 211.133 929.296C115.458 972.121 61.6822 885.992 35.9229 859.94C-15.141 808.295 15.4794 650.454 131.926 535.317Z" fill="#00D1FF"/>
</g>
<g filter="url(#filter2_f_2003_1287)">
<path d="M135.45 531.828C265.964 402.783 429.592 381.449 492.548 445.121C555.503 508.793 588.879 641.04 458.364 770.085C393.688 834.033 364.745 961.829 256.554 1006.1C146.419 1051.16 73.0171 941.349 41.2591 909.23C-21.6964 845.557 4.93557 660.873 135.45 531.828Z" fill="#00D1FF"/>
</g>
<g filter="url(#filter3_f_2003_1287)">
<path d="M157.972 524.475C334.553 380.769 1052.46 240.569 623.362 405.899C194.261 571.229 460.302 632.737 303.776 787.501C226.21 864.194 441.41 1053.11 312.563 1107.12C181.402 1162.1 102.241 1039.37 65.0723 1001.78C-8.60897 927.26 -46.5867 690.951 157.972 524.475Z" fill="#7785FF"/>
</g>
<g filter="url(#filter4_f_2003_1287)">
<path d="M242.083 500.956C410.62 334.315 1042.82 214.132 722.682 359.726C402.544 505.32 784.536 598.42 615.999 765.061C532.48 847.64 458.566 975.711 323.465 1037.54C185.937 1100.48 110.653 978.399 74.3135 941.645C2.27484 868.786 73.545 667.597 242.083 500.956Z" fill="#7785FF"/>
</g>
<g filter="url(#filter5_f_2003_1287)">
<path d="M336.435 465.18C510.603 292.973 757.638 242.921 831.319 317.441C110.376 533.521 893.65 562.501 719.481 734.709C633.173 820.047 556.497 952.102 417.264 1016.38C275.529 1081.81 198.772 956.709 161.603 919.118C87.9222 844.598 162.266 637.388 336.435 465.18Z" fill="#7785FF"/>
</g>
<g filter="url(#filter6_f_2003_1287)">
<path d="M122.78 567.359C275.177 416.677 691.161 308.309 619.372 392.749C547.583 477.189 506.2 659.03 353.803 809.712C278.283 884.382 350.844 1029.33 224.428 1080.93C95.741 1133.47 16.0173 1011.29 -21.1513 973.703C-94.8325 899.183 -29.617 718.041 122.78 567.359Z" fill="url(#paint2_linear_2003_1287)"/>
</g>
</g>
</g>
<mask id="mask3_2003_1287" style="mask-type:alpha" maskUnits="userSpaceOnUse" x="173" y="-65" width="694" height="649">
<path d="M866.911 226.764L422.273 -64.8246L173.984 361.148C258.864 435.629 429.418 584.297 432.588 583.122C435.758 581.946 723.457 345.06 866.911 226.764Z" fill="url(#paint3_linear_2003_1287)"/>
</mask>
<g mask="url(#mask3_2003_1287)">
<mask id="mask4_2003_1287" style="mask-type:alpha" maskUnits="userSpaceOnUse" x="207" y="0" width="581" height="613">
<path d="M503.896 0.735352C625.571 90.4378 780.772 204.89 787.15 208.925L490.522 612.505L207.268 404.316L503.896 0.735352Z" fill="url(#paint4_linear_2003_1287)"/>
</mask>
<g mask="url(#mask4_2003_1287)">
<path d="M609.203 352.472C585.911 384.161 522.705 378.741 483.596 349.996C444.487 321.251 402.591 270.701 427.581 236.701C439.964 219.853 428.857 180.18 463.045 174.477C497.847 168.671 547.782 212.509 567.511 227.01C606.62 255.755 632.494 320.782 609.203 352.472Z" fill="#00A3FF"/>
<g filter="url(#filter7_f_2003_1287)">
<path d="M608.61 351.892C581.847 388.305 514.27 378.774 470.859 346.867C427.447 314.96 380.574 259.349 407.337 222.936C420.6 204.891 406.554 160.823 443.929 155.274C481.976 149.625 537.537 198.105 559.436 214.201C602.848 246.108 635.373 315.479 608.61 351.892Z" fill="#00A3FF"/>
</g>
<g filter="url(#filter8_f_2003_1287)">
<path d="M601.189 348.239C606.461 377.009 500.844 388.457 459.641 358.173C418.439 327.89 376.328 271.876 408.028 228.746C423.737 207.373 410.358 157.57 449.539 147.257C489.425 136.76 544.785 186.502 565.569 201.778C606.772 232.062 639.733 339.244 601.189 348.239Z" fill="#00A3FF"/>
</g>
<g filter="url(#filter9_f_2003_1287)">
<path d="M581.826 340.359C537.609 380.296 457.952 381.748 411.908 347.906C365.864 314.065 333.632 253.61 367.209 207.926C383.848 185.288 355.055 119.302 397.752 109.259C441.216 99.0345 499.439 151.416 522.666 168.488C568.709 202.33 633.048 294.095 581.826 340.359Z" fill="#00A3FF"/>
</g>
<g filter="url(#filter10_f_2003_1287)">
<path d="M562.359 364.788C519.124 382.115 407.715 410.179 360.289 375.322C312.864 340.465 372.823 194.639 408.977 145.45C426.892 121.074 430.546 78.1751 475.448 66.5731C521.157 54.7626 556.051 131.396 588.665 195.046C631.974 279.569 623.292 359.971 562.359 364.788Z" fill="#00A3FF"/>
</g>
<g filter="url(#filter11_f_2003_1287)">
<path d="M573.093 323.631C535.731 374.463 364.281 398.991 315.774 363.339C267.268 327.687 316.986 216.626 354.347 165.794C372.862 140.604 383.701 44.613 429.853 32.4392C476.834 20.0468 501.452 64.2724 525.921 82.2571C574.428 117.909 610.454 272.799 573.093 323.631Z" fill="#00A3FF"/>
</g>
<g filter="url(#filter12_f_2003_1287)">
<path d="M573.093 323.631C535.731 374.463 364.281 398.991 315.774 363.339C267.268 327.687 316.986 216.626 354.347 165.794C372.862 140.604 383.701 44.613 429.853 32.4392C476.834 20.0468 501.452 64.2724 525.921 82.2571C574.428 117.909 610.454 272.799 573.093 323.631Z" fill="#00A3FF"/>
</g>
<g filter="url(#filter13_f_2003_1287)">
<path d="M573.093 323.631C535.731 374.463 364.281 398.991 315.774 363.339C267.268 327.687 316.986 216.626 354.347 165.794C372.862 140.604 383.701 44.613 429.853 32.4392C476.834 20.0468 501.452 64.2724 525.921 82.2571C574.428 117.909 610.454 272.799 573.093 323.631Z" fill="#00A3FF"/>
</g>
<g filter="url(#filter14_f_2003_1287)">
<path d="M573.093 323.631C535.731 374.463 367.935 407.527 319.428 371.875C270.921 336.223 316.986 216.626 354.347 165.794C372.862 140.604 383.701 44.613 429.853 32.4392C476.834 20.0468 501.452 64.2724 525.921 82.2571C574.428 117.909 610.454 272.799 573.093 323.631Z" fill="#00A3FF"/>
</g>
<g filter="url(#filter15_f_2003_1287)">
<path d="M588.141 353.079C555.449 397.557 463.385 388.867 414.878 353.215C366.371 317.562 331.014 255.78 363.705 211.302C379.905 189.261 393.276 145.856 436.678 137.423C480.86 128.839 526.639 177.975 551.109 195.96C599.615 231.612 620.832 308.601 588.141 353.079Z" fill="#00A3FF"/>
</g>
</g>
</g>
</g>
<mask id="mask5_2003_1287" style="mask-type:alpha" maskUnits="userSpaceOnUse" x="244" y="70" width="513" height="411">
<path d="M244.57 185.771L376.317 70.8255L756.194 284.394L543.523 480.082L244.57 185.771Z" fill="url(#paint5_linear_2003_1287)"/>
</mask>
<g mask="url(#mask5_2003_1287)">
<g opacity="0.58">
<mask id="mask6_2003_1287" style="mask-type:alpha" maskUnits="userSpaceOnUse" x="113" y="12" width="729" height="657">
<path d="M113.164 164.14L395.165 12.7879L841.048 412.01L630.326 668.74L113.164 164.14Z" fill="url(#paint6_linear_2003_1287)"/>
</mask>
<g mask="url(#mask6_2003_1287)">
<path d="M607.132 368.074C573.31 275.913 490.782 216.955 435.471 186.629L399.937 173.844L369.601 166.551L311.427 204.606L363.824 304.481L521.46 433.373L591.972 439.283C601.774 439.489 618.529 425.536 607.132 368.074Z" fill="#00A3FF"/>
<g filter="url(#filter16_f_2003_1287)">
<path d="M613.432 365.677C585.578 299.813 560.759 287.009 517.766 263.675L482.232 250.89L451.896 243.597L393.722 281.651L357.662 303.607L515.297 432.499L585.81 438.41C595.612 438.616 624.83 423.139 613.432 365.677Z" fill="#00A3FF"/>
</g>
<g filter="url(#filter17_f_2003_1287)">
<path d="M628.453 380.102C564.195 264.666 453.402 207.511 410.408 184.177L389.75 172.19L366.956 163.034L308.782 201.089L361.179 300.964L518.815 429.856L591.275 408.78C601.077 408.986 639.851 437.565 628.453 380.102Z" fill="#00A3FF"/>
</g>
<g filter="url(#filter18_f_2003_1287)">
<path d="M629.395 385.931C538.539 253.897 442.552 193.06 399.558 169.725L378.9 157.738L356.106 148.583L265.296 172.021L384.879 316.313L543.874 510.393L622.896 488.105C632.698 488.311 640.793 443.393 629.395 385.931Z" fill="#00A3FF"/>
</g>
</g>
</g>
</g>
</g>
<defs>
<filter id="filter0_f_2003_1287" x="-316.813" y="166.348" width="1128.62" height="1055.63" filterUnits="userSpaceOnUse" color-interpolation-filters="sRGB">
<feFlood flood-opacity="0" result="BackgroundImageFix"/>
<feBlend mode="normal" in="SourceGraphic" in2="BackgroundImageFix" result="shape"/>
<feGaussianBlur stdDeviation="91.9069" result="effect1_foregroundBlur_2003_1287"/>
</filter>
<filter id="filter1_f_2003_1287" x="6.01524" y="415.284" width="481.683" height="531.848" filterUnits="userSpaceOnUse" color-interpolation-filters="sRGB">
<feFlood flood-opacity="0" result="BackgroundImageFix"/>
<feBlend mode="normal" in="SourceGraphic" in2="BackgroundImageFix" result="shape"/>
<feGaussianBlur stdDeviation="3.04562" result="effect1_foregroundBlur_2003_1287"/>
</filter>
<filter id="filter2_f_2003_1287" x="-12.6452" y="389.144" width="581.972" height="648.975" filterUnits="userSpaceOnUse" color-interpolation-filters="sRGB">
<feFlood flood-opacity="0" result="BackgroundImageFix"/>
<feBlend mode="normal" in="SourceGraphic" in2="BackgroundImageFix" result="shape"/>
<feGaussianBlur stdDeviation="10.6597" result="effect1_foregroundBlur_2003_1287"/>
</filter>
<filter id="filter3_f_2003_1287" x="-24.3167" y="300.686" width="812.81" height="850.84" filterUnits="userSpaceOnUse" color-interpolation-filters="sRGB">
<feFlood flood-opacity="0" result="BackgroundImageFix"/>
<feBlend mode="normal" in="SourceGraphic" in2="BackgroundImageFix" result="shape"/>
<feGaussianBlur stdDeviation="15.2281" result="effect1_foregroundBlur_2003_1287"/>
</filter>
<filter id="filter4_f_2003_1287" x="-35.8568" y="212.168" width="929.921" height="925.327" filterUnits="userSpaceOnUse" color-interpolation-filters="sRGB">
<feFlood flood-opacity="0" result="BackgroundImageFix"/>
<feBlend mode="normal" in="SourceGraphic" in2="BackgroundImageFix" result="shape"/>
<feGaussianBlur stdDeviation="41.1158" result="effect1_foregroundBlur_2003_1287"/>
</filter>
<filter id="filter5_f_2003_1287" x="-70.752" y="79.8859" width="1106.13" height="1159.17" filterUnits="userSpaceOnUse" color-interpolation-filters="sRGB">
<feFlood flood-opacity="0" result="BackgroundImageFix"/>
<feBlend mode="normal" in="SourceGraphic" in2="BackgroundImageFix" result="shape"/>
<feGaussianBlur stdDeviation="102.028" result="effect1_foregroundBlur_2003_1287"/>
</filter>
<filter id="filter6_f_2003_1287" x="-145.924" y="268.773" width="867.963" height="919.495" filterUnits="userSpaceOnUse" color-interpolation-filters="sRGB">
<feFlood flood-opacity="0" result="BackgroundImageFix"/>
<feBlend mode="normal" in="SourceGraphic" in2="BackgroundImageFix" result="shape"/>
<feGaussianBlur stdDeviation="47.2071" result="effect1_foregroundBlur_2003_1287"/>
</filter>
<filter id="filter7_f_2003_1287" x="398.417" y="153.739" width="220.985" height="222.628" filterUnits="userSpaceOnUse" color-interpolation-filters="sRGB">
<feFlood flood-opacity="0" result="BackgroundImageFix"/>
<feBlend mode="normal" in="SourceGraphic" in2="BackgroundImageFix" result="shape"/>
<feGaussianBlur stdDeviation="0.539959" result="effect1_foregroundBlur_2003_1287"/>
</filter>
<filter id="filter8_f_2003_1287" x="393.141" y="142.036" width="228.944" height="237.804" filterUnits="userSpaceOnUse" color-interpolation-filters="sRGB">
<feFlood flood-opacity="0" result="BackgroundImageFix"/>
<feBlend mode="normal" in="SourceGraphic" in2="BackgroundImageFix" result="shape"/>
<feGaussianBlur stdDeviation="1.88986" result="effect1_foregroundBlur_2003_1287"/>
</filter>
<filter id="filter9_f_2003_1287" x="347.932" y="102.548" width="258.164" height="274.755" filterUnits="userSpaceOnUse" color-interpolation-filters="sRGB">
<feFlood flood-opacity="0" result="BackgroundImageFix"/>
<feBlend mode="normal" in="SourceGraphic" in2="BackgroundImageFix" result="shape"/>
<feGaussianBlur stdDeviation="2.69979" result="effect1_foregroundBlur_2003_1287"/>
</filter>
<filter id="filter10_f_2003_1287" x="328.188" y="50.779" width="302.094" height="355.757" filterUnits="userSpaceOnUse" color-interpolation-filters="sRGB">
<feFlood flood-opacity="0" result="BackgroundImageFix"/>
<feBlend mode="normal" in="SourceGraphic" in2="BackgroundImageFix" result="shape"/>
<feGaussianBlur stdDeviation="7.28944" result="effect1_foregroundBlur_2003_1287"/>
</filter>
<filter id="filter11_f_2003_1287" x="254.732" y="-10.6376" width="374.753" height="431.749" filterUnits="userSpaceOnUse" color-interpolation-filters="sRGB">
<feFlood flood-opacity="0" result="BackgroundImageFix"/>
<feBlend mode="normal" in="SourceGraphic" in2="BackgroundImageFix" result="shape"/>
<feGaussianBlur stdDeviation="20.4592" result="effect1_foregroundBlur_2003_1287"/>
</filter>
<filter id="filter12_f_2003_1287" x="254.732" y="-10.6376" width="374.753" height="431.749" filterUnits="userSpaceOnUse" color-interpolation-filters="sRGB">
<feFlood flood-opacity="0" result="BackgroundImageFix"/>
<feBlend mode="normal" in="SourceGraphic" in2="BackgroundImageFix" result="shape"/>
<feGaussianBlur stdDeviation="20.4592" result="effect1_foregroundBlur_2003_1287"/>
</filter>
<filter id="filter13_f_2003_1287" x="254.732" y="-10.6376" width="374.753" height="431.749" filterUnits="userSpaceOnUse" color-interpolation-filters="sRGB">
<feFlood flood-opacity="0" result="BackgroundImageFix"/>
<feBlend mode="normal" in="SourceGraphic" in2="BackgroundImageFix" result="shape"/>
<feGaussianBlur stdDeviation="20.4592" result="effect1_foregroundBlur_2003_1287"/>
</filter>
<filter id="filter14_f_2003_1287" x="257.586" y="-10.6376" width="371.899" height="438.354" filterUnits="userSpaceOnUse" color-interpolation-filters="sRGB">
<feFlood flood-opacity="0" result="BackgroundImageFix"/>
<feBlend mode="normal" in="SourceGraphic" in2="BackgroundImageFix" result="shape"/>
<feGaussianBlur stdDeviation="20.4592" result="effect1_foregroundBlur_2003_1287"/>
</filter>
<filter id="filter15_f_2003_1287" x="334.288" y="119.687" width="286.3" height="280.333" filterUnits="userSpaceOnUse" color-interpolation-filters="sRGB">
<feFlood flood-opacity="0" result="BackgroundImageFix"/>
<feBlend mode="normal" in="SourceGraphic" in2="BackgroundImageFix" result="shape"/>
<feGaussianBlur stdDeviation="8.36936" result="effect1_foregroundBlur_2003_1287"/>
</filter>
<filter id="filter16_f_2003_1287" x="339.481" y="225.416" width="294.729" height="231.177" filterUnits="userSpaceOnUse" color-interpolation-filters="sRGB">
<feFlood flood-opacity="0" result="BackgroundImageFix"/>
<feBlend mode="normal" in="SourceGraphic" in2="BackgroundImageFix" result="shape"/>
<feGaussianBlur stdDeviation="9.09034" result="effect1_foregroundBlur_2003_1287"/>
</filter>
<filter id="filter17_f_2003_1287" x="290.601" y="144.854" width="358.109" height="303.183" filterUnits="userSpaceOnUse" color-interpolation-filters="sRGB">
<feFlood flood-opacity="0" result="BackgroundImageFix"/>
<feBlend mode="normal" in="SourceGraphic" in2="BackgroundImageFix" result="shape"/>
<feGaussianBlur stdDeviation="9.09034" result="effect1_foregroundBlur_2003_1287"/>
</filter>
<filter id="filter18_f_2003_1287" x="213.663" y="96.9499" width="472.933" height="465.076" filterUnits="userSpaceOnUse" color-interpolation-filters="sRGB">
<feFlood flood-opacity="0" result="BackgroundImageFix"/>
<feBlend mode="normal" in="SourceGraphic" in2="BackgroundImageFix" result="shape"/>
<feGaussianBlur stdDeviation="25.8166" result="effect1_foregroundBlur_2003_1287"/>
</filter>
<linearGradient id="paint0_linear_2003_1287" x1="713.109" y1="340.1" x2="13.6393" y2="1145.58" gradientUnits="userSpaceOnUse">
<stop stop-color="#C4C4C4" stop-opacity="0"/>
<stop offset="0.261523" stop-color="#C4C4C4"/>
<stop offset="0.554366" stop-color="#C4C4C4"/>
<stop offset="1" stop-color="#C4C4C4" stop-opacity="0"/>
</linearGradient>
<linearGradient id="paint1_linear_2003_1287" x1="75.029" y1="566.673" x2="386.963" y2="868.096" gradientUnits="userSpaceOnUse">
<stop stop-color="#C4C4C4"/>
<stop offset="1" stop-color="#C4C4C4" stop-opacity="0"/>
</linearGradient>
<linearGradient id="paint2_linear_2003_1287" x1="80.4178" y1="1024.24" x2="641.981" y2="468.994" gradientUnits="userSpaceOnUse">
<stop offset="0.5625" stop-color="#491CFF"/>
<stop offset="1" stop-color="#0038FF"/>
</linearGradient>
<linearGradient id="paint3_linear_2003_1287" x1="556.944" y1="76.0614" x2="310.575" y2="383.659" gradientUnits="userSpaceOnUse">
<stop stop-color="#C4C4C4" stop-opacity="0"/>
<stop offset="0.430547" stop-color="#C4C4C4"/>
<stop offset="0.498519" stop-color="#C4C4C4"/>
<stop offset="1" stop-color="#C4C4C4" stop-opacity="0"/>
</linearGradient>
<linearGradient id="paint4_linear_2003_1287" x1="656.277" y1="370.844" x2="354.483" y2="197.942" gradientUnits="userSpaceOnUse">
<stop stop-color="#C4C4C4"/>
<stop offset="1" stop-color="#C4C4C4" stop-opacity="0"/>
</linearGradient>
<linearGradient id="paint5_linear_2003_1287" x1="595.036" y1="397.725" x2="351.259" y2="210.14" gradientUnits="userSpaceOnUse">
<stop stop-color="#C4C4C4" stop-opacity="0"/>
<stop offset="0.11282" stop-color="#C4C4C4"/>
<stop offset="0.284305" stop-color="#C4C4C4"/>
<stop offset="1" stop-color="#C4C4C4" stop-opacity="0"/>
</linearGradient>
<linearGradient id="paint6_linear_2003_1287" x1="538.872" y1="243.866" x2="479.356" y2="300.339" gradientUnits="userSpaceOnUse">
<stop offset="0.155373" stop-color="#C4C4C4"/>
<stop offset="1" stop-color="#C4C4C4" stop-opacity="0"/>
</linearGradient>
</defs>
</svg>
