<svg width="388" height="1240" viewBox="0 0 388 1240" fill="none" xmlns="http://www.w3.org/2000/svg">
<g opacity="0.3">
<mask id="mask0_2003_3888" style="mask-type:alpha" maskUnits="userSpaceOnUse" x="188" y="30" width="938" height="1047">
<path d="M508.348 86.3573C602.661 105.423 833.081 21.5998 944.539 31.3751L1125.88 333.258C797.828 441.181 1108.31 217.398 619.123 503.181C487.687 579.966 493.259 844.037 542.691 1076.11L280.164 828.165C220.19 671.276 185.892 438.491 188.409 397.678C191.555 346.662 414.036 67.2916 508.348 86.3573Z" fill="#C4C4C4"/>
</mask>
<g mask="url(#mask0_2003_3888)">
<g opacity="0.4" filter="url(#filter0_f_2003_3888)">
<ellipse cx="302.499" cy="694.164" rx="438.5" ry="266" transform="rotate(-38.7295 302.499 694.164)" fill="#00D1FF"/>
</g>
<mask id="mask1_2003_3888" style="mask-type:alpha" maskUnits="userSpaceOnUse" x="-490" y="-195" width="1762" height="1693">
<path d="M698.739 -194.696L1271.27 293.097L181.864 1497.91L-489.093 958.099L698.739 -194.696Z" fill="url(#paint0_linear_2003_3888)"/>
</mask>
<g mask="url(#mask1_2003_3888)">
<mask id="mask2_2003_3888" style="mask-type:alpha" maskUnits="userSpaceOnUse" x="-341" y="-57" width="1394" height="1388">
<path d="M89.6295 1330.86C-94.9694 1143.32 -330.404 904.025 -340.63 895.706L622.049 -56.139L1052.31 379.018L89.6295 1330.86Z" fill="url(#paint1_linear_2003_3888)"/>
</mask>
<g mask="url(#mask2_2003_3888)">
<path d="M183.141 528.883C291.719 421.527 449.271 398.283 508.678 458.366C568.084 518.449 602.092 640.754 485.597 755.938C427.869 813.017 397.487 922.485 299.317 960.38C199.384 998.955 134.237 901.313 104.269 871.004C44.8625 810.921 74.5633 636.239 183.141 528.883Z" fill="#00D1FF"/>
<g filter="url(#filter1_f_2003_3888)">
<path d="M186.926 535.317C303.373 420.181 443.669 395.387 494.733 447.032C545.797 498.677 568.875 609.892 452.428 725.028C394.723 782.084 360.121 887.227 266.133 929.296C170.458 972.12 116.682 885.992 90.9228 859.939C39.859 808.294 70.4793 650.453 186.926 535.317Z" fill="#00D1FF"/>
</g>
<g filter="url(#filter2_f_2003_3888)">
<path d="M190.45 531.828C320.964 402.782 484.592 381.449 547.548 445.121C610.503 508.793 643.879 641.039 513.364 770.085C448.688 834.033 419.745 961.829 311.554 1006.1C201.419 1051.16 128.017 941.348 96.2591 909.229C33.3036 845.557 59.9356 660.873 190.45 531.828Z" fill="#00D1FF"/>
</g>
<g filter="url(#filter3_f_2003_3888)">
<path d="M212.972 524.475C389.553 380.768 1107.46 240.568 678.362 405.898C249.261 571.228 515.302 632.736 358.776 787.501C281.21 864.194 496.41 1053.11 367.563 1107.12C236.402 1162.1 157.241 1039.37 120.072 1001.78C46.3909 927.26 8.41322 690.95 212.972 524.475Z" fill="#7785FF"/>
</g>
<g filter="url(#filter4_f_2003_3888)">
<path d="M297.083 500.956C465.62 334.315 1097.82 214.132 777.682 359.726C457.544 505.32 839.536 598.42 670.999 765.061C587.48 847.639 513.566 975.711 378.465 1037.54C240.937 1100.48 165.653 978.398 129.313 941.644C57.2748 868.786 128.545 667.596 297.083 500.956Z" fill="#7785FF"/>
</g>
<g filter="url(#filter5_f_2003_3888)">
<path d="M391.434 465.18C565.602 292.972 812.638 242.921 886.319 317.441C165.376 533.52 948.649 562.501 774.481 734.709C688.173 820.046 611.497 952.101 472.264 1016.38C330.529 1081.81 253.772 956.709 216.603 919.117C142.922 844.597 217.266 637.388 391.434 465.18Z" fill="#7785FF"/>
</g>
<g filter="url(#filter6_f_2003_3888)">
<path d="M177.78 567.358C330.177 416.676 746.161 308.309 674.372 392.749C602.582 477.189 561.2 659.03 408.803 809.711C333.283 884.382 405.844 1029.33 279.428 1080.93C150.741 1133.46 71.0173 1011.29 33.8487 973.703C-39.8325 899.183 25.3829 718.04 177.78 567.358Z" fill="url(#paint2_linear_2003_3888)"/>
</g>
</g>
</g>
<mask id="mask3_2003_3888" style="mask-type:alpha" maskUnits="userSpaceOnUse" x="228" y="-65" width="694" height="649">
<path d="M921.911 226.764L477.273 -64.8251L228.984 361.147C313.864 435.628 484.418 584.296 487.588 583.121C490.758 581.946 778.457 345.06 921.911 226.764Z" fill="url(#paint3_linear_2003_3888)"/>
</mask>
<g mask="url(#mask3_2003_3888)">
<mask id="mask4_2003_3888" style="mask-type:alpha" maskUnits="userSpaceOnUse" x="262" y="0" width="581" height="613">
<path d="M558.896 0.734619C680.571 90.4371 835.772 204.89 842.15 208.924L545.522 612.505L262.268 404.315L558.896 0.734619Z" fill="url(#paint4_linear_2003_3888)"/>
</mask>
<g mask="url(#mask4_2003_3888)">
<path d="M656.189 348.238C661.461 377.009 555.844 388.456 514.641 358.173C473.439 327.889 431.328 271.875 463.028 228.745C478.737 207.372 465.358 157.569 504.539 147.257C544.425 136.759 599.785 186.501 620.569 201.778C661.772 232.061 694.733 339.244 656.189 348.238Z" fill="#00A3FF"/>
<path d="M636.826 340.358C592.609 380.295 512.951 381.747 466.908 347.905C420.864 314.064 388.632 253.609 422.209 207.925C438.848 185.287 410.055 119.301 452.752 109.258C496.216 99.0335 554.439 151.415 577.666 168.487C623.709 202.329 688.048 294.094 636.826 340.358Z" fill="#00A3FF"/>
<g filter="url(#filter9_f_2003_3888)">
<path d="M617.359 364.786C574.124 382.114 462.715 410.178 415.289 375.321C367.864 340.464 427.823 194.638 463.977 145.449C481.892 121.073 485.546 78.1739 530.448 66.5718C576.157 54.7614 611.051 131.395 643.665 195.045C686.974 279.568 678.292 359.97 617.359 364.786Z" fill="#00A3FF"/>
</g>
<g filter="url(#filter10_f_2003_3888)">
<path d="M628.093 323.63C590.731 374.462 419.281 398.99 370.774 363.338C322.268 327.686 371.986 216.625 409.347 165.793C427.862 140.603 438.701 44.612 484.853 32.4383C531.834 20.0458 556.452 64.2714 580.921 82.2561C629.428 117.908 665.454 272.798 628.093 323.63Z" fill="#00A3FF"/>
</g>
<g filter="url(#filter11_f_2003_3888)">
<path d="M628.093 323.63C590.731 374.462 419.281 398.99 370.774 363.338C322.268 327.686 371.986 216.625 409.347 165.793C427.862 140.603 438.701 44.612 484.853 32.4383C531.834 20.0458 556.452 64.2714 580.921 82.2561C629.428 117.908 665.454 272.798 628.093 323.63Z" fill="#00A3FF"/>
</g>
<g filter="url(#filter12_f_2003_3888)">
<path d="M628.093 323.63C590.731 374.462 419.281 398.99 370.774 363.338C322.268 327.686 371.986 216.625 409.347 165.793C427.862 140.603 438.701 44.612 484.853 32.4383C531.834 20.0458 556.452 64.2714 580.921 82.2561C629.428 117.908 665.454 272.798 628.093 323.63Z" fill="#00A3FF"/>
</g>
<g filter="url(#filter13_f_2003_3888)">
<path d="M628.093 323.63C590.731 374.462 422.935 407.526 374.428 371.874C325.921 336.222 371.986 216.625 409.347 165.793C427.862 140.603 438.701 44.612 484.853 32.4383C531.834 20.0458 556.452 64.2714 580.921 82.2561C629.428 117.908 665.454 272.798 628.093 323.63Z" fill="#00A3FF"/>
</g>
<path d="M643.141 353.078C610.449 397.556 518.385 388.866 469.878 353.214C421.371 317.562 386.014 255.779 418.705 211.301C434.905 189.26 448.276 145.855 491.678 137.422C535.86 128.838 581.639 177.974 606.109 195.959C654.615 231.611 675.832 308.6 643.141 353.078Z" fill="#00A3FF"/>
</g>
</g>
</g>
<mask id="mask5_2003_3888" style="mask-type:alpha" maskUnits="userSpaceOnUse" x="299" y="70" width="513" height="411">
<path d="M299.569 185.771L431.317 70.8255L811.194 284.394L598.522 480.082L299.569 185.771Z" fill="url(#paint5_linear_2003_3888)"/>
</mask>
<g mask="url(#mask5_2003_3888)">
<g opacity="0.58">
<mask id="mask6_2003_3888" style="mask-type:alpha" maskUnits="userSpaceOnUse" x="168" y="12" width="729" height="657">
<path d="M168.163 164.14L450.165 12.7881L896.048 412.01L685.325 668.74L168.163 164.14Z" fill="url(#paint6_linear_2003_3888)"/>
</mask>
<g mask="url(#mask6_2003_3888)">
<path d="M662.131 368.074C628.31 275.913 545.782 216.956 490.471 186.629L454.937 173.844L424.601 166.551L366.427 204.606L418.824 304.481L576.459 433.373L646.972 439.284C656.774 439.49 673.529 425.536 662.131 368.074Z" fill="#00A3FF"/>
<path d="M668.432 365.677C640.578 299.813 615.759 287.009 572.765 263.675L537.232 250.89L506.896 243.597L448.721 281.652L412.661 303.608L570.297 432.5L640.809 438.41C650.612 438.616 679.83 423.139 668.432 365.677Z" fill="#00A3FF"/>
<g filter="url(#filter16_f_2003_3888)">
<path d="M683.453 380.102C619.195 264.666 508.402 207.511 465.408 184.177L444.75 172.19L421.956 163.034L363.782 201.089L416.179 300.964L573.815 429.856L646.275 408.78C656.077 408.986 694.85 437.565 683.453 380.102Z" fill="#00A3FF"/>
</g>
<g filter="url(#filter17_f_2003_3888)">
<path d="M684.395 385.931C593.539 253.897 497.552 193.06 454.558 169.726L433.899 157.739L411.106 148.583L320.295 172.021L439.878 316.314L598.874 510.393L677.895 488.105C687.698 488.311 695.793 443.394 684.395 385.931Z" fill="#00A3FF"/>
</g>
</g>
</g>
</g>
</g>
<defs>
<filter id="filter0_f_2003_3888" x="-261.813" y="166.347" width="1128.62" height="1055.63" filterUnits="userSpaceOnUse" color-interpolation-filters="sRGB">
<feFlood flood-opacity="0" result="BackgroundImageFix"/>
<feBlend mode="normal" in="SourceGraphic" in2="BackgroundImageFix" result="shape"/>
<feGaussianBlur stdDeviation="91.9069" result="effect1_foregroundBlur_2003_3888"/>
</filter>
<filter id="filter1_f_2003_3888" x="61.0152" y="415.283" width="481.683" height="531.848" filterUnits="userSpaceOnUse" color-interpolation-filters="sRGB">
<feFlood flood-opacity="0" result="BackgroundImageFix"/>
<feBlend mode="normal" in="SourceGraphic" in2="BackgroundImageFix" result="shape"/>
<feGaussianBlur stdDeviation="3.04562" result="effect1_foregroundBlur_2003_3888"/>
</filter>
<filter id="filter2_f_2003_3888" x="42.3547" y="389.143" width="581.972" height="648.975" filterUnits="userSpaceOnUse" color-interpolation-filters="sRGB">
<feFlood flood-opacity="0" result="BackgroundImageFix"/>
<feBlend mode="normal" in="SourceGraphic" in2="BackgroundImageFix" result="shape"/>
<feGaussianBlur stdDeviation="10.6597" result="effect1_foregroundBlur_2003_3888"/>
</filter>
<filter id="filter3_f_2003_3888" x="30.6832" y="300.685" width="812.81" height="850.84" filterUnits="userSpaceOnUse" color-interpolation-filters="sRGB">
<feFlood flood-opacity="0" result="BackgroundImageFix"/>
<feBlend mode="normal" in="SourceGraphic" in2="BackgroundImageFix" result="shape"/>
<feGaussianBlur stdDeviation="15.2281" result="effect1_foregroundBlur_2003_3888"/>
</filter>
<filter id="filter4_f_2003_3888" x="19.1432" y="212.168" width="929.921" height="925.327" filterUnits="userSpaceOnUse" color-interpolation-filters="sRGB">
<feFlood flood-opacity="0" result="BackgroundImageFix"/>
<feBlend mode="normal" in="SourceGraphic" in2="BackgroundImageFix" result="shape"/>
<feGaussianBlur stdDeviation="41.1158" result="effect1_foregroundBlur_2003_3888"/>
</filter>
<filter id="filter5_f_2003_3888" x="-15.7521" y="79.8855" width="1106.13" height="1159.17" filterUnits="userSpaceOnUse" color-interpolation-filters="sRGB">
<feFlood flood-opacity="0" result="BackgroundImageFix"/>
<feBlend mode="normal" in="SourceGraphic" in2="BackgroundImageFix" result="shape"/>
<feGaussianBlur stdDeviation="102.028" result="effect1_foregroundBlur_2003_3888"/>
</filter>
<filter id="filter6_f_2003_3888" x="-90.9244" y="268.773" width="867.963" height="919.495" filterUnits="userSpaceOnUse" color-interpolation-filters="sRGB">
<feFlood flood-opacity="0" result="BackgroundImageFix"/>
<feBlend mode="normal" in="SourceGraphic" in2="BackgroundImageFix" result="shape"/>
<feGaussianBlur stdDeviation="47.2071" result="effect1_foregroundBlur_2003_3888"/>
</filter>
<filter id="filter9_f_2003_3888" x="383.188" y="50.7781" width="302.094" height="355.757" filterUnits="userSpaceOnUse" color-interpolation-filters="sRGB">
<feFlood flood-opacity="0" result="BackgroundImageFix"/>
<feBlend mode="normal" in="SourceGraphic" in2="BackgroundImageFix" result="shape"/>
<feGaussianBlur stdDeviation="7.28944" result="effect1_foregroundBlur_2003_3888"/>
</filter>
<filter id="filter10_f_2003_3888" x="309.732" y="-10.6385" width="374.753" height="431.75" filterUnits="userSpaceOnUse" color-interpolation-filters="sRGB">
<feFlood flood-opacity="0" result="BackgroundImageFix"/>
<feBlend mode="normal" in="SourceGraphic" in2="BackgroundImageFix" result="shape"/>
<feGaussianBlur stdDeviation="20.4592" result="effect1_foregroundBlur_2003_3888"/>
</filter>
<filter id="filter11_f_2003_3888" x="309.732" y="-10.6385" width="374.753" height="431.75" filterUnits="userSpaceOnUse" color-interpolation-filters="sRGB">
<feFlood flood-opacity="0" result="BackgroundImageFix"/>
<feBlend mode="normal" in="SourceGraphic" in2="BackgroundImageFix" result="shape"/>
<feGaussianBlur stdDeviation="20.4592" result="effect1_foregroundBlur_2003_3888"/>
</filter>
<filter id="filter12_f_2003_3888" x="309.732" y="-10.6385" width="374.753" height="431.75" filterUnits="userSpaceOnUse" color-interpolation-filters="sRGB">
<feFlood flood-opacity="0" result="BackgroundImageFix"/>
<feBlend mode="normal" in="SourceGraphic" in2="BackgroundImageFix" result="shape"/>
<feGaussianBlur stdDeviation="20.4592" result="effect1_foregroundBlur_2003_3888"/>
</filter>
<filter id="filter13_f_2003_3888" x="312.586" y="-10.6385" width="371.899" height="438.354" filterUnits="userSpaceOnUse" color-interpolation-filters="sRGB">
<feFlood flood-opacity="0" result="BackgroundImageFix"/>
<feBlend mode="normal" in="SourceGraphic" in2="BackgroundImageFix" result="shape"/>
<feGaussianBlur stdDeviation="20.4592" result="effect1_foregroundBlur_2003_3888"/>
</filter>
<filter id="filter16_f_2003_3888" x="345.601" y="144.854" width="358.109" height="303.183" filterUnits="userSpaceOnUse" color-interpolation-filters="sRGB">
<feFlood flood-opacity="0" result="BackgroundImageFix"/>
<feBlend mode="normal" in="SourceGraphic" in2="BackgroundImageFix" result="shape"/>
<feGaussianBlur stdDeviation="9.09034" result="effect1_foregroundBlur_2003_3888"/>
</filter>
<filter id="filter17_f_2003_3888" x="268.662" y="96.9501" width="472.933" height="465.077" filterUnits="userSpaceOnUse" color-interpolation-filters="sRGB">
<feFlood flood-opacity="0" result="BackgroundImageFix"/>
<feBlend mode="normal" in="SourceGraphic" in2="BackgroundImageFix" result="shape"/>
<feGaussianBlur stdDeviation="25.8166" result="effect1_foregroundBlur_2003_3888"/>
</filter>
<linearGradient id="paint0_linear_2003_3888" x1="768.109" y1="340.099" x2="68.6393" y2="1145.58" gradientUnits="userSpaceOnUse">
<stop stop-color="#C4C4C4" stop-opacity="0"/>
<stop offset="0.261523" stop-color="#C4C4C4"/>
<stop offset="0.554366" stop-color="#C4C4C4"/>
<stop offset="1" stop-color="#C4C4C4" stop-opacity="0"/>
</linearGradient>
<linearGradient id="paint1_linear_2003_3888" x1="130.029" y1="566.672" x2="441.963" y2="868.096" gradientUnits="userSpaceOnUse">
<stop stop-color="#C4C4C4"/>
<stop offset="1" stop-color="#C4C4C4" stop-opacity="0"/>
</linearGradient>
<linearGradient id="paint2_linear_2003_3888" x1="135.418" y1="1024.24" x2="696.981" y2="468.994" gradientUnits="userSpaceOnUse">
<stop offset="0.5625" stop-color="#491CFF"/>
<stop offset="1" stop-color="#0038FF"/>
</linearGradient>
<linearGradient id="paint3_linear_2003_3888" x1="611.944" y1="76.0609" x2="365.574" y2="383.658" gradientUnits="userSpaceOnUse">
<stop stop-color="#C4C4C4" stop-opacity="0"/>
<stop offset="0.430547" stop-color="#C4C4C4"/>
<stop offset="0.498519" stop-color="#C4C4C4"/>
<stop offset="1" stop-color="#C4C4C4" stop-opacity="0"/>
</linearGradient>
<linearGradient id="paint4_linear_2003_3888" x1="711.277" y1="370.843" x2="409.483" y2="197.941" gradientUnits="userSpaceOnUse">
<stop stop-color="#C4C4C4"/>
<stop offset="1" stop-color="#C4C4C4" stop-opacity="0"/>
</linearGradient>
<linearGradient id="paint5_linear_2003_3888" x1="650.036" y1="397.725" x2="406.259" y2="210.14" gradientUnits="userSpaceOnUse">
<stop stop-color="#C4C4C4" stop-opacity="0"/>
<stop offset="0.11282" stop-color="#C4C4C4"/>
<stop offset="0.284305" stop-color="#C4C4C4"/>
<stop offset="1" stop-color="#C4C4C4" stop-opacity="0"/>
</linearGradient>
<linearGradient id="paint6_linear_2003_3888" x1="593.872" y1="243.867" x2="534.356" y2="300.339" gradientUnits="userSpaceOnUse">
<stop offset="0.155373" stop-color="#C4C4C4"/>
<stop offset="1" stop-color="#C4C4C4" stop-opacity="0"/>
</linearGradient>
</defs>
</svg>
