<svg width="81" height="81" viewBox="0 0 81 81" fill="none" xmlns="http://www.w3.org/2000/svg">
<g clip-path="url(#clip0_2003_4280)">
<path d="M3.73106 57.5026C1.33634 52.3325 0 46.5723 0 40.5C0 18.1325 18.1325 0 40.5 0C62.8675 0 81 18.1325 81 40.5C81 62.8675 62.8675 81 40.5 81C29.924 81 20.2946 76.946 13.0813 70.3075L3.73106 57.5026Z" fill="#7584F2"/>
<path d="M40.5002 81.0004C62.8678 81.0004 81.0002 62.8679 81.0002 40.5004C81.0002 38.6588 80.8773 36.8459 80.6392 35.0694L62.5341 16.9644L18.4663 39.5512L30.3222 51.4071L13.0815 70.3079C20.2948 76.9464 29.9242 81.0004 40.5002 81.0004Z" fill="#4832A5"/>
<path d="M58.089 46.6762L43.777 54.3197C42.6713 54.9102 41.4006 55.1167 40.1647 54.9066L32.6676 53.6319L44.1258 48.4954C45.1815 48.0222 45.7118 46.8303 45.3566 45.7292C44.9959 44.6112 43.8415 43.9536 42.6958 44.2136L20.9142 49.1576C19.7696 49.4174 18.6697 49.8444 17.6494 50.425L3.73132 57.5035C5.98667 62.3727 9.18079 66.7182 13.0814 70.3081L20.6545 63.5176C20.6545 63.5176 34.1831 63.8669 38.6744 64.2635C42.3012 64.5837 45.9344 63.7601 48.7982 61.512L60.8623 52.0165C61.9651 51.1507 62.3389 49.6462 61.7694 48.3649C61.1429 46.955 59.5658 46.2315 58.089 46.6762Z" fill="#FFDECF"/>
<path d="M44.1261 48.4956C45.1818 48.0222 45.7121 46.8304 45.3569 45.7293C44.9962 44.6112 43.8418 43.9535 42.696 44.2136L40.5578 44.6989V50.0951L44.1261 48.4956Z" fill="#FFCDBE"/>
<path d="M61.7704 48.3644C61.1441 46.9548 59.5667 46.2315 58.0898 46.6762L43.7772 54.32C42.7884 54.8481 41.6676 55.0681 40.5579 54.9587V64.3234C43.5383 64.2532 46.4315 63.3707 48.7988 61.5122L60.8633 52.0163C61.9662 51.1505 62.34 49.646 61.7704 48.3644Z" fill="#FFCDBE"/>
<path d="M18.4663 16.9644H62.5339V39.5512H18.4663V16.9644Z" fill="#2FDDD0"/>
<path d="M40.5001 16.9592H62.534V39.546H40.5001V16.9592Z" fill="#11BFAE"/>
<path d="M40.5005 35.3C40.5005 35.3 32.5539 29.969 32.5539 25.6937C32.5539 23.393 34.419 21.5278 36.7197 21.5278C38.3949 21.5278 39.8388 22.5163 40.5005 23.9418L41.7329 28.4139L40.5005 35.3Z" fill="#ABF4F0"/>
<path d="M48.4467 25.6932C48.4467 23.3925 46.5816 21.5473 44.2809 21.5275C42.6526 21.5136 41.2459 22.4277 40.5001 23.9418V35.3C41.2697 34.7112 48.4467 29.756 48.4467 25.6932Z" fill="#2FDDD0"/>
<path d="M25.5535 31.7284C27.4703 31.7284 29.0241 30.1746 29.0241 28.2578C29.0241 26.341 27.4703 24.7871 25.5535 24.7871C23.6367 24.7871 22.0828 26.341 22.0828 28.2578C22.0828 30.1746 23.6367 31.7284 25.5535 31.7284Z" fill="#ABF4F0"/>
<path d="M55.4472 31.7284C57.364 31.7284 58.9178 30.1746 58.9178 28.2578C58.9178 26.341 57.364 24.7871 55.4472 24.7871C53.5304 24.7871 51.9765 26.341 51.9765 28.2578C51.9765 30.1746 53.5304 31.7284 55.4472 31.7284Z" fill="#2FDDD0"/>
</g>
<defs>
<clipPath id="clip0_2003_4280">
<rect width="81" height="81" fill="white"/>
</clipPath>
</defs>
</svg>
