<svg width="81" height="81" viewBox="0 0 81 81" fill="none" xmlns="http://www.w3.org/2000/svg">
<g clip-path="url(#clip0_2003_4466)">
<path d="M40.5002 3.47949C22.4897 3.47949 7.34984 15.7641 2.99878 32.4107L63.6243 73.348C73.1135 66.2828 79.2603 54.9794 79.2603 42.2396C79.2603 20.8329 61.9068 3.47949 40.5002 3.47949Z" fill="#7D62EE"/>
<path d="M35.3459 56.2976L10.3456 66.5898C11.4476 67.9529 12.6422 69.2377 13.9162 70.4392L17.3847 71.5571L17.8832 73.7147C23.4527 77.7243 30.1282 80.2939 37.3665 80.873C37.5133 80.8841 37.6576 80.8946 37.796 80.904L35.3459 56.2976Z" fill="#BBF0F9"/>
<path d="M63.6241 55.2892V51.6134C63.6241 49.9445 62.2586 48.5789 60.5896 48.5789H51.7078L32.6883 59.451C32.6883 59.451 30.568 64.7336 35.1559 66.5896C35.1559 66.5896 31.5728 75.0352 37.7974 80.9056C38.6905 80.9672 39.5915 80.9994 40.5 80.9994C41.8322 80.9994 43.1485 80.9316 44.4461 80.8004L50.6302 75.9077L56.8232 77.402C59.2347 76.2805 61.5127 74.9198 63.6241 73.3478V63.3326L60.5739 59.3109L63.6241 55.2892Z" fill="#E8F8FC"/>
<path d="M56.8239 74.1908C56.8239 73.1466 55.9695 72.2922 54.9253 72.2922H46.3358C45.2916 72.2922 44.4373 73.1466 44.4373 74.1908V80.6279C44.4373 80.6862 44.4409 80.7438 44.4461 80.8009C48.8292 80.3576 52.9958 79.1828 56.8239 77.4024V74.1908Z" fill="#FF6EAE"/>
<path d="M53.5828 55.2893H63.6247V63.3332H53.5828V55.2893Z" fill="#4A3279"/>
<path d="M19.6459 32.4106H2.99865C2.17821 35.5497 1.73999 38.8432 1.73999 42.2395C1.73999 51.4643 4.96464 59.9348 10.3456 66.5898H35.1561L37.829 49.5002L19.6459 32.4106Z" fill="#3ECD8D"/>
<path d="M50.6305 36.2778L43.8483 32.4106H19.6459C19.342 33.8248 19.0458 36.9125 21.9373 37.8698C21.9373 37.8698 20.9618 41.9128 24.8775 42.5923L25.5382 50.2052C25.5382 50.2052 29.8225 52.3895 29.8225 55.2892C29.8225 55.2892 29.5221 58.8149 32.6885 59.451C32.6885 59.451 30.5682 64.7336 35.1561 66.5896H43.8481L52.5575 62.1438L56.0478 54.39V44.6102L50.6305 36.2778Z" fill="#95DB76"/>
<path d="M21.9372 37.8708C17.0046 39.4355 13.4297 44.0498 13.4297 49.5002C13.4297 56.2379 18.8917 61.6999 25.6294 61.6999C28.2589 61.6999 30.692 60.8652 32.6841 59.4502L33.6797 47.7407L21.9372 37.8708Z" fill="#BAEE63"/>
<path d="M8.65181 47.7407H6.22043C5.25266 47.7407 4.46082 48.5326 4.46082 49.5003C4.46082 50.4681 5.25266 51.26 6.22043 51.26H8.65181C9.61958 51.26 10.4114 50.4681 10.4114 49.5003C10.4114 48.5326 9.61958 47.7407 8.65181 47.7407Z" fill="#BAEE63"/>
<path d="M24.8775 42.5922L25.5381 50.2051C25.5381 50.2051 29.8224 52.3894 29.8224 55.2891C29.8224 55.2891 29.5225 58.8112 32.6839 59.45C35.7962 57.2393 37.8288 53.6082 37.8288 49.5C37.8288 42.7623 32.3668 37.3003 25.6291 37.3003C24.3418 37.3003 23.1018 37.5011 21.937 37.8705C21.9317 37.8926 20.9726 41.9144 24.8775 42.5922Z" fill="#DBF9A0"/>
<path d="M53.0139 32.4106H43.8483C43.8483 39.1487 49.3105 44.6109 56.0485 44.6109V35.4453C56.0483 33.7763 54.6828 32.4106 53.0139 32.4106Z" fill="#BAEE63"/>
<path d="M56.0484 63.5562V54.3906C49.3104 54.3906 43.8481 59.8528 43.8481 66.5908H53.0137C54.6829 66.5907 56.0484 65.2252 56.0484 63.5562Z" fill="#BAEE63"/>
<path d="M22.2832 57.14C21.6773 56.8214 21.4442 56.072 21.7627 55.4659C22.0813 54.8598 22.8308 54.6272 23.4367 54.9455C24.3972 55.4505 24.7698 55.4736 25.9464 55.3532C27.1422 55.2309 27.7513 54.2725 27.8111 53.4338C27.8405 53.0207 27.7722 52.0262 26.5044 51.7099L23.9854 51.1111C21.923 50.5968 20.6451 48.8664 20.7924 46.8019C20.9278 44.9041 22.3745 42.8487 24.8775 42.5926C26.4261 42.4341 27.3124 42.4937 28.7934 43.2721C29.3993 43.5908 29.6324 44.3404 29.3138 44.9463C28.995 45.5524 28.2455 45.785 27.6396 45.4667C26.6791 44.9615 26.3063 44.9382 25.1299 45.0589C23.9341 45.1812 23.325 46.1397 23.2652 46.9785C23.2358 47.3914 23.304 48.3861 24.5719 48.7024L27.0909 49.3012C29.1533 49.8157 30.4312 51.5459 30.2839 53.6104C30.1486 55.5083 28.7018 57.5636 26.1988 57.8199C24.6201 57.9812 23.7438 57.9078 22.2832 57.14Z" fill="#00B7A0"/>
<path d="M25.5383 59.0985C24.8537 59.0985 24.2987 58.5435 24.2987 57.8589V42.5533C24.2987 41.8686 24.8537 41.3137 25.5383 41.3137C26.2229 41.3137 26.7779 41.8687 26.7779 42.5533V57.8589C26.7779 58.5435 26.2229 59.0985 25.5383 59.0985Z" fill="#3ECD8D"/>
<path d="M45.0385 47.7407H42.6071C41.6394 47.7407 40.8475 48.5326 40.8475 49.5003C40.8475 50.4681 41.6394 51.26 42.6071 51.26H45.0385C46.0063 51.26 46.7981 50.4681 46.7981 49.5003C46.7981 48.5326 46.0063 47.7407 45.0385 47.7407Z" fill="#DBF9A0"/>
<path d="M61.1768 10.1201L42.8556 14.0309V37.2527C42.8556 39.3864 44.6014 41.1322 46.735 41.1322H58.8018C64.7957 19.2997 61.1768 10.1201 61.1768 10.1201Z" fill="#BBF0F9"/>
<path d="M68.0419 9.41284L57.2793 14.031C57.2793 14.031 55.6291 17.4812 58.6084 19.1423V24.7059C58.6084 24.7059 56.354 27.3822 58.6084 29.6366V34.9626C58.6084 34.9626 56.1526 38.3295 58.8017 41.1323H75.3808C77.5144 41.1323 79.2601 39.3865 79.2601 37.2528V14.031L68.0419 9.41284Z" fill="#E8F8FC"/>
<path d="M53.3172 25.3368H49.9434C49.0184 25.3368 48.2615 24.5799 48.2615 23.6549V20.2811C48.2615 19.356 49.0184 18.5991 49.9434 18.5991H53.3172C54.2423 18.5991 54.9992 19.356 54.9992 20.2811V23.6549C54.9992 24.5799 54.2423 25.3368 53.3172 25.3368Z" fill="#FC51A3"/>
<path d="M62.8638 25.3368H59.4899C58.5649 25.3368 57.808 24.5799 57.808 23.6549V20.2811C57.808 19.356 58.5649 18.5991 59.4899 18.5991H62.8638C63.7888 18.5991 64.5457 19.356 64.5457 20.2811V23.6549C64.5458 24.5799 63.7888 25.3368 62.8638 25.3368Z" fill="#8CE1F9"/>
<path d="M72.4106 25.3368H69.0368C68.1117 25.3368 67.3549 24.5799 67.3549 23.6549V20.2811C67.3549 19.356 68.1117 18.5991 69.0368 18.5991H72.4106C73.3357 18.5991 74.0926 19.356 74.0926 20.2811V23.6549C74.0926 24.5799 73.3357 25.3368 72.4106 25.3368Z" fill="#8CE1F9"/>
<path d="M72.4106 35.6872H69.0368C68.1117 35.6872 67.3549 34.9303 67.3549 34.0052V30.6314C67.3549 29.7063 68.1117 28.9495 69.0368 28.9495H72.4106C73.3357 28.9495 74.0926 29.7063 74.0926 30.6314V34.0052C74.0926 34.9303 73.3357 35.6872 72.4106 35.6872Z" fill="#8CE1F9"/>
<path d="M53.3172 35.6874H49.9434C49.0184 35.6874 48.2615 34.9305 48.2615 34.0055V30.6316C48.2615 29.7066 49.0184 28.9497 49.9434 28.9497H53.3172C54.2423 28.9497 54.9992 29.7066 54.9992 30.6316V34.0055C54.9992 34.9305 54.2423 35.6874 53.3172 35.6874Z" fill="#6AD9FB"/>
<path d="M62.8638 35.6874H59.4899C58.5649 35.6874 57.808 34.9305 57.808 34.0055V30.6316C57.808 29.7066 58.5649 28.9497 59.4899 28.9497H62.8638C63.7888 28.9497 64.5457 29.7066 64.5457 30.6316V34.0055C64.5458 34.9305 63.7888 35.6874 62.8638 35.6874Z" fill="#8CE1F9"/>
<path d="M57.28 3.23999H46.7351C44.6013 3.23999 42.8555 4.98584 42.8555 7.11962V14.0312H57.28L62.2604 7.88346L57.28 3.23999Z" fill="#FC51A3"/>
<path d="M75.3807 3.23999H57.2792V10.1172C57.2792 10.1172 55.8182 12.1362 57.2792 14.0307H79.2601V7.11945C79.2601 4.98576 77.5144 3.23999 75.3807 3.23999Z" fill="#FF6EAE"/>
<path d="M50.0034 -0.000244141C49.1652 -0.000244141 48.4857 0.679269 48.4857 1.51747V8.60291C48.4857 9.44111 49.1652 10.1206 50.0034 10.1206C50.8416 10.1206 51.5211 9.44111 51.5211 8.60291V1.51747C51.5213 0.679269 50.8418 -0.000244141 50.0034 -0.000244141Z" fill="#FFC242"/>
<path d="M57.2793 0.00258471C56.4681 0.0513135 55.8552 0.764209 55.8552 1.57678V8.54357C55.8552 9.35613 56.4681 10.069 57.2793 10.1178C58.16 10.1706 58.8908 9.4721 58.8908 8.60274V1.51745C58.8908 0.648241 58.16 -0.0504157 57.2793 0.00258471Z" fill="#FEF156"/>
<path d="M64.6489 0.00258471C63.8378 0.0513135 63.2249 0.764209 63.2249 1.57678V8.54357C63.2249 9.35613 63.8378 10.069 64.6489 10.1178C65.5297 10.1706 66.2604 9.4721 66.2604 8.60274V1.51745C66.2604 0.648241 65.5297 -0.0504157 64.6489 0.00258471Z" fill="#FEF156"/>
<path d="M72.0187 0.00258471C71.2075 0.0513135 70.5946 0.764209 70.5946 1.57678V8.54357C70.5946 9.35613 71.2075 10.069 72.0187 10.1178C72.8994 10.1706 73.6302 9.4721 73.6302 8.60274V1.51745C73.6302 0.648241 72.8994 -0.0504157 72.0187 0.00258471Z" fill="#FEF156"/>
<path d="M35.1898 72.0772C35.1898 71.1728 34.4567 70.4395 33.552 70.4395H24.643C23.7384 70.4395 23.0052 71.1728 23.0052 72.0772C23.0052 72.9817 23.7384 73.715 24.643 73.715H33.552C34.4567 73.715 35.1898 72.9817 35.1898 72.0772Z" fill="#6AD9FB"/>
<path d="M18.147 73.715C19.0516 73.715 19.7848 72.9817 19.7848 72.0772C19.7848 71.1728 19.0516 70.4395 18.147 70.4395H13.9163C15.1636 71.6159 16.4884 72.7109 17.8834 73.7152H18.147V73.715Z" fill="#6AD9FB"/>
</g>
<defs>
<clipPath id="clip0_2003_4466">
<rect width="81" height="81" fill="white"/>
</clipPath>
</defs>
</svg>
