<svg width="47" height="47" viewBox="0 0 47 47" fill="none" xmlns="http://www.w3.org/2000/svg">
<rect opacity="0.05" width="47" height="47" rx="23.5" fill="url(#paint0_linear_2061_496)"/>
<g opacity="0.25" filter="url(#filter0_f_2061_496)">
<rect x="7" y="23" width="32" height="20" rx="10" fill="url(#paint1_radial_2061_496)"/>
</g>
<rect x="6" y="6" width="35" height="35" rx="17.5" fill="url(#paint2_radial_2061_496)"/>
<g filter="url(#filter1_i_2061_496)">
<path d="M23.6655 17.001C19.9106 17.001 16.999 19.7526 16.999 23.4675C16.999 25.4107 17.7957 27.0907 19.0923 28.2507C19.2006 28.3473 19.2673 28.484 19.2706 28.6307L19.3073 29.8173C19.31 29.9046 19.334 29.9899 19.3774 30.0657C19.4208 30.1416 19.4821 30.2056 19.556 30.2522C19.6299 30.2987 19.7141 30.3265 19.8012 30.3329C19.8883 30.3393 19.9757 30.3242 20.0556 30.2889L21.3789 29.7056C21.4906 29.6556 21.6172 29.6473 21.7356 29.679C22.3439 29.8456 22.9905 29.9356 23.6655 29.9356C27.4204 29.9356 30.332 27.184 30.332 23.4691C30.332 19.7542 27.4204 17.001 23.6655 17.001Z" fill="white"/>
<path d="M19.6623 25.3591L21.6206 22.2525C21.6942 22.1355 21.7913 22.0351 21.9058 21.9576C22.0202 21.8801 22.1495 21.8271 22.2854 21.802C22.4214 21.777 22.561 21.7804 22.6956 21.812C22.8301 21.8436 22.9567 21.9028 23.0672 21.9858L24.6255 23.1541C24.695 23.2062 24.7797 23.2342 24.8666 23.2339C24.9535 23.2336 25.0379 23.205 25.1071 23.1525L27.2104 21.5559C27.4904 21.3425 27.8571 21.6792 27.6704 21.9775L25.7105 25.0824C25.6368 25.1994 25.5397 25.2998 25.4252 25.3773C25.3108 25.4549 25.1815 25.5078 25.0456 25.5329C24.9097 25.558 24.77 25.5546 24.6354 25.5229C24.5009 25.4913 24.3744 25.4321 24.2638 25.3491L22.7055 24.1808C22.636 24.1287 22.5513 24.1007 22.4644 24.101C22.3775 24.1013 22.2931 24.1299 22.2239 24.1824L20.1206 25.7791C19.8406 25.9924 19.474 25.6574 19.6623 25.3591Z" fill="url(#paint3_radial_2061_496)"/>
</g>
<defs>
<filter id="filter0_f_2061_496" x="4.43579" y="20.4358" width="37.1284" height="25.1284" filterUnits="userSpaceOnUse" color-interpolation-filters="sRGB">
<feFlood flood-opacity="0" result="BackgroundImageFix"/>
<feBlend mode="normal" in="SourceGraphic" in2="BackgroundImageFix" result="shape"/>
<feGaussianBlur stdDeviation="1.2821" result="effect1_foregroundBlur_2061_496"/>
</filter>
<filter id="filter1_i_2061_496" x="16" y="16" width="15" height="15.2348" filterUnits="userSpaceOnUse" color-interpolation-filters="sRGB">
<feFlood flood-opacity="0" result="BackgroundImageFix"/>
<feBlend mode="normal" in="SourceGraphic" in2="BackgroundImageFix" result="shape"/>
<feColorMatrix in="SourceAlpha" type="matrix" values="0 0 0 0 0 0 0 0 0 0 0 0 0 0 0 0 0 0 127 0" result="hardAlpha"/>
<feOffset dy="0.234817"/>
<feGaussianBlur stdDeviation="0.587043"/>
<feComposite in2="hardAlpha" operator="arithmetic" k2="-1" k3="1"/>
<feColorMatrix type="matrix" values="0 0 0 0 0 0 0 0 0 0 0 0 0 0 0 0 0 0 0.1 0"/>
<feBlend mode="normal" in2="shape" result="effect1_innerShadow_2061_496"/>
</filter>
<linearGradient id="paint0_linear_2061_496" x1="3.95087" y1="3.0786" x2="38.8417" y2="47" gradientUnits="userSpaceOnUse">
<stop stop-color="#FBFBFC"/>
<stop offset="1" stop-color="#DBDDE8"/>
</linearGradient>
<radialGradient id="paint1_radial_2061_496" cx="0" cy="0" r="1" gradientUnits="userSpaceOnUse" gradientTransform="translate(12.36 42.9995) scale(35.2 21.9994)">
<stop stop-color="#0099FF"/>
<stop offset="0.6" stop-color="#A033FF"/>
<stop offset="0.9" stop-color="#FF5280"/>
<stop offset="1" stop-color="#FF7061"/>
</radialGradient>
<radialGradient id="paint2_radial_2061_496" cx="0" cy="0" r="1" gradientUnits="userSpaceOnUse" gradientTransform="translate(11.8625 40.999) scale(38.5 38.4989)">
<stop stop-color="#0099FF"/>
<stop offset="0.6" stop-color="#A033FF"/>
<stop offset="0.9" stop-color="#FF5280"/>
<stop offset="1" stop-color="#FF7061"/>
</radialGradient>
<radialGradient id="paint3_radial_2061_496" cx="0" cy="0" r="1" gradientUnits="userSpaceOnUse" gradientTransform="translate(19.2323 30.3339) scale(14.6663)">
<stop stop-color="#0099FF"/>
<stop offset="0.6" stop-color="#A033FF"/>
<stop offset="0.9" stop-color="#FF5280"/>
<stop offset="1" stop-color="#FF7061"/>
</radialGradient>
</defs>
</svg>
