<svg width="47" height="47" viewBox="0 0 47 47" fill="none" xmlns="http://www.w3.org/2000/svg">
<rect opacity="0.05" width="47" height="47" rx="23.5" fill="url(#paint0_linear_2061_502)"/>
<g opacity="0.25" filter="url(#filter0_f_2061_502)">
<rect x="7" y="23" width="32" height="20" rx="10" fill="url(#paint1_linear_2061_502)"/>
</g>
<rect x="6" y="6" width="35" height="35" rx="17.5" fill="url(#paint2_linear_2061_502)"/>
<g filter="url(#filter1_i_2061_502)">
<path d="M16.8177 22.8574C16.8177 22.8574 22.7147 20.2421 24.7599 19.3212C25.5439 18.9529 28.2027 17.7741 28.2027 17.7741C28.2027 17.7741 29.4298 17.2585 29.3275 18.5108C29.2934 19.0265 29.0207 20.8314 28.7481 22.7837C28.339 25.5463 27.8959 28.5668 27.8959 28.5668C27.8959 28.5668 27.8277 29.414 27.2482 29.5613C26.6688 29.7087 25.7143 29.0457 25.5439 28.8983C25.4075 28.7878 22.9874 27.1302 22.1011 26.3198C21.8625 26.0988 21.5898 25.6569 22.1352 25.1411C23.3623 23.9256 24.8281 22.4154 25.7143 21.4577C26.1234 21.0156 26.5324 19.9842 24.8281 21.2366C22.4079 23.0415 20.0218 24.736 20.0218 24.736C20.0218 24.736 19.4764 25.1043 18.4539 24.7728C17.4312 24.4413 16.2382 23.9992 16.2382 23.9992C16.2382 23.9992 15.4201 23.4467 16.8177 22.8574Z" fill="white"/>
</g>
<defs>
<filter id="filter0_f_2061_502" x="4.43579" y="20.4358" width="37.1284" height="25.1284" filterUnits="userSpaceOnUse" color-interpolation-filters="sRGB">
<feFlood flood-opacity="0" result="BackgroundImageFix"/>
<feBlend mode="normal" in="SourceGraphic" in2="BackgroundImageFix" result="shape"/>
<feGaussianBlur stdDeviation="1.2821" result="effect1_foregroundBlur_2061_502"/>
</filter>
<filter id="filter1_i_2061_502" x="15" y="16" width="15" height="15.1627" filterUnits="userSpaceOnUse" color-interpolation-filters="sRGB">
<feFlood flood-opacity="0" result="BackgroundImageFix"/>
<feBlend mode="normal" in="SourceGraphic" in2="BackgroundImageFix" result="shape"/>
<feColorMatrix in="SourceAlpha" type="matrix" values="0 0 0 0 0 0 0 0 0 0 0 0 0 0 0 0 0 0 127 0" result="hardAlpha"/>
<feOffset dy="0.162716"/>
<feGaussianBlur stdDeviation="0.406789"/>
<feComposite in2="hardAlpha" operator="arithmetic" k2="-1" k3="1"/>
<feColorMatrix type="matrix" values="0 0 0 0 0 0 0 0 0 0 0 0 0 0 0 0 0 0 0.1 0"/>
<feBlend mode="normal" in2="shape" result="effect1_innerShadow_2061_502"/>
</filter>
<linearGradient id="paint0_linear_2061_502" x1="3.95087" y1="3.0786" x2="38.8417" y2="47" gradientUnits="userSpaceOnUse">
<stop stop-color="#FBFBFC"/>
<stop offset="1" stop-color="#DBDDE8"/>
</linearGradient>
<linearGradient id="paint1_linear_2061_502" x1="9.81846" y1="24.4905" x2="24.3047" y2="49.553" gradientUnits="userSpaceOnUse">
<stop stop-color="#0088CC"/>
<stop offset="1" stop-color="#0083C5"/>
</linearGradient>
<linearGradient id="paint2_linear_2061_502" x1="9.08269" y1="8.60843" x2="38.2497" y2="40.1467" gradientUnits="userSpaceOnUse">
<stop stop-color="#0088CC"/>
<stop offset="1" stop-color="#0083C5"/>
</linearGradient>
</defs>
</svg>
