<svg width="81" height="81" viewBox="0 0 81 81" fill="none" xmlns="http://www.w3.org/2000/svg">
<g clip-path="url(#clip0_2003_4235)">
<path fill-rule="evenodd" clip-rule="evenodd" d="M40.5 0C62.8675 0 81 18.1326 81 40.5C81 62.8675 62.8674 81 40.5 81C18.1325 81 0 62.8674 0 40.5C0 18.1325 18.1326 0 40.5 0Z" fill="#7D62EE"/>
<mask id="mask0_2003_4235" style="mask-type:luminance" maskUnits="userSpaceOnUse" x="0" y="0" width="81" height="81">
<path d="M40.5 0C62.8675 0 81 18.1326 81 40.5C81 62.8675 62.8674 81 40.5 81C18.1325 81 0 62.8674 0 40.5C0 18.1325 18.1326 0 40.5 0Z" fill="white"/>
</mask>
<g mask="url(#mask0_2003_4235)">
<path fill-rule="evenodd" clip-rule="evenodd" d="M65.7013 19.0383L180.71 134.047L180.868 134.221L181.009 134.409L181.132 134.611L181.235 134.825L181.318 135.05L181.378 135.284L181.416 135.527L181.428 135.776V168.222L181.416 168.472L181.378 168.715L181.318 168.949L181.235 169.174L181.132 169.388L181.009 169.59L180.868 169.778L180.71 169.952L180.536 170.11L180.347 170.251L180.145 170.374L179.931 170.478L179.706 170.56L179.472 170.621L179.23 170.658L178.98 170.671H158.17L43.1618 55.6627H63.9718L64.2215 55.6499L64.4639 55.6125L64.6983 55.5521L64.9228 55.4695L65.137 55.3662L65.339 55.2432L65.5276 55.1019L65.7013 54.9437L65.8596 54.7699L66.0008 54.5813L66.1238 54.3793L66.2271 54.1652L66.3097 53.9407L66.3702 53.7062L66.4075 53.4638L66.4203 53.2141V20.768L66.4075 20.5184L66.3702 20.2758L66.3097 20.0415L66.2271 19.8168L66.1238 19.6029L66.0008 19.401L65.8596 19.2124L65.7013 19.0383Z" fill="#4832A5"/>
<path fill-rule="evenodd" clip-rule="evenodd" d="M37.838 55.6628L152.846 170.671H132.037L131.787 170.658L131.545 170.621L131.31 170.561L131.086 170.478L130.871 170.375L130.669 170.252L130.481 170.11L130.307 169.952L15.2987 54.9438L15.4727 55.1021L15.6613 55.2433L15.8633 55.3664L16.0772 55.4696L16.3019 55.5523L16.5362 55.6127L16.7787 55.6501L17.0284 55.6628H37.838Z" fill="#4832A5"/>
<path fill-rule="evenodd" clip-rule="evenodd" d="M43.1618 55.6628L158.17 170.671V176.474L43.1618 61.466V55.6628Z" fill="#4832A5"/>
<path fill-rule="evenodd" clip-rule="evenodd" d="M46.744 61.6558L161.752 176.664L161.865 176.859L161.902 177.082L161.865 177.305L161.752 177.499L161.564 177.637L161.302 177.689H149.714L149.452 177.637L149.264 177.499L34.2565 62.4911L34.4436 62.6287L34.7063 62.6809H46.2938L46.5566 62.6287L46.744 62.4911L46.8564 62.2964L46.8937 62.0734L46.8564 61.8505L46.744 61.6558Z" fill="#4832A5"/>
<path fill-rule="evenodd" clip-rule="evenodd" d="M66.4203 20.768V53.2141C66.4203 54.562 65.3199 55.6625 63.9719 55.6625H43.1621V61.4658H46.2941C47.0939 61.4658 47.0939 62.6808 46.2941 62.6808H34.7063C33.9065 62.6808 33.9065 61.4658 34.7063 61.4658H37.8382V55.6625H17.0285C15.6805 55.6625 14.5801 54.562 14.5801 53.2141V20.768C14.5801 19.42 15.6805 18.3196 17.0285 18.3196H63.972C65.3198 18.3196 66.4203 19.4201 66.4203 20.768Z" fill="#4832A5"/>
</g>
<path fill-rule="evenodd" clip-rule="evenodd" d="M37.838 62.0738C37.838 62.8798 43.1621 62.7978 43.1621 62.0738V55.0551C43.1621 54.3311 37.838 54.2491 37.838 55.0551V62.0738Z" fill="#89B6F0"/>
<path d="M63.9718 18.3196C65.3196 18.3196 66.4202 19.4201 66.4202 20.768V53.214C66.4202 54.562 65.3198 55.6625 63.9718 55.6625H17.0283C15.6803 55.6625 14.5799 54.562 14.5799 53.214V20.768C14.5799 19.42 15.6803 18.3196 17.0283 18.3196H63.9718ZM65.2052 47.4751H15.795V20.768C15.795 20.091 16.3514 19.5346 17.0284 19.5346H63.9719C64.3103 19.5346 64.6187 19.6737 64.8425 19.8974C65.0662 20.1211 65.2053 20.4296 65.2053 20.768L65.2052 47.4751Z" fill="#5764D4"/>
<path d="M34.7063 61.4658C33.9065 61.4658 33.9065 62.6809 34.7063 62.6809H46.2946C47.0944 62.6809 47.0944 61.4658 46.2946 61.4658H34.7063Z" fill="#5764D4"/>
<path fill-rule="evenodd" clip-rule="evenodd" d="M57.5869 50.9614C56.787 50.9614 56.787 52.1765 57.5869 52.1765H61.1537C61.9535 52.1765 61.9535 50.9614 61.1537 50.9614H57.5869Z" fill="#89B6F0"/>
<path fill-rule="evenodd" clip-rule="evenodd" d="M39.8925 19.5347H17.0283C16.3514 19.5347 15.7949 20.0911 15.7949 20.7681V47.4752H41.1075H65.2052V20.7681C65.2052 20.4297 65.0661 20.1212 64.8423 19.8975C64.6186 19.6737 64.31 19.5347 63.9717 19.5347H39.8925Z" fill="#D3F2FF"/>
<path fill-rule="evenodd" clip-rule="evenodd" d="M39.8925 47.4751H41.1075V19.5347H39.8925V47.4751Z" fill="#89B6F0"/>
<path fill-rule="evenodd" clip-rule="evenodd" d="M20.2082 43.4329C19.4083 43.4329 19.4083 44.6479 20.2082 44.6479H22.819C23.6188 44.6479 23.6188 43.4329 22.819 43.4329H20.2082ZM27.2089 43.4329C26.409 43.4329 26.409 44.6479 27.2089 44.6479H36.8085C37.6084 44.6479 37.6084 43.4329 36.8085 43.4329H27.2089Z" fill="#89B6F0"/>
<path fill-rule="evenodd" clip-rule="evenodd" d="M20.2082 35.0049C19.4083 35.0049 19.4083 36.2199 20.2082 36.2199H27.6128C28.4127 36.2199 28.4127 35.0049 27.6128 35.0049H20.2082ZM31.9494 35.0049C31.1495 35.0049 31.1495 36.2199 31.9494 36.2199H36.8085C37.6084 36.2199 37.6084 35.0049 36.8085 35.0049H31.9494Z" fill="#89B6F0"/>
<path fill-rule="evenodd" clip-rule="evenodd" d="M20.2082 26.5757C19.4083 26.5757 19.4083 27.7907 20.2082 27.7907H25.6429C26.4427 27.7907 26.4427 26.5757 25.6429 26.5757H20.2082ZM29.9793 26.5757C29.1795 26.5757 29.1795 27.7907 29.9793 27.7907H36.8085C37.6083 27.7907 37.6083 26.5757 36.8085 26.5757H29.9793Z" fill="#89B6F0"/>
<path fill-rule="evenodd" clip-rule="evenodd" d="M36.8087 40.4338C37.6085 40.4338 37.6085 39.2188 36.8087 39.2188H34.1977C33.3979 39.2188 33.3979 40.4338 34.1977 40.4338H36.8087ZM29.8078 40.4338C30.6077 40.4338 30.6077 39.2188 29.8078 39.2188H20.2082C19.4083 39.2188 19.4083 40.4338 20.2082 40.4338H29.8078Z" fill="#89B6F0"/>
<path fill-rule="evenodd" clip-rule="evenodd" d="M36.8087 32.0053C37.6085 32.0053 37.6085 30.7903 36.8087 30.7903H29.404C28.6041 30.7903 28.6041 32.0053 29.404 32.0053H36.8087ZM25.0674 32.0053C25.8673 32.0053 25.8673 30.7903 25.0674 30.7903H20.2082C19.4083 30.7903 19.4083 32.0053 20.2082 32.0053H25.0674Z" fill="#89B6F0"/>
<path fill-rule="evenodd" clip-rule="evenodd" d="M36.8088 23.5766C37.6086 23.5766 37.6086 22.3616 36.8088 22.3616H31.374C30.5742 22.3616 30.5742 23.5766 31.374 23.5766H36.8088ZM27.0376 23.5766C27.8374 23.5766 27.8374 22.3616 27.0376 22.3616H20.2083C19.4084 22.3616 19.4084 23.5766 20.2083 23.5766H27.0376Z" fill="#89B6F0"/>
<path d="M62.1938 28.0977C62.3044 29.7674 61.7987 31.7487 60.5944 33.6303C60.5836 34.9125 60.3228 42.4512 55.6743 43.1788C55.6356 43.1883 55.5953 43.1943 55.5539 43.1961C53.517 43.2497 54.2557 39.7474 54.2218 38.1889C54.1744 36.0055 52.1387 36.0066 52.0916 38.1886C52.0549 39.8799 52.8089 42.9838 50.866 43.1916C50.8123 43.1986 50.7568 43.1987 50.7006 43.1907C45.9918 42.5212 45.7297 34.9183 45.719 33.6303C44.5147 31.7487 44.0089 29.7674 44.1196 28.0976C44.248 26.1584 45.2413 24.4295 47.1723 23.944C50.2881 23.1606 51.381 25.6195 54.1556 24.9011C55.9141 24.4459 56.8611 23.3708 59.1411 23.9441C61.0721 24.4296 62.0654 26.1585 62.1938 28.0977Z" fill="#CDCDCD"/>
<path d="M55.0375 43.1145C53.6529 42.588 54.2527 39.5964 54.222 38.1887C54.1746 36.0053 52.1389 36.0064 52.0918 38.1885C52.0787 38.7916 52.166 39.5743 52.1959 40.3413C52.1922 40.5106 52.1965 40.6941 52.2053 40.8874C52.1945 42.058 51.9502 43.0755 50.8662 43.1914C50.8125 43.1985 50.757 43.1986 50.7008 43.1906C45.992 42.5211 45.7299 34.9181 45.7192 33.6301C44.5149 31.7486 44.0091 29.7673 44.1198 28.0974C44.2482 26.1582 45.2415 24.4294 47.1725 23.9439C50.2883 23.1604 51.3812 25.6193 54.1558 24.901C55.4429 24.5678 56.2952 23.9027 57.5536 23.7947C57.7518 23.8387 57.9606 23.8882 58.1821 23.944C60.1132 24.4294 61.1064 26.1583 61.2348 28.0975C61.3455 29.7673 60.8397 31.7486 59.6354 33.6301C59.6249 34.882 59.3753 42.0964 55.0375 43.1145Z" fill="#4129A3"/>
</g>
<defs>
<clipPath id="clip0_2003_4235">
<rect width="81" height="81" fill="white"/>
</clipPath>
</defs>
</svg>
