<svg width="967" height="1136" viewBox="0 0 967 1136" fill="none" xmlns="http://www.w3.org/2000/svg">
<mask id="mask0_2027_2368" style="mask-type:alpha" maskUnits="userSpaceOnUse" x="188" y="27" width="846" height="942">
<path d="M477.122 77.4646C562.037 94.6306 769.499 19.1596 869.851 27.9608L1033.12 299.765C737.758 396.933 1017.3 195.449 576.859 452.756C458.519 521.891 463.536 759.65 508.043 968.595L271.674 745.359C217.676 604.103 186.795 394.512 189.061 357.765C191.894 311.833 392.207 60.2987 477.122 77.4646Z" fill="#C4C4C4"/>
</mask>
<g mask="url(#mask0_2027_2368)">
<g opacity="0.4" filter="url(#filter0_f_2027_2368)">
<ellipse cx="291.783" cy="624.71" rx="394.808" ry="239.496" transform="rotate(-38.7295 291.783 624.71)" fill="#00D1FF"/>
</g>
<mask id="mask1_2027_2368" style="mask-type:alpha" maskUnits="userSpaceOnUse" x="-421" y="-176" width="1586" height="1525">
<path d="M648.542 -175.585L1164.03 263.605L183.168 1348.37L-420.935 862.347L648.542 -175.585Z" fill="url(#paint0_linear_2027_2368)"/>
</mask>
<g mask="url(#mask1_2027_2368)">
<mask id="mask2_2027_2368" style="mask-type:alpha" maskUnits="userSpaceOnUse" x="-288" y="-51" width="1255" height="1249">
<path d="M100.124 1197.97C-66.0816 1029.11 -278.058 813.66 -287.265 806.17L579.494 -50.8336L966.883 340.965L100.124 1197.97Z" fill="url(#paint1_linear_2027_2368)"/>
</mask>
<g mask="url(#mask2_2027_2368)">
<path d="M184.318 475.897C282.077 379.238 423.931 358.31 477.419 412.406C530.906 466.502 561.525 576.622 456.638 680.328C404.661 731.72 377.307 830.281 288.919 864.4C198.943 899.132 140.287 811.218 113.305 783.929C59.8177 729.833 86.5592 572.556 184.318 475.897Z" fill="#00D1FF"/>
<g filter="url(#filter1_f_2027_2368)">
<path d="M187.726 481.69C292.571 378.026 418.888 355.702 464.864 402.201C510.839 448.701 531.618 548.834 426.773 652.499C374.818 703.869 343.664 798.536 259.041 836.413C172.899 874.97 124.481 797.424 101.289 773.967C55.3128 727.468 82.8822 585.354 187.726 481.69Z" fill="#00D1FF"/>
</g>
<g filter="url(#filter2_f_2027_2368)">
<path d="M190.899 478.548C308.409 362.361 455.733 343.153 512.416 400.481C569.098 457.809 599.148 576.878 481.638 693.065C423.406 750.642 397.347 865.704 299.936 905.562C200.775 946.136 134.687 847.265 106.093 818.346C49.4105 761.018 73.3889 594.736 190.899 478.548Z" fill="#00D1FF"/>
</g>
<g filter="url(#filter3_f_2027_2368)">
<path d="M211.177 471.928C370.163 342.54 1016.54 216.31 630.196 365.166C243.85 514.023 483.383 569.402 342.453 708.746C272.615 777.798 466.374 947.891 350.365 996.518C232.272 1046.02 160.999 935.521 127.534 901.675C61.1938 834.58 27.0001 621.816 211.177 471.928Z" fill="#7785FF"/>
</g>
<g filter="url(#filter4_f_2027_2368)">
<path d="M286.907 450.752C438.651 300.715 1007.86 192.507 719.62 323.594C431.38 454.682 775.311 538.505 623.566 688.542C548.369 762.892 481.82 878.203 360.18 933.871C236.356 990.538 168.573 880.623 135.854 847.531C70.9933 781.932 135.162 600.789 286.907 450.752Z" fill="#7785FF"/>
</g>
<g filter="url(#filter5_f_2027_2368)">
<path d="M371.857 418.541C528.671 263.492 751.093 218.428 817.432 285.523C168.323 480.072 873.552 506.165 716.738 661.214C639.029 738.049 569.993 856.946 444.633 914.82C317.02 973.734 247.911 861.095 214.446 827.249C148.107 760.154 215.043 573.59 371.857 418.541Z" fill="#7785FF"/>
</g>
<g filter="url(#filter6_f_2027_2368)">
<path d="M179.491 510.538C316.704 374.87 691.239 277.3 626.603 353.327C561.967 429.353 524.708 593.075 387.496 728.744C319.5 795.974 384.831 926.477 271.011 972.941C155.147 1020.24 83.3665 910.241 49.9014 876.395C-16.4383 809.3 42.2791 646.206 179.491 510.538Z" fill="url(#paint2_linear_2027_2368)"/>
</g>
</g>
</g>
<mask id="mask3_2027_2368" style="mask-type:alpha" maskUnits="userSpaceOnUse" x="225" y="-59" width="625" height="584">
<path d="M849.477 203.881L449.143 -58.6539L225.593 324.875C302.016 391.934 455.576 525.789 458.43 524.731C461.284 523.673 720.317 310.39 849.477 203.881Z" fill="url(#paint3_linear_2027_2368)"/>
</mask>
<g mask="url(#mask3_2027_2368)">
<mask id="mask4_2027_2368" style="mask-type:alpha" maskUnits="userSpaceOnUse" x="255" y="0" width="523" height="552">
<path d="M522.633 0.373535C632.184 81.1381 771.921 184.187 777.664 187.819L510.592 551.187L255.561 363.742L522.633 0.373535Z" fill="url(#paint4_linear_2027_2368)"/>
</mask>
<g mask="url(#mask4_2027_2368)">
<path d="M617.447 317.063C596.476 345.594 539.568 340.715 504.356 314.834C469.143 288.953 431.422 243.44 453.922 212.828C465.071 197.658 455.07 161.938 485.852 156.803C517.187 151.576 562.146 191.046 579.909 204.102C615.122 229.983 638.417 288.531 617.447 317.063Z" fill="#00A3FF"/>
<g filter="url(#filter7_f_2027_2368)">
<path d="M616.913 316.54C592.817 349.325 531.974 340.744 492.887 312.016C453.801 283.288 411.599 233.218 435.695 200.434C447.636 184.187 434.99 144.51 468.641 139.514C502.897 134.428 552.922 178.077 572.639 192.569C611.725 221.297 641.01 283.756 616.913 316.54Z" fill="#00A3FF"/>
</g>
<g filter="url(#filter8_f_2027_2368)">
<path d="M610.232 313.252C614.978 339.156 519.885 349.463 482.787 322.197C445.69 294.931 407.776 244.498 436.317 205.665C450.461 186.422 438.415 141.581 473.692 132.296C509.603 122.845 559.447 167.63 578.161 181.385C615.258 208.651 644.935 305.154 610.232 313.252Z" fill="#00A3FF"/>
</g>
<g filter="url(#filter9_f_2027_2368)">
<path d="M592.798 306.157C552.987 342.115 481.266 343.422 439.81 312.952C398.354 282.483 369.334 228.051 399.565 186.92C414.546 166.537 388.622 107.126 427.065 98.0833C466.199 88.8779 518.62 136.04 539.532 151.411C580.988 181.881 638.916 264.502 592.798 306.157Z" fill="#00A3FF"/>
</g>
<g filter="url(#filter10_f_2027_2368)">
<path d="M575.271 328.152C536.343 343.753 436.035 369.021 393.335 337.636C350.635 306.252 404.62 174.956 437.171 130.669C453.302 108.722 456.592 70.097 497.02 59.6509C538.174 49.0173 569.591 118.015 598.956 175.323C637.949 251.424 630.132 323.815 575.271 328.152Z" fill="#00A3FF"/>
</g>
<g filter="url(#filter11_f_2027_2368)">
<path d="M584.935 291.096C551.296 336.863 396.929 358.947 353.256 326.848C309.582 294.748 354.346 194.753 387.985 148.986C404.655 126.306 414.414 39.879 455.967 28.9182C498.267 17.7606 520.432 57.5796 542.463 73.7723C586.137 105.872 618.573 245.329 584.935 291.096Z" fill="#00A3FF"/>
</g>
<g filter="url(#filter12_f_2027_2368)">
<path d="M584.935 291.096C551.296 336.863 396.929 358.947 353.256 326.848C309.582 294.748 354.346 194.753 387.985 148.986C404.655 126.306 414.414 39.879 455.967 28.9182C498.267 17.7606 520.432 57.5796 542.463 73.7723C586.137 105.872 618.573 245.329 584.935 291.096Z" fill="#00A3FF"/>
</g>
<g filter="url(#filter13_f_2027_2368)">
<path d="M584.935 291.096C551.296 336.863 396.929 358.947 353.256 326.848C309.582 294.748 354.346 194.753 387.985 148.986C404.655 126.306 414.414 39.879 455.967 28.9182C498.267 17.7606 520.432 57.5796 542.463 73.7723C586.137 105.872 618.573 245.329 584.935 291.096Z" fill="#00A3FF"/>
</g>
<g filter="url(#filter14_f_2027_2368)">
<path d="M584.935 291.096C551.296 336.863 400.219 366.633 356.545 334.533C312.871 302.433 354.346 194.753 387.985 148.986C404.655 126.306 414.414 39.879 455.967 28.9182C498.267 17.7606 520.432 57.5796 542.463 73.7723C586.137 105.872 618.573 245.329 584.935 291.096Z" fill="#00A3FF"/>
</g>
<g filter="url(#filter15_f_2027_2368)">
<path d="M598.483 317.61C569.05 357.656 486.158 349.831 442.484 317.732C398.811 285.632 366.977 230.006 396.411 189.959C410.996 170.114 423.035 131.034 462.113 123.442C501.893 115.713 543.11 159.953 565.141 176.146C608.815 208.246 627.917 277.563 598.483 317.61Z" fill="#00A3FF"/>
</g>
</g>
</g>
</g>
<mask id="mask5_2027_2368" style="mask-type:alpha" maskUnits="userSpaceOnUse" x="289" y="63" width="461" height="369">
<path d="M289.146 166.973L407.766 63.4805L749.793 255.769L558.311 431.959L289.146 166.973Z" fill="url(#paint5_linear_2027_2368)"/>
</mask>
<g mask="url(#mask5_2027_2368)">
<g opacity="0.58">
<mask id="mask6_2027_2368" style="mask-type:alpha" maskUnits="userSpaceOnUse" x="170" y="11" width="657" height="591">
<path d="M170.833 147.497L424.736 11.2257L826.191 370.67L636.465 601.819L170.833 147.497Z" fill="url(#paint6_linear_2027_2368)"/>
</mask>
<g mask="url(#mask6_2027_2368)">
<path d="M615.582 331.111C585.131 248.133 510.825 195.05 461.026 167.746L429.033 156.235L401.719 149.668L349.342 183.931L396.518 273.855L538.447 389.904L601.933 395.226C610.759 395.411 625.844 382.848 615.582 331.111Z" fill="#00A3FF"/>
<g filter="url(#filter16_f_2027_2368)">
<path d="M621.255 328.953C596.177 269.652 573.83 258.124 535.121 237.114L503.128 225.604L475.814 219.037L423.436 253.3L390.969 273.068L532.898 389.118L596.385 394.439C605.211 394.625 631.517 380.69 621.255 328.953Z" fill="#00A3FF"/>
</g>
<g filter="url(#filter17_f_2027_2368)">
<path d="M634.779 341.941C576.924 238.007 477.17 186.547 438.461 165.537L419.86 154.745L399.338 146.502L346.96 180.764L394.136 270.688L536.065 386.738L601.306 367.761C610.131 367.947 645.041 393.678 634.779 341.941Z" fill="#00A3FF"/>
</g>
<g filter="url(#filter18_f_2027_2368)">
<path d="M635.628 347.189C553.824 228.311 467.401 173.536 428.692 152.526L410.091 141.734L389.569 133.49L307.807 154.593L415.474 284.508L558.628 459.25L629.776 439.182C638.601 439.368 645.89 398.926 635.628 347.189Z" fill="#00A3FF"/>
</g>
</g>
</g>
</g>
<defs>
<filter id="filter0_f_2027_2368" x="-234.616" y="131.169" width="1052.8" height="987.081" filterUnits="userSpaceOnUse" color-interpolation-filters="sRGB">
<feFlood flood-opacity="0" result="BackgroundImageFix"/>
<feBlend mode="normal" in="SourceGraphic" in2="BackgroundImageFix" result="shape"/>
<feGaussianBlur stdDeviation="91.9069" result="effect1_foregroundBlur_2027_2368"/>
</filter>
<filter id="filter1_f_2027_2368" x="73.754" y="373.009" width="434.902" height="480.069" filterUnits="userSpaceOnUse" color-interpolation-filters="sRGB">
<feFlood flood-opacity="0" result="BackgroundImageFix"/>
<feBlend mode="normal" in="SourceGraphic" in2="BackgroundImageFix" result="shape"/>
<feGaussianBlur stdDeviation="3.04562" result="effect1_foregroundBlur_2027_2368"/>
</filter>
<filter id="filter2_f_2027_2368" x="55.4356" y="347.957" width="528.233" height="588.561" filterUnits="userSpaceOnUse" color-interpolation-filters="sRGB">
<feFlood flood-opacity="0" result="BackgroundImageFix"/>
<feBlend mode="normal" in="SourceGraphic" in2="BackgroundImageFix" result="shape"/>
<feGaussianBlur stdDeviation="10.6597" result="effect1_foregroundBlur_2027_2368"/>
</filter>
<filter id="filter3_f_2027_2368" x="44.0165" y="267.402" width="737.891" height="772.132" filterUnits="userSpaceOnUse" color-interpolation-filters="sRGB">
<feFlood flood-opacity="0" result="BackgroundImageFix"/>
<feBlend mode="normal" in="SourceGraphic" in2="BackgroundImageFix" result="shape"/>
<feGaussianBlur stdDeviation="15.2281" result="effect1_foregroundBlur_2027_2368"/>
</filter>
<filter id="filter4_f_2027_2368" x="28.4675" y="182.545" width="853.651" height="849.515" filterUnits="userSpaceOnUse" color-interpolation-filters="sRGB">
<feFlood flood-opacity="0" result="BackgroundImageFix"/>
<feBlend mode="normal" in="SourceGraphic" in2="BackgroundImageFix" result="shape"/>
<feGaussianBlur stdDeviation="41.1158" result="effect1_foregroundBlur_2027_2368"/>
</filter>
<filter id="filter5_f_2027_2368" x="-15.0894" y="51.3051" width="1036.58" height="1084.34" filterUnits="userSpaceOnUse" color-interpolation-filters="sRGB">
<feFlood flood-opacity="0" result="BackgroundImageFix"/>
<feBlend mode="normal" in="SourceGraphic" in2="BackgroundImageFix" result="shape"/>
<feGaussianBlur stdDeviation="102.028" result="effect1_foregroundBlur_2027_2368"/>
</filter>
<filter id="filter6_f_2027_2368" x="-71.8468" y="232.297" width="800.294" height="846.692" filterUnits="userSpaceOnUse" color-interpolation-filters="sRGB">
<feFlood flood-opacity="0" result="BackgroundImageFix"/>
<feBlend mode="normal" in="SourceGraphic" in2="BackgroundImageFix" result="shape"/>
<feGaussianBlur stdDeviation="47.2071" result="effect1_foregroundBlur_2027_2368"/>
</filter>
<filter id="filter7_f_2027_2368" x="427.556" y="138.024" width="199.182" height="200.66" filterUnits="userSpaceOnUse" color-interpolation-filters="sRGB">
<feFlood flood-opacity="0" result="BackgroundImageFix"/>
<feBlend mode="normal" in="SourceGraphic" in2="BackgroundImageFix" result="shape"/>
<feGaussianBlur stdDeviation="0.539959" result="effect1_foregroundBlur_2027_2368"/>
</filter>
<filter id="filter8_f_2027_2368" x="422.537" y="127.218" width="206.886" height="214.863" filterUnits="userSpaceOnUse" color-interpolation-filters="sRGB">
<feFlood flood-opacity="0" result="BackgroundImageFix"/>
<feBlend mode="normal" in="SourceGraphic" in2="BackgroundImageFix" result="shape"/>
<feGaussianBlur stdDeviation="1.88986" result="effect1_foregroundBlur_2027_2368"/>
</filter>
<filter id="filter9_f_2027_2368" x="381.671" y="91.503" width="233.516" height="248.454" filterUnits="userSpaceOnUse" color-interpolation-filters="sRGB">
<feFlood flood-opacity="0" result="BackgroundImageFix"/>
<feBlend mode="normal" in="SourceGraphic" in2="BackgroundImageFix" result="shape"/>
<feGaussianBlur stdDeviation="2.69979" result="effect1_foregroundBlur_2027_2368"/>
</filter>
<filter id="filter10_f_2027_2368" x="362.98" y="43.9783" width="274.899" height="323.215" filterUnits="userSpaceOnUse" color-interpolation-filters="sRGB">
<feFlood flood-opacity="0" result="BackgroundImageFix"/>
<feBlend mode="normal" in="SourceGraphic" in2="BackgroundImageFix" result="shape"/>
<feGaussianBlur stdDeviation="7.28944" result="effect1_foregroundBlur_2027_2368"/>
</filter>
<filter id="filter11_f_2027_2368" x="294.219" y="-13.9435" width="345.567" height="396.884" filterUnits="userSpaceOnUse" color-interpolation-filters="sRGB">
<feFlood flood-opacity="0" result="BackgroundImageFix"/>
<feBlend mode="normal" in="SourceGraphic" in2="BackgroundImageFix" result="shape"/>
<feGaussianBlur stdDeviation="20.4592" result="effect1_foregroundBlur_2027_2368"/>
</filter>
<filter id="filter12_f_2027_2368" x="294.219" y="-13.9435" width="345.567" height="396.884" filterUnits="userSpaceOnUse" color-interpolation-filters="sRGB">
<feFlood flood-opacity="0" result="BackgroundImageFix"/>
<feBlend mode="normal" in="SourceGraphic" in2="BackgroundImageFix" result="shape"/>
<feGaussianBlur stdDeviation="20.4592" result="effect1_foregroundBlur_2027_2368"/>
</filter>
<filter id="filter13_f_2027_2368" x="294.219" y="-13.9435" width="345.567" height="396.884" filterUnits="userSpaceOnUse" color-interpolation-filters="sRGB">
<feFlood flood-opacity="0" result="BackgroundImageFix"/>
<feBlend mode="normal" in="SourceGraphic" in2="BackgroundImageFix" result="shape"/>
<feGaussianBlur stdDeviation="20.4592" result="effect1_foregroundBlur_2027_2368"/>
</filter>
<filter id="filter14_f_2027_2368" x="296.788" y="-13.9435" width="342.998" height="402.831" filterUnits="userSpaceOnUse" color-interpolation-filters="sRGB">
<feFlood flood-opacity="0" result="BackgroundImageFix"/>
<feBlend mode="normal" in="SourceGraphic" in2="BackgroundImageFix" result="shape"/>
<feGaussianBlur stdDeviation="20.4592" result="effect1_foregroundBlur_2027_2368"/>
</filter>
<filter id="filter15_f_2027_2368" x="368.257" y="105.805" width="261.109" height="255.736" filterUnits="userSpaceOnUse" color-interpolation-filters="sRGB">
<feFlood flood-opacity="0" result="BackgroundImageFix"/>
<feBlend mode="normal" in="SourceGraphic" in2="BackgroundImageFix" result="shape"/>
<feGaussianBlur stdDeviation="8.36936" result="effect1_foregroundBlur_2027_2368"/>
</filter>
<filter id="filter16_f_2027_2368" x="372.789" y="200.856" width="268.986" height="211.765" filterUnits="userSpaceOnUse" color-interpolation-filters="sRGB">
<feFlood flood-opacity="0" result="BackgroundImageFix"/>
<feBlend mode="normal" in="SourceGraphic" in2="BackgroundImageFix" result="shape"/>
<feGaussianBlur stdDeviation="9.09034" result="effect1_foregroundBlur_2027_2368"/>
</filter>
<filter id="filter17_f_2027_2368" x="328.78" y="128.321" width="326.051" height="276.597" filterUnits="userSpaceOnUse" color-interpolation-filters="sRGB">
<feFlood flood-opacity="0" result="BackgroundImageFix"/>
<feBlend mode="normal" in="SourceGraphic" in2="BackgroundImageFix" result="shape"/>
<feGaussianBlur stdDeviation="9.09034" result="effect1_foregroundBlur_2027_2368"/>
</filter>
<filter id="filter18_f_2027_2368" x="256.174" y="81.8573" width="436.099" height="429.026" filterUnits="userSpaceOnUse" color-interpolation-filters="sRGB">
<feFlood flood-opacity="0" result="BackgroundImageFix"/>
<feBlend mode="normal" in="SourceGraphic" in2="BackgroundImageFix" result="shape"/>
<feGaussianBlur stdDeviation="25.8166" result="effect1_foregroundBlur_2027_2368"/>
</filter>
<linearGradient id="paint0_linear_2027_2368" x1="711" y1="305.924" x2="81.2252" y2="1031.15" gradientUnits="userSpaceOnUse">
<stop stop-color="#C4C4C4" stop-opacity="0"/>
<stop offset="0.261523" stop-color="#C4C4C4"/>
<stop offset="0.554366" stop-color="#C4C4C4"/>
<stop offset="1" stop-color="#C4C4C4" stop-opacity="0"/>
</linearGradient>
<linearGradient id="paint1_linear_2027_2368" x1="136.498" y1="509.921" x2="417.352" y2="781.311" gradientUnits="userSpaceOnUse">
<stop stop-color="#C4C4C4"/>
<stop offset="1" stop-color="#C4C4C4" stop-opacity="0"/>
</linearGradient>
<linearGradient id="paint2_linear_2027_2368" x1="141.35" y1="921.894" x2="646.959" y2="421.975" gradientUnits="userSpaceOnUse">
<stop offset="0.5625" stop-color="#491CFF"/>
<stop offset="1" stop-color="#0038FF"/>
</linearGradient>
<linearGradient id="paint3_linear_2027_2368" x1="570.395" y1="68.1943" x2="348.574" y2="345.143" gradientUnits="userSpaceOnUse">
<stop stop-color="#C4C4C4" stop-opacity="0"/>
<stop offset="0.430547" stop-color="#C4C4C4"/>
<stop offset="0.498519" stop-color="#C4C4C4"/>
<stop offset="1" stop-color="#C4C4C4" stop-opacity="0"/>
</linearGradient>
<linearGradient id="paint4_linear_2027_2368" x1="659.831" y1="333.605" x2="388.107" y2="177.931" gradientUnits="userSpaceOnUse">
<stop stop-color="#C4C4C4"/>
<stop offset="1" stop-color="#C4C4C4" stop-opacity="0"/>
</linearGradient>
<linearGradient id="paint5_linear_2027_2368" x1="604.692" y1="357.808" x2="385.205" y2="188.914" gradientUnits="userSpaceOnUse">
<stop stop-color="#C4C4C4" stop-opacity="0"/>
<stop offset="0.11282" stop-color="#C4C4C4"/>
<stop offset="0.284305" stop-color="#C4C4C4"/>
<stop offset="1" stop-color="#C4C4C4" stop-opacity="0"/>
</linearGradient>
<linearGradient id="paint6_linear_2027_2368" x1="554.124" y1="219.28" x2="500.538" y2="270.126" gradientUnits="userSpaceOnUse">
<stop offset="0.155373" stop-color="#C4C4C4"/>
<stop offset="1" stop-color="#C4C4C4" stop-opacity="0"/>
</linearGradient>
</defs>
</svg>
