<svg width="81" height="81" viewBox="0 0 81 81" fill="none" xmlns="http://www.w3.org/2000/svg">
<g clip-path="url(#clip0_2003_4429)">
<path d="M6.60351 61.896C2.91453 55.8112 0.817746 48.6536 0.891147 41.0013C1.10036 19.1722 18.7554 1.7329 40.5855 1.77914C62.4227 1.82522 80.1108 19.5419 80.1108 41.3898C80.1108 48.4219 78.2783 55.0261 75.0648 60.7507C74.1499 62.3806 72.4142 63.3778 70.545 63.3778H9.24272C8.16482 63.3778 7.16226 62.8176 6.60351 61.896Z" fill="#7D62EE"/>
<path d="M18.5122 0C17.1728 0 16.087 1.08582 16.087 2.42515V66.3138C16.087 68.8119 13.0147 70.0207 11.3247 68.1813C9.52828 66.2262 7.92607 64.0901 6.5481 61.8035V14.5509H6.06307C5.34878 14.5509 4.76965 13.9718 4.76965 13.2575V7.76048C4.76965 7.04619 5.34878 6.46707 6.06307 6.46707H6.5481V2.42515C6.5481 1.08582 7.63392 0 8.97325 0H18.5122Z" fill="#453D83"/>
<path d="M46.967 14.5509V17.7844H47.1287C47.843 17.7844 48.4221 18.3636 48.4221 19.0778V24.5749C48.4221 25.2891 47.843 25.8683 47.1287 25.8683H46.967V64.735C46.967 74.1228 38.3568 81.2268 29.1682 79.3032C28.8023 79.2266 28.4808 79.1448 28.2122 79.0571C22.9697 77.348 18.208 74.5751 14.1818 70.9932C13.3318 70.237 12.8533 69.1481 12.8533 68.0106V2.42515C12.8533 1.08582 13.9391 0 15.2784 0H44.5419C45.8812 0 46.967 1.08582 46.967 2.42515V6.46707H47.1287C47.843 6.46707 48.4221 7.04619 48.4221 7.76048V13.2575C48.4221 13.9718 47.843 14.5509 47.1287 14.5509H46.967Z" fill="#51489A"/>
<path d="M42.2785 17.7848V68.7129C42.2785 70.0522 41.1927 71.1381 39.8533 71.1381H14.3451C13.254 70.178 12.2162 69.1588 11.2366 68.0856V17.7848C11.2366 16.4454 12.3224 15.3596 13.6617 15.3596H39.8533C41.1927 15.3596 42.2785 16.4454 42.2785 17.7848Z" fill="#E9F3FE"/>
<path d="M11.2366 17.7848V10.5094C11.2366 9.17005 12.3224 8.08423 13.6617 8.08423H39.8533C41.1927 8.08423 42.2785 9.17005 42.2785 10.5094V17.7848H11.2366Z" fill="#82CD64"/>
<path d="M37.9131 22.6353C37.9131 23.5283 37.1892 24.2521 36.2963 24.2521H16.8951C16.0021 24.2521 15.2783 23.5283 15.2783 22.6353C15.2783 21.7424 16.0021 21.0186 16.8951 21.0186H36.2963C37.1892 21.0186 37.9131 21.7424 37.9131 22.6353ZM26.5957 27.4856H16.8951C16.0021 27.4856 15.2783 28.2094 15.2783 29.1024C15.2783 29.9953 16.0021 30.7192 16.8951 30.7192H26.5957C27.4886 30.7192 28.2125 29.9953 28.2125 29.1024C28.2125 28.2094 27.4886 27.4856 26.5957 27.4856Z" fill="#C0E6B1"/>
<path d="M18.5119 22.6353C18.5119 23.5283 17.788 24.2521 16.8951 24.2521C16.0021 24.2521 15.2783 23.5283 15.2783 22.6353C15.2783 21.7424 16.0021 21.0186 16.8951 21.0186C17.788 21.0186 18.5119 21.7424 18.5119 22.6353ZM21.7454 21.0186C20.8524 21.0186 20.1286 21.7424 20.1286 22.6353C20.1286 23.5283 20.8524 24.2521 21.7454 24.2521C22.6383 24.2521 23.3622 23.5283 23.3622 22.6353C23.3622 21.7424 22.6383 21.0186 21.7454 21.0186ZM26.5957 21.0186C25.7027 21.0186 24.9789 21.7424 24.9789 22.6353C24.9789 23.5283 25.7027 24.2521 26.5957 24.2521C27.4886 24.2521 28.2125 23.5283 28.2125 22.6353C28.2125 21.7424 27.4886 21.0186 26.5957 21.0186ZM31.446 21.0186C30.553 21.0186 29.8292 21.7424 29.8292 22.6353C29.8292 23.5283 30.553 24.2521 31.446 24.2521C32.3389 24.2521 33.0628 23.5283 33.0628 22.6353C33.0628 21.7424 32.3389 21.0186 31.446 21.0186ZM36.2963 21.0186C35.4033 21.0186 34.6795 21.7424 34.6795 22.6353C34.6795 23.5283 35.4033 24.2521 36.2963 24.2521C37.1892 24.2521 37.9131 23.5283 37.9131 22.6353C37.9131 21.7424 37.1892 21.0186 36.2963 21.0186ZM16.8951 27.4856C16.0021 27.4856 15.2783 28.2094 15.2783 29.1024C15.2783 29.9953 16.0021 30.7192 16.8951 30.7192C17.788 30.7192 18.5119 29.9953 18.5119 29.1024C18.5119 28.2094 17.788 27.4856 16.8951 27.4856ZM21.7454 27.4856C20.8524 27.4856 20.1286 28.2094 20.1286 29.1024C20.1286 29.9953 20.8524 30.7192 21.7454 30.7192C22.6383 30.7192 23.3622 29.9953 23.3622 29.1024C23.3622 28.2094 22.6383 27.4856 21.7454 27.4856ZM26.5957 27.4856C25.7027 27.4856 24.9789 28.2094 24.9789 29.1024C24.9789 29.9953 25.7027 30.7192 26.5957 30.7192C27.4886 30.7192 28.2125 29.9953 28.2125 29.1024C28.2125 28.2094 27.4886 27.4856 26.5957 27.4856Z" fill="#6DC54A"/>
<path d="M33.0628 29.1021C33.0628 29.9951 32.3389 30.7189 31.446 30.7189C30.553 30.7189 29.8292 29.9951 29.8292 29.1021C29.8292 28.2092 30.553 27.4854 31.446 27.4854C32.3389 27.4854 33.0628 28.2092 33.0628 29.1021ZM36.2963 27.4854C35.4033 27.4854 34.6795 28.2092 34.6795 29.1021C34.6795 29.9951 35.4033 30.7189 36.2963 30.7189C37.1892 30.7189 37.9131 29.9951 37.9131 29.1021C37.9131 28.2092 37.1892 27.4854 36.2963 27.4854ZM16.8951 33.9524C16.0021 33.9524 15.2783 34.6762 15.2783 35.5692C15.2783 36.4621 16.0021 37.186 16.8951 37.186C17.788 37.186 18.5119 36.4621 18.5119 35.5692C18.5119 34.6762 17.788 33.9524 16.8951 33.9524ZM21.7454 33.9524C20.8524 33.9524 20.1286 34.6762 20.1286 35.5692C20.1286 36.4621 20.8524 37.186 21.7454 37.186C22.6383 37.186 23.3622 36.4621 23.3622 35.5692C23.3622 34.6762 22.6383 33.9524 21.7454 33.9524ZM26.5957 33.9524C25.7027 33.9524 24.9789 34.6762 24.9789 35.5692C24.9789 36.4621 25.7027 37.186 26.5957 37.186C27.4886 37.186 28.2125 36.4621 28.2125 35.5692C28.2125 34.6762 27.4886 33.9524 26.5957 33.9524ZM16.8951 40.4195C16.0021 40.4195 15.2783 41.1433 15.2783 42.0363C15.2783 42.9292 16.0021 43.653 16.8951 43.653C17.788 43.653 18.5119 42.9292 18.5119 42.0363C18.5119 41.1433 17.788 40.4195 16.8951 40.4195ZM21.7454 40.4195C20.8524 40.4195 20.1286 41.1433 20.1286 42.0363C20.1286 42.9292 20.8524 43.653 21.7454 43.653C22.6383 43.653 23.3622 42.9292 23.3622 42.0363C23.3622 41.1433 22.6383 40.4195 21.7454 40.4195ZM26.5957 40.4195C25.7027 40.4195 24.9789 41.1433 24.9789 42.0363C24.9789 42.9292 25.7027 43.653 26.5957 43.653C27.4886 43.653 28.2125 42.9292 28.2125 42.0363C28.2125 41.1433 27.4886 40.4195 26.5957 40.4195Z" fill="#A7D0FC"/>
<path d="M31.2035 5.2545H27C26.3303 5.2545 25.7874 4.71159 25.7874 4.04192C25.7874 3.37226 26.3303 2.82935 27 2.82935H31.2035C31.8732 2.82935 32.4161 3.37226 32.4161 4.04192C32.4161 4.71159 31.8732 5.2545 31.2035 5.2545ZM23.5239 4.04192C23.5239 3.37226 22.981 2.82935 22.3113 2.82935C21.6417 2.82935 21.0988 3.37226 21.0988 4.04192C21.0988 4.71159 21.6417 5.2545 22.3113 5.2545C22.981 5.2545 23.5239 4.71159 23.5239 4.04192ZM29.0209 74.3713H24.1706C22.9967 74.3713 22.0176 75.2055 21.7936 76.3133C23.9895 77.4919 26.3094 78.4696 28.7286 79.2216H29.0209C30.3602 79.2216 31.4461 78.1357 31.4461 76.7964C31.4461 75.4571 30.3602 74.3713 29.0209 74.3713Z" fill="#19305C"/>
<path d="M30.1532 14.2281H16.5718C15.8575 14.2281 15.2783 13.6489 15.2783 12.9346C15.2783 12.2203 15.8575 11.6411 16.5718 11.6411H30.1532C30.8676 11.6411 31.4467 12.2203 31.4467 12.9346C31.4467 13.6489 30.8676 14.2281 30.1532 14.2281Z" fill="#5DB33A"/>
<path d="M23.5242 59.821H19.3204C17.088 59.821 15.2783 58.0113 15.2783 55.7789C15.2783 53.5465 17.088 51.7368 19.3204 51.7368H23.5242C25.7566 51.7368 27.5663 53.5465 27.5663 55.7789C27.5663 58.0113 25.7566 59.821 23.5242 59.821Z" fill="#C50048"/>
<path d="M33.8718 59.821H24.1708C21.9384 59.821 20.1287 58.0113 20.1287 55.7789C20.1287 53.5465 21.9384 51.7368 24.1708 51.7368H33.8718C36.1042 51.7368 37.9139 53.5465 37.9139 55.7789C37.9139 58.0113 36.1042 59.821 33.8718 59.821Z" fill="#F44545"/>
<path d="M75.0987 60.6897C68.3246 72.8074 55.369 81.0002 40.4999 81.0002C37.3849 81.0002 34.3538 80.6406 31.446 79.9608V37.1858H75.0987V60.6897Z" fill="#FFE1AA"/>
<path d="M28.2125 37.1858H34.6796V80.5756C32.4586 80.2485 30.2975 79.7371 28.2125 79.0575V37.1858Z" fill="#FFD993"/>
<path d="M34.7001 46.8872H28.2125V34.761C28.2125 33.4216 29.2984 32.3357 30.6378 32.3357H37.1051C38.4445 32.3357 39.5304 33.4216 39.5304 34.761V42.0569C39.5304 44.7247 37.3679 46.8872 34.7001 46.8872Z" fill="#C50048"/>
<path d="M75.0987 46.8866H34.6796V34.7608C34.6796 33.4215 35.7654 32.3357 37.1047 32.3357H72.6736C74.0129 32.3357 75.0987 33.4215 75.0987 34.7608V46.8866Z" fill="#F44545"/>
<path d="M39.5299 30.7188V40.4194C39.5299 41.3124 38.8061 42.0362 37.9132 42.0362C37.0202 42.0362 36.2964 41.3124 36.2964 40.4194V30.7188C36.2964 29.8259 37.0202 29.1021 37.9132 29.1021C38.8061 29.1021 39.5299 29.8259 39.5299 30.7188ZM67.015 29.1021C66.122 29.1021 65.3982 29.8259 65.3982 30.7188V40.4194C65.3982 41.3124 66.122 42.0362 67.015 42.0362C67.9079 42.0362 68.6317 41.3124 68.6317 40.4194V30.7188C68.6317 29.8259 67.9079 29.1021 67.015 29.1021Z" fill="#FFC14F"/>
<path d="M63.7814 62.2456C63.7814 68.9424 58.3525 74.3714 51.6557 74.3714C44.9588 74.3714 39.5299 68.9424 39.5299 62.2456C39.5299 55.5488 44.9588 50.1199 51.6557 50.1199C58.3525 50.1199 63.7814 55.5488 63.7814 62.2456Z" fill="#82CD64"/>
<path d="M62.581 67.5127C60.6208 71.5718 56.4652 74.3719 51.6557 74.3719C44.9588 74.3719 39.5299 68.9429 39.5299 62.2461C39.5299 57.4365 42.33 53.281 46.389 51.3208C45.6198 52.9136 45.1886 54.7002 45.1886 56.5874C45.1886 63.2842 50.6175 68.7132 57.3143 68.7132C59.2016 68.7132 60.9883 68.282 62.581 67.5127Z" fill="#6DC54A"/>
<path d="M66.2805 52.5686L51.9883 67.7279C51.7592 67.9709 51.4401 68.1087 51.106 68.1087C50.772 68.1087 50.4529 67.9709 50.2238 67.7279L43.498 60.5942C43.0387 60.1069 43.0612 59.3395 43.5485 58.8801C44.0357 58.421 44.8032 58.4435 45.2625 58.9306L51.106 65.1285L64.516 50.905C64.9755 50.4177 65.7428 50.395 66.2301 50.8545C66.7174 51.3138 66.7398 52.0813 66.2805 52.5686Z" fill="#FFF5F5"/>
</g>
<defs>
<clipPath id="clip0_2003_4429">
<rect width="81" height="81" fill="white"/>
</clipPath>
</defs>
</svg>
