<svg width="81" height="81" viewBox="0 0 81 81" fill="none" xmlns="http://www.w3.org/2000/svg">
<g clip-path="url(#clip0_2003_4179)">
<path d="M73.4553 62.3311C77.0134 56.4722 79.0625 49.5953 79.0625 42.2398C79.0625 30.4015 73.7533 19.8047 65.3883 12.6951H15.2164C6.85144 19.8047 1.5423 30.4015 1.5423 42.2398C1.5423 49.5953 3.59134 56.4722 7.14949 62.3311H73.4553Z" fill="#7D62EE"/>
<path d="M26.0161 8.67505H11.9253C9.29866 8.67505 7.14948 10.8241 7.14948 13.4509V62.3315C9.01437 65.4021 11.2955 68.1911 13.9117 70.6247L34.2196 21.8263L26.0161 8.67505Z" fill="#4A3279"/>
<path d="M26.0162 8.67505L27.3077 17.1886C27.3077 17.1886 27.6129 18.0619 28.3791 18.8747L60.051 21.8263L60.4249 8.67521L26.0162 8.67505Z" fill="#5B4982"/>
<path d="M67.5232 50.1807V35.9969L55.9285 30.896L58.0335 50.1807H67.5232Z" fill="#5B4982"/>
<path d="M62.7471 8.67505H60.4251C60.4251 8.67505 54.9565 12.2814 58.8246 18.8746L56.2455 29.1461L60.7605 35.9967C60.7605 35.9967 64.39 40.1885 67.5227 35.9967V13.4507C67.5227 10.8241 65.3737 8.67505 62.7471 8.67505Z" fill="#6C618C"/>
<path d="M37.3363 0C34.7259 0 32.59 2.13584 32.59 4.74631V5.31365L37.3362 8.07885L42.0826 5.31349V4.74631C42.0826 2.13584 39.9468 0 37.3363 0Z" fill="#FFC242"/>
<path d="M36.0001 5.31323H25.5065C23.8696 5.31323 22.5304 6.65248 22.5304 8.28933V11.8298C22.5304 13.4666 23.8696 14.8058 25.5065 14.8058H36.0003L38.9366 10.0595L36.0001 5.31323Z" fill="#FFC242"/>
<path d="M46.1146 5.31323H35.9995C35.9992 5.31339 34.2196 6.35853 34.2196 8.47744V11.6416C34.2196 11.6416 34.2416 14.1368 35.9995 14.8058H46.1146L48.6922 9.18606L46.1146 5.31323Z" fill="#FEF156"/>
<path d="M52.1424 11.8298V8.28933C52.1424 6.65248 50.8031 5.31323 49.1663 5.31323H46.1144C46.1141 5.31339 44.3345 6.35853 44.3345 8.47744V11.6416C44.3345 11.6416 44.3565 14.1368 46.1144 14.8058H49.1663C50.8031 14.806 52.1424 13.4666 52.1424 11.8298Z" fill="#FFFBB3"/>
<path d="M31.5322 20.2439C30.3112 20.2439 29.1331 19.7565 28.265 18.8745H15.8478C14.7831 18.8745 13.9119 19.7457 13.9119 20.8104V70.6245C17.6975 74.1459 22.1891 76.9172 27.1497 78.7074L43.2206 33.8L31.5322 20.2439Z" fill="#BBF0F9"/>
<path d="M58.8246 18.8743H46.4074C45.5757 19.7192 44.4194 20.2437 43.1402 20.2437H31.5325C31.5325 20.2437 30.7027 25.4147 34.5953 26.5221L37.336 33.7999L31.7735 41.9177C31.7735 41.9177 27.1497 44.559 27.1497 49.9371V78.7072C31.2566 80.1894 35.6844 80.9998 40.3025 80.9998C47.8127 80.9998 54.8224 78.8616 60.7605 75.164V20.8102C60.7605 19.7455 59.8893 18.8743 58.8246 18.8743Z" fill="#E8F8FC"/>
<path d="M41.611 28.7666C41.611 31.1274 39.6971 33.8002 37.3363 33.8002C34.9755 33.8002 33.0616 31.1274 33.0616 28.7666C33.0616 26.4058 34.9755 24.4919 37.3363 24.4919C39.6971 24.4919 41.611 26.4058 41.611 28.7666Z" fill="#FFDACA"/>
<path d="M37.3363 33.8003C35.6452 33.8003 33.9539 33.8003 33.4845 33.8003C31.5457 33.8003 29.8701 35.1541 29.4627 37.0498L29.1951 38.9065C28.9735 40.4446 30.1325 41.9184 31.7733 41.9184H34.5952L38.1348 37.5331L37.3363 33.8003Z" fill="#02C0FC"/>
<path d="M45.2098 37.0498C44.8025 35.1543 43.1268 33.8003 41.1879 33.8003C40.7201 33.8003 39.028 33.8003 37.3361 33.8003C37.3356 33.8005 35.4194 34.5426 35.2052 36.6841C34.991 38.8258 34.595 41.9184 34.595 41.9184C45.6157 41.9184 42.2845 41.9226 42.9312 41.9182C44.5113 41.9076 45.7026 40.4704 45.4773 38.9065L45.2098 37.0498Z" fill="#2FD0E2"/>
<path d="M43.1409 21.8266H31.5326C28.132 21.8266 25.3655 19.0601 25.3655 15.6594V13.2598C25.3655 12.3862 26.0738 11.6777 26.9476 11.6777C27.8214 11.6777 28.5297 12.3862 28.5297 13.2598V15.6594C28.5297 17.3152 29.8769 18.6622 31.5326 18.6622H43.1409C44.0146 18.6622 44.723 19.3707 44.723 20.2443C44.723 21.1181 44.0146 21.8266 43.1409 21.8266Z" fill="#A188F6"/>
<path d="M40.3028 11.6415H34.3699C33.4961 11.6415 32.7878 10.933 32.7878 10.0594C32.7878 9.18576 33.4961 8.47729 34.3699 8.47729H40.3028C41.1765 8.47729 41.8849 9.18576 41.8849 10.0594C41.8849 10.933 41.1765 11.6415 40.3028 11.6415Z" fill="#FD8D3E"/>
<path d="M43.1402 21.8266C42.2666 21.8266 41.5581 21.1181 41.5581 20.2445C41.5581 19.3709 42.2666 18.6624 43.1402 18.6624C44.796 18.6624 46.143 17.3152 46.143 15.6596V13.2598C46.143 12.3862 46.8515 11.6777 47.7251 11.6777C48.5988 11.6777 49.3072 12.3862 49.3072 13.2598V15.6594C49.3072 19.0601 46.5408 21.8266 43.1402 21.8266Z" fill="#C5AEFF"/>
<path d="M38.4642 59.6963H22.7476C21.9362 59.6963 21.2783 60.3541 21.2783 61.1656C21.2783 61.9771 21.9362 62.6349 22.7476 62.6349H38.4642C39.2757 62.6349 39.9335 61.9771 39.9335 61.1656C39.9334 60.3541 39.2757 59.6963 38.4642 59.6963Z" fill="#FC51A3"/>
<path d="M38.4642 65.9351H22.7476C21.9362 65.9351 21.2783 66.5929 21.2783 67.4044C21.2783 68.2158 21.9362 68.8737 22.7476 68.8737H38.4642C39.2757 68.8737 39.9335 68.2158 39.9335 67.4044C39.9334 66.5929 39.2757 65.9351 38.4642 65.9351Z" fill="#FC51A3"/>
<path d="M50.6588 59.6963H45.5403C44.7289 59.6963 44.071 60.3541 44.071 61.1656C44.071 61.9771 44.7289 62.6349 45.5403 62.6349H50.6588C51.4702 62.6349 52.1281 61.9771 52.1281 61.1656C52.1281 60.3541 51.4702 59.6963 50.6588 59.6963Z" fill="#FC51A3"/>
<path d="M50.6588 65.9351H45.5403C44.7289 65.9351 44.071 66.5929 44.071 67.4044C44.071 68.2158 44.7289 68.8737 45.5403 68.8737H50.6588C51.4702 68.8737 52.1281 68.2158 52.1281 67.4044C52.1281 66.5929 51.4702 65.9351 50.6588 65.9351Z" fill="#FC51A3"/>
<path d="M50.6588 72.1736H45.5403C44.7289 72.1736 44.071 72.8314 44.071 73.6429C44.071 74.4543 44.7289 75.1122 45.5403 75.1122H50.6588C51.4702 75.1122 52.1281 74.4543 52.1281 73.6429C52.1281 72.8314 51.4702 72.1736 50.6588 72.1736Z" fill="#FC51A3"/>
<path d="M50.6588 47.2415H45.5403C44.7289 47.2415 44.071 47.8993 44.071 48.7108C44.071 49.5222 44.7289 50.1801 45.5403 50.1801H50.6588C51.4702 50.1801 52.1281 49.5222 52.1281 48.7108C52.1281 47.8993 51.4702 47.2415 50.6588 47.2415Z" fill="#FC51A3"/>
<path d="M50.6588 53.4802H45.5403C44.7289 53.4802 44.071 54.1381 44.071 54.9495C44.071 55.761 44.7289 56.4188 45.5403 56.4188H50.6588C51.4702 56.4188 52.1281 55.761 52.1281 54.9495C52.1281 54.1381 51.4702 53.4802 50.6588 53.4802Z" fill="#FC51A3"/>
<path d="M38.4643 47.2415H22.7477C21.9363 47.2415 21.2784 47.8993 21.2784 48.7108C21.2784 49.5222 21.9363 50.1801 22.7477 50.1801H38.4643C39.2758 50.1801 39.9336 49.5222 39.9336 48.7108C39.9335 47.8993 39.2758 47.2415 38.4643 47.2415Z" fill="#FC51A3"/>
<path d="M38.4642 53.4802H22.7476C21.9362 53.4802 21.2783 54.1381 21.2783 54.9495C21.2783 55.761 21.9362 56.4188 22.7476 56.4188H38.4642C39.2757 56.4188 39.9335 55.761 39.9335 54.9495C39.9334 54.1381 39.2757 53.4802 38.4642 53.4802Z" fill="#FC51A3"/>
<path d="M38.4642 72.1736H22.7476C21.9362 72.1736 21.2783 72.8314 21.2783 73.6429C21.2783 74.4543 21.9362 75.1122 22.7476 75.1122H38.4642C39.2757 75.1122 39.9335 74.4543 39.9335 73.6429C39.9334 72.8314 39.2757 72.1736 38.4642 72.1736Z" fill="#FC51A3"/>
<path d="M60.7861 46.2937C54.038 47.8555 49.0081 53.9036 49.0081 61.1267C49.0081 69.5352 55.8244 76.3515 64.2329 76.3515C65.6684 76.3515 67.0573 76.1525 68.374 75.7812L71.4786 60.8414L60.7861 46.2937Z" fill="#27A6FF"/>
<path d="M79.1168 57.9132L72.2202 53.1391L70.7608 47.3691C68.7823 46.4286 66.5692 45.9016 64.2329 45.9016C63.0475 45.9016 61.8937 46.0372 60.7861 46.2935C60.7845 46.2963 58.3249 50.9837 62.4139 53.1389L66.0519 69.1138C66.0519 69.1138 64.2462 73.6318 68.374 75.781C74.77 73.9773 79.4577 68.0994 79.4577 61.1264C79.4577 60.0241 79.3394 58.9493 79.1168 57.9132Z" fill="#02C0FC"/>
<path d="M67.3163 64.1849C67.1337 64.3608 67.0198 64.6074 67.0198 64.881V68.1472C67.0198 68.6815 66.5866 69.1147 66.0524 69.1147H62.4142C61.8799 69.1147 61.4467 68.6815 61.4467 68.1472V64.881C61.4467 64.3467 61.0135 63.9135 60.4792 63.9135H57.213C56.6787 63.9135 56.2455 63.4803 56.2455 62.9461V59.308C56.2455 58.7737 56.6787 58.3406 57.213 58.3406H60.4792C61.0135 58.3406 61.4467 57.9074 61.4467 57.3731V54.1069C61.4467 53.5726 61.8799 53.1394 62.4142 53.1394H66.0524C66.5866 53.1394 67.0198 53.5726 67.0198 54.1069V57.3731C67.0198 57.6467 67.1339 57.8931 67.3163 58.0692L66.2913 60.7042L67.3163 64.1849Z" fill="#BBF0F9"/>
<path d="M71.2531 58.3399H67.9868C67.7261 58.3399 67.4899 58.2363 67.3158 58.0686C65.9321 58.3997 64.9023 59.6414 64.9023 61.1265C64.9023 62.6116 65.9323 63.8532 67.3158 64.1844C67.4899 64.0167 67.7261 63.913 67.9868 63.913H71.2531C71.7873 63.913 72.2205 63.4799 72.2205 62.9456V59.3075C72.2205 58.7731 71.7873 58.3399 71.2531 58.3399Z" fill="#E8F8FC"/>
<path d="M79.1171 57.9135C78.1137 53.2436 74.9691 49.3693 70.7608 47.3689C69.9596 48.5571 69.2633 50.408 70.2124 52.7079C71.5306 55.9016 74.8059 59.3815 79.1171 57.9135Z" fill="#2FD0E2"/>
<path d="M57.027 24.9204C57.027 23.6581 56.0037 22.6348 54.7413 22.6348H50.9773C49.715 22.6348 48.6917 23.6581 48.6917 24.9204C48.6917 26.1828 49.715 27.2061 50.9773 27.2061H54.7413C56.0037 27.2061 57.027 26.1826 57.027 24.9204Z" fill="#FC51A3"/>
</g>
<defs>
<clipPath id="clip0_2003_4179">
<rect width="81" height="81" fill="white"/>
</clipPath>
</defs>
</svg>
