<svg width="587" height="810" viewBox="0 0 587 810" fill="none" xmlns="http://www.w3.org/2000/svg">
<g opacity="0.1">
<mask id="mask0_2003_5192" style="mask-type:alpha" maskUnits="userSpaceOnUse" x="49" y="52" width="762" height="706">
<ellipse cx="429.654" cy="405.056" rx="351.812" ry="381.13" transform="rotate(-98.4691 429.654 405.056)" fill="#9090BF"/>
</mask>
<g mask="url(#mask0_2003_5192)">
<path d="M853.897 1106.59C848.238 1107.43 842.614 1108.27 837.026 1109.1C789.673 1046.46 747.139 981.659 708.901 914.768C667.334 842.065 632.786 766.869 597.819 691.735C582.668 659.043 566.694 626.576 548.819 595.013C528.635 559.451 498.395 530.453 456.68 509.988C427.097 495.471 394.584 486.457 360.891 479.583C318.377 471.024 274.759 466.559 231.32 461.136C175.782 454.309 120.304 447.164 63.8565 444.299C11.9458 441.688 -39.8452 439.164 -91.5772 435.596C-139.192 432.346 -186.344 426.442 -231.391 414.538C-309.774 393.846 -362.722 352.616 -387.184 288.326C-398.274 259.165 -404.589 228.983 -407.88 198.247C-413.978 142.906 -418.594 87.4483 -424.692 32.1079C-434.323 -56.3107 -451.528 -143.084 -483.104 -227.098C-487.306 -238.053 -492.121 -248.813 -496.623 -259.62C-500.097 -282.953 -503.571 -306.286 -507.046 -329.619C-502.576 -321.186 -497.808 -312.9 -493.743 -304.303C-454.908 -223.335 -430.413 -138.68 -415.244 -51.9135C-405.508 3.40213 -398.407 59.0067 -390.452 114.588C-384.681 155.501 -379.12 196.446 -366.658 236.259C-357.049 266.985 -343.189 296.044 -320.139 321.357C-289.911 354.596 -249.047 376.532 -201.273 390.925C-157.632 404.176 -111.676 411.395 -64.8099 415.377C-13.6163 419.645 38.0246 421.882 89.084 426.687C162.828 433.491 236.244 441.688 309.719 449.566C349.893 453.924 389.47 460.025 427.464 470.601C482.216 485.816 525 512.74 553.109 553.325C563.168 567.648 572.569 582.585 579.485 598.098C600.083 644.352 619.453 690.995 639.243 737.576C678.267 829.166 723.771 918.24 780.411 1002.97C803.739 1038.06 829.372 1072.09 853.897 1106.59V1106.59Z" fill="#A5C1FF"/>
<path d="M867.789 1076.93C869.025 1085.22 870.05 1093.55 871.704 1101.78C872.201 1104.39 870.434 1104.04 868.667 1104.4C867.947 1103.17 867.422 1101.8 866.613 1100.68C795.954 1011.01 737.658 915.875 690.826 815.728C660.93 751.627 636.571 685.874 612.213 620.121C601.708 592.01 590.484 564.109 573.542 538.094C547.44 498.037 508.248 470.061 455.143 454.394C429.279 446.871 402.744 441.31 375.267 438.06C333.206 433.259 290.831 429.229 248.531 424.981C186.78 418.873 125.029 412.765 63.1891 406.773C21.2485 402.782 -20.9757 399.763 -62.8121 395.033C-106.505 390.061 -148.57 380.919 -188.334 366.367C-258.891 340.683 -307.663 298.728 -332.479 239.247C-341.137 218.513 -348.806 197.217 -353.647 175.501C-362.922 133.352 -370.551 90.7502 -377.64 48.172C-390.705 -29.4989 -404.728 -107.131 -427.897 -182.883C-445.061 -239.161 -466.011 -294.255 -494.535 -346.979C-487.129 -348.082 -479.724 -349.185 -472.319 -350.287C-471.434 -348.661 -470.549 -347.035 -469.649 -345.308C-431.927 -269.654 -406.225 -190.557 -387.228 -109.736C-373.897 -52.5778 -362.736 5.1107 -350.753 62.5732C-342.272 103.703 -333.881 144.951 -319.367 184.872C-308.186 215.364 -293.472 244.399 -271.171 270.444C-240.341 306.282 -198.128 330.809 -148.988 348.617C-105.031 364.716 -57.9953 373.429 -9.85504 378.772C46.7602 384.921 103.51 390.533 160.304 395.725C225.692 401.809 291.201 407.254 356.559 413.135C397.272 416.792 437.611 421.539 476.039 432.154C526.088 446.002 564.005 471.168 589.057 508.487C604.334 531.235 614.911 555.509 623.362 580.617C640.34 630.615 655.791 681.151 674.012 730.86C718.557 852.337 781.901 966.259 863.848 1072.76C865.032 1074.24 866.515 1075.57 867.789 1076.93Z" fill="#A5C1FF"/>
<path d="M859.26 1019.67C860.766 1029.79 862.272 1039.9 863.779 1050.02C862.609 1048.64 861.261 1047.5 860.197 1046.1C824.191 997.802 792.315 947.748 764.137 895.902C712.578 801.422 677.65 702.088 651.134 600.26C643.547 570.887 635.556 541.678 622.4 513.755C611.9 491.434 598.302 470.608 578.328 453.006C552.451 430.286 519.396 416.906 482.392 408.664C444.834 400.298 406.083 396.142 366.824 394.336C251.444 389.182 137.973 375.989 24.3381 363.131C-25.9883 357.493 -75.09 348.571 -120.965 331.827C-166.495 315.238 -206.64 293.092 -237.9 261.557C-261.967 237.327 -278.82 209.747 -291.872 180.361C-310.625 137.865 -321.429 93.3588 -331.919 48.8055C-346.678 -14.3444 -360.808 -77.5878 -376.51 -140.597C-390.168 -194.915 -407.673 -248.454 -429.279 -300.761C-436.616 -318.383 -444.567 -335.811 -452.308 -353.27C-445.252 -354.321 -438.196 -355.371 -431.14 -356.422C-430.66 -355.356 -429.986 -354.423 -429.506 -353.357C-393.412 -273.531 -368.439 -190.706 -346.775 -107.077C-331.752 -49.3438 -317.672 8.5302 -302.454 66.1316C-292.899 102.242 -280.456 137.613 -263.103 171.425C-240.651 215.024 -208.413 252.41 -161.465 280.678C-116.629 307.71 -65.6486 324.934 -10.6171 334.835C73.0308 349.883 158.395 359.196 244.177 366.276C295.266 370.559 347.13 371.419 398.607 373.99C436.698 375.867 474.61 378.7 511.328 386.468C569.94 398.834 611.468 426.668 635.044 471.341C648.452 496.641 656.605 523.345 663.112 550.5C671.318 585.467 678.491 620.692 687.326 655.566C716.79 772.154 766.146 882.058 835.079 985.324C842.8 996.893 851.225 1008.15 859.26 1019.67Z" fill="#A5C1FF"/>
<path d="M-411.12 -359.4C-404.064 -360.45 -397.008 -361.501 -389.952 -362.552C-389.457 -361.385 -388.962 -360.218 -388.467 -359.051C-364.369 -299.359 -344.701 -238.491 -326.905 -177.241C-308.928 -115.501 -291.685 -53.6522 -273.305 7.92431C-261.291 48.3218 -246.419 87.7767 -226.622 125.774C-183.113 209.355 -107.634 264.498 0.443269 291.108C37.4776 300.277 75.5278 306.915 113.772 312.698C176.124 322.128 238.76 330.586 303.126 331.239C355.814 331.872 408.471 331.58 461.128 332.011C498.125 332.292 534.853 333.648 570.567 340.427C608.932 347.743 640.926 362.624 662.585 389.385C672.027 401.007 678.971 413.828 684.283 427.203C696.197 456.862 701.48 488.025 705.386 519.29C711.115 564.242 715.257 609.327 724.565 653.85C746.368 759.274 787.615 858.598 846.973 952.227C847.692 953.464 848.801 954.437 849.716 955.541C851.433 967.073 853.15 978.604 854.867 990.136C853.952 989.032 852.829 987.958 852.019 986.838C842.574 972.321 832.934 957.937 823.893 943.256C778.626 869.449 743.867 792.114 719.929 711.202C705.573 662.985 695.468 613.825 687.669 564.321C682.413 530.465 676.005 496.781 663.28 464.555C654.532 442.49 642.581 421.935 623.416 404.73C599.052 382.818 567.27 370.8 531.466 364.137C494.778 357.296 456.942 355.692 419.061 354.508C369.248 353.033 319.225 352.313 269.426 350.215C205.268 347.361 142.795 337.845 79.9345 329.317C40.4631 323.924 1.51432 317.005 -36.2247 306.701C-136.173 279.294 -206.544 226.803 -246.35 147.944C-263.854 113.12 -277.256 77.0653 -287.679 40.1534C-306.364 -26.3409 -324.015 -93.0924 -342.505 -159.719C-357.916 -215.017 -375.482 -269.684 -396.775 -323.485C-401.457 -335.506 -406.333 -347.395 -411.12 -359.4Z" fill="#A5C1FF"/>
<path d="M-370.987 -365.369C-363.582 -366.472 -356.176 -367.574 -348.771 -368.677C-348.59 -367.463 -348.395 -366.148 -348.004 -364.965C-325.813 -295.064 -303.727 -225.147 -281.342 -155.378C-264.887 -103.855 -248.85 -52.2687 -231.258 -1.01798C-218.108 36.9356 -200.873 73.5571 -178.653 108.402C-135.203 176.482 -69.6723 224.524 20.6178 250.371C56.4254 260.652 93.3085 268.085 130.625 274.833C188.637 285.324 247.184 292.943 307.642 293.247C361.348 293.522 415.245 290.77 469.097 287.714C509.79 285.481 550.631 282.811 591.207 284.111C613.157 284.772 634.718 286.421 655.728 290.841C695.352 299.416 721.152 319.46 733.517 350.706C737.808 361.544 740.903 372.974 743.129 384.326C750.695 423.628 750.251 463.813 750.541 503.888C750.922 545.294 751.423 586.785 756.79 627.862C766.815 704.538 788.949 778.377 822.55 849.371C827.44 859.913 833.243 870.113 838.553 880.592C840.641 894.619 842.73 908.646 844.819 922.673C844.009 921.553 842.975 920.363 842.255 919.126C830.497 896.991 818.036 875.169 807.191 852.692C762.042 758.809 736.607 660.646 729.718 558.274C727.199 520.495 723.633 482.872 719.542 445.328C717.188 424.482 711.375 404.151 702.255 384.622C686.324 350.288 656.36 328.177 612.004 318.754C586.337 313.271 559.819 310.705 532.854 310.894C485.842 310.967 438.815 311.662 391.654 312.894C308.755 315.105 226.72 312.327 146.397 298.748C97.4008 290.534 48.2553 282.755 1.26066 269.28C-69.2463 248.966 -127.024 215.59 -169.319 166.053C-195.818 134.843 -214.863 100.456 -230.271 64.5961C-253.661 10.3829 -269.432 -45.8955 -286.43 -101.784C-308.368 -173.584 -330.53 -245.454 -353.097 -317.161C-358.202 -333.462 -364.954 -349.31 -370.987 -365.369Z" fill="#A5C1FF"/>
<path d="M-408.39 332.946C-407.865 333.592 -407.131 334.207 -406.801 334.985C-380.808 386.535 -332.689 418.351 -267.471 434.8C-227.861 444.722 -186.518 449.733 -144.819 452.106C-86.9032 455.477 -28.8686 458.209 29.255 460.101C95.6885 462.41 160.883 469.349 225.766 478.507C268.756 484.513 312.15 489.632 353.976 499.328C389.138 507.43 422.55 518.172 452.165 535.062C488.686 555.887 515.107 583.696 535.288 615.64C558.962 653.06 578.086 692.295 597.3 731.414C637.258 812.732 678.414 893.458 726.873 971.442C755.601 1017.62 786.034 1063.03 818.668 1107.39C819.613 1108.7 820.363 1110.14 821.202 1111.46C815.543 1112.3 809.92 1113.14 804.331 1113.97C803.626 1112.84 802.921 1111.7 802.127 1110.68C779.37 1077.26 755.998 1044.03 733.944 1010.3C681.411 930.131 636.33 846.784 592.253 762.978C569.831 720.305 547.201 677.662 519.736 637.084C503.679 613.419 484.9 591.606 460.614 573.095C426.933 547.608 386.405 531.516 342.212 520.311C304.473 510.731 265.256 504.887 226.129 498.926C165.618 489.634 104.973 481.604 42.643 480.235C-20.8702 478.835 -84.3532 477.638 -147.822 475.818C-193.443 474.442 -238.916 471.907 -283.48 464.688C-324.09 458.12 -361.411 446.306 -392.318 424.335C-393.037 423.822 -394.041 423.558 -394.954 423.177C-399.433 393.1 -403.911 363.023 -408.39 332.946Z" fill="#A5C1FF"/>
<path d="M750.44 288.826C748.072 286.835 745.71 284.877 743.352 282.954C732.28 274.056 718.8 268.411 703.885 264.635C676.509 257.751 647.791 256.237 618.866 257.649C574.401 259.72 529.981 262.819 485.502 266.237C429.39 270.662 373.248 274.886 317.178 275.273C252.454 275.812 190.012 267.221 128.451 255.191C92.1672 248.186 56.3766 240.177 21.9306 228.969C-58.538 202.901 -117.419 157.798 -158.601 97.0318C-184.147 59.2697 -203.527 19.0384 -218.192 -22.6186C-236.88 -76.1878 -254.131 -130.178 -271.367 -184.066C-290.944 -245.051 -309.699 -306.262 -328.768 -367.426C-329.173 -368.709 -329.489 -370.11 -329.805 -371.511C-322.749 -372.561 -315.728 -373.607 -308.742 -374.647C-308.247 -373.48 -307.751 -372.313 -307.346 -371.029C-294.442 -328.489 -281.568 -285.911 -268.724 -243.293C-248.543 -176.815 -228.96 -110.041 -203.509 -44.8641C-187.002 -2.34402 -167.651 39.1323 -141.086 77.9834C-100.998 136.431 -45.127 181.465 32.1527 207.698C100.851 230.97 173.448 245.183 248.435 252.422C309.392 258.235 371.15 255.036 432.785 248.857C492.219 243.006 551.562 235.824 610.936 229.568C654.501 225.046 698.007 221.566 741.146 226.413C744.239 247.184 747.337 267.988 750.44 288.826Z" fill="#A5C1FF"/>
<path d="M-381.534 513.306C-383.582 499.548 -385.631 485.791 -387.679 472.034C-374.935 475.617 -362.519 479.869 -349.446 482.782C-316.096 490.224 -281.448 493.44 -246.547 494.033C-178.228 495.338 -109.879 496.121 -41.5313 496.18C41.0702 496.288 122.865 498.895 202.785 513.361C243.396 520.653 284.634 526.403 324.2 536.745C368.887 548.393 409.896 564.827 444.324 590.306C470.708 609.953 490.701 633.445 508.555 658.394C537.892 699.314 562.081 742.345 585.985 785.625C638.007 879.622 691.45 973.098 752.647 1063.25C764.715 1080.99 777.188 1098.57 789.555 1116.17C783.547 1117.07 777.539 1117.96 771.531 1118.86C770.766 1117.31 770.106 1115.76 769.147 1114.35C745.819 1079.26 721.383 1044.64 699.462 1008.92C654.631 935.877 611.101 862.225 567.078 788.854C542.682 748.025 517.193 707.773 487.784 669.242C444.014 611.963 382.16 573.507 301.592 553.967C272.929 547.068 243.564 541.204 214.258 535.745C163.225 526.076 111.609 518.252 58.3362 516.568C-13.6519 514.363 -85.8458 516.53 -158.055 517.873C-232.915 519.404 -308.042 523.456 -381.534 513.306Z" fill="#A5C1FF"/>
<path d="M-372.738 572.38C-374.164 562.804 -375.59 553.228 -377.015 543.652C-375.428 543.519 -373.842 543.387 -372.24 543.355C-335.139 542.897 -298.038 543.163 -260.848 541.865C-181.663 539.173 -102.508 535.555 -23.3677 532.56C87.7069 528.222 193.081 545.309 295.41 572.879C348.529 587.2 395.472 609.678 433.007 643.07C459.424 666.537 481.441 692.831 501.483 720.245C534.792 765.537 563.206 813.212 591.8 860.653C644.61 948.432 698.722 1035.6 756.755 1121.06C750.817 1121.94 744.844 1122.83 738.836 1123.72C738.071 1122.18 737.411 1120.63 736.436 1119.12C715.312 1086.59 693.768 1054.13 673.047 1021.44C627.184 949.373 582.128 876.982 536.07 805.051C511.211 766.153 483.464 728.719 451.049 693.737C408.562 647.951 355.141 613.616 287.688 593.674C265.853 587.309 243.63 581.933 221.376 576.354C137.483 555.345 50.4887 548.033 -39.0867 551.444C-110.142 554.063 -181.166 559.055 -252.114 564.552C-292.341 567.751 -332.525 569.805 -372.738 572.38Z" fill="#A5C1FF"/>
<path d="M-365.719 619.518C-366.884 611.696 -368.054 603.839 -369.228 595.949C-366.384 595.629 -363.555 595.208 -360.695 594.989C-334.93 592.497 -309.03 590.191 -283.296 587.497C-208.816 579.819 -134.396 571.736 -59.7479 568.789C-7.3471 566.777 44.8899 565.823 96.2793 571.406C152.79 577.571 206.596 590.756 259.791 605.583C329.189 624.924 386.157 657.904 432.012 703.292C461.294 732.33 487.418 763.182 509.576 796.175C549.469 855.479 588.151 915.273 626.937 975.052C659.576 1025.2 691.721 1075.63 724.061 1125.92C718.052 1126.82 712.079 1127.71 706.141 1128.59C697.145 1114.21 688.359 1099.81 679.063 1085.58C629.288 1008.82 579.811 931.921 529.242 855.595C502.166 814.752 472.082 775.288 436.67 738.891C400.285 701.709 358.424 669.478 306.54 646.185C268.645 629.08 227.387 618.162 185.845 607.494C127.949 592.747 68.4283 585.066 6.47387 585.502C-69.9437 585.921 -146.147 592.097 -222.287 601.573C-270.092 607.589 -317.903 613.57 -365.719 619.518Z" fill="#A5C1FF"/>
<path d="M-359.559 660.891C-360.613 653.81 -361.662 646.763 -362.707 639.749C-360.94 639.383 -359.189 638.915 -357.512 638.666C-330.356 634.726 -303.305 630.801 -276.164 626.76C-207.391 616.726 -138.497 607.502 -69.1043 603.787C-21.6896 601.38 25.4421 600.669 72.2784 604.448C114.907 608.027 154.713 618.541 194.862 628.486C287.62 651.483 364.014 692.634 424.076 752.864C460.716 789.595 491.819 829.425 520.736 870.407C577.492 950.878 629.549 1033.6 681.606 1116.32C684.68 1121.14 687.454 1126.1 690.318 1130.95C684.31 1131.84 678.302 1132.74 672.294 1133.63C671.514 1131.99 670.928 1130.22 669.939 1128.61C638.603 1079.3 607.671 1029.83 575.617 980.729C541.044 927.664 504.96 875.238 463.398 825.592C431.998 788.081 397.112 753.054 354.654 723.29C303.822 687.638 244.541 663.585 180.489 645.618C123.266 629.634 64.686 619.641 2.80629 619.859C-48.9972 620.128 -100.709 622.451 -152.267 629.405C-216.729 638.176 -281.055 648.581 -345.382 658.263C-350.098 658.965 -354.768 659.971 -359.559 660.891Z" fill="#A5C1FF"/>
<path d="M-354.166 697.104C-355.09 690.9 -356.009 684.73 -356.923 678.593C-331.878 674.14 -306.849 669.586 -281.789 665.234C-216.76 653.794 -151.625 643.785 -85.7968 639.153C-48.6981 636.524 -11.7625 635.677 25.1298 636.698C80.5282 638.272 131.923 650.368 182.558 665.266C272.519 691.782 348.375 733.634 408.9 792.657C438.091 821.088 464.14 851.434 488.213 882.901C537.528 947.213 581.232 1014.12 623.543 1081.75C634.788 1099.72 645.525 1117.87 656.47 1135.99C650.532 1136.87 644.559 1137.76 638.551 1138.66C608.415 1090.93 579.071 1042.77 547.932 995.501C512.94 942.499 474.686 891.326 430.759 843.066C368.909 775.141 291.486 722.769 193.405 690.638C154.78 677.984 115.902 665.782 74.1094 659.907C12.7459 651.363 -49.5963 653.512 -112.37 659.24C-166.145 664.248 -219.588 672.93 -272.791 682.506C-299.916 687.372 -327.041 692.238 -354.166 697.104Z" fill="#A5C1FF"/>
<path d="M621.679 1141.17C615.322 1142.11 608.965 1143.06 602.607 1144.01C601.962 1142.55 601.422 1141.08 600.582 1139.76C583.639 1111.57 567.309 1083.19 549.572 1055.43C512.48 997.678 471.811 941.799 424.661 889.159C357.61 814.357 272.727 757.202 165.18 721.931C112.927 704.792 59.554 690.923 1.34061 689.147C-43.2028 687.818 -87.7429 690.108 -132.43 695.004C-191.55 701.532 -249.947 712.192 -308.268 723.357C-321.816 725.892 -335.483 728.34 -349.151 730.789C-350.024 724.922 -350.903 719.021 -351.787 713.087C-350.2 712.954 -348.613 712.821 -347.041 712.587C-318.688 707.331 -290.471 701.889 -262.088 696.836C-198.137 685.349 -134.035 675.597 -69.1487 671.829C7.63958 667.426 81.5027 673.592 151.817 696.21C218.627 717.591 281.249 743.939 335.033 782.149C381.506 815.141 419.824 853.793 454.267 895.194C505.226 956.159 548.823 1020.91 589.621 1087C600.746 1104.89 611.063 1123.1 621.679 1141.17Z" fill="#A5C1FF"/>
<path d="M-344.256 763.664C-345.089 758.067 -345.922 752.47 -346.756 746.873C-317.401 741.157 -288.06 735.341 -258.765 729.945C-194.649 718.123 -130.322 708.442 -65.1509 705.872C-14.472 703.806 35.5369 705.872 83.6226 717.324C130.6 728.527 175.365 743.575 218.082 762.133C296.088 796.117 359.073 843.607 411.87 900.369C463.918 956.416 507.227 1017.07 546.45 1079.78C560.213 1101.72 572.675 1124.27 585.736 1146.52C579.099 1147.51 572.427 1148.5 565.721 1149.5C565.141 1148.48 564.561 1147.47 563.981 1146.45C520.566 1066.37 468.874 990.419 404.701 920.565C334.04 843.819 244.036 786.807 132.343 751.739C88.0726 737.858 42.8169 726.709 -6.05435 724.37C-64.4334 721.482 -122.851 725.527 -180.935 734.693C-235.561 743.344 -289.796 753.901 -344.256 763.664Z" fill="#A5C1FF"/>
<path d="M547.802 1152.17C540.396 1153.27 532.991 1154.37 525.586 1155.48C525 1153.7 524.52 1151.91 523.74 1150.27C488.689 1081.77 444.449 1017.73 390.302 958.382C318.276 879.667 226.071 821.535 111.95 785.278C53.3778 766.702 -7.26909 755.777 -72.1865 757.895C-125.501 759.526 -178.467 765.655 -231.101 774.733C-267.328 781.058 -303.45 788.091 -339.601 794.921C-340.405 789.526 -341.203 784.165 -341.996 778.838C-339.197 778.214 -336.428 777.388 -333.718 776.881C-309.662 772.265 -285.531 767.432 -261.445 763.018C-200.144 751.719 -138.632 742.56 -76.4244 740.225C-29.2336 738.471 17.137 740.562 61.8531 750.965C194.684 781.954 303.598 840.08 387.25 927.093C441.514 983.636 486.021 1045.15 524.168 1109.99C532.34 1123.86 539.929 1138.14 547.802 1152.17V1152.17Z" fill="#A5C1FF"/>
<path d="M506.619 1158.3C498.864 1159.46 491.11 1160.61 483.355 1161.76C483.07 1161.29 482.665 1160.73 482.485 1160.24C455.798 1101.86 419.098 1048.19 374.691 998.136C299.771 913.649 201.604 852.889 79.7431 816.44C31.0706 801.767 -19.1845 792.293 -72.6947 792.609C-124.169 792.932 -175.354 798.072 -226.372 806.496C-262.659 812.416 -298.78 819.449 -334.962 826.077C-335.796 820.48 -336.634 814.849 -337.478 809.184C-335.367 808.973 -333.256 808.762 -331.175 808.349C-317.523 805.799 -303.901 803.047 -290.248 800.497C-228.349 788.902 -166.358 778.638 -103.328 775.353C-57.4256 772.861 -11.8795 773.731 31.8326 783.145C141.854 806.985 237.355 849.84 316.54 914.047C372.711 959.657 417.001 1012.52 455.2 1069.07C474.584 1097.83 491.664 1127.65 506.619 1158.3V1158.3Z" fill="#A5C1FF"/>
<path d="M461.244 1165.06C452.441 1166.37 443.639 1167.68 434.837 1168.99C433.771 1166.15 432.915 1163.28 431.76 1160.55C366.922 1016.46 248.67 913.606 72.2322 855.919C33.7276 843.351 -6.00245 833.343 -48.3019 829.819C-97.9833 825.636 -147.943 828.215 -197.689 835.105C-242.076 841.301 -286.207 849.216 -330.444 856.424C-331.237 851.096 -332.03 845.769 -332.824 840.441C-264.323 827.139 -195.776 814.865 -126.04 810.581C-82.0986 807.864 -38.4394 808.291 3.72965 816.695C102.518 836.313 189.704 872.962 265.27 925.817C328.762 970.233 377.604 1024.17 417.363 1084.01C434.619 1109.98 449.645 1136.8 461.244 1165.06V1165.06Z" fill="#A5C1FF"/>
<path d="M-288.622 -377.635C-281.566 -378.685 -274.545 -379.731 -267.559 -380.771C-258.186 -346.598 -249.023 -312.393 -239.335 -278.267C-220.006 -210.318 -199.644 -142.625 -172.68 -76.6401C-155.68 -35.1239 -136.06 5.27828 -109.436 43.0866C-80.5184 84.069 -44.3589 119.734 4.08491 146.538C37.2195 164.766 73.5091 178.284 111.951 188.276C168.02 202.985 224.911 215.297 285.101 217.399C341.083 219.299 396.926 215.224 452.84 208.035C526.615 198.498 599.561 184.121 672.433 169.961C691.998 166.117 711.609 162.577 731.099 158.951C732.696 169.673 734.287 180.362 735.874 191.017C697.459 195.6 658.865 199.692 620.556 204.983C554.133 214.253 487.995 225.445 421.135 231.781C368.318 236.751 315.604 239.533 263.198 235.756C198.469 231.229 136.832 217.969 76.7631 200.857C16.9343 183.916 -34.8779 157.51 -76.1754 118.991C-110.4 86.9675 -135.661 50.4037 -156.252 11.3869C-185.797 -44.5982 -206.631 -103.225 -225.084 -162.412C-244.408 -224.572 -262.37 -286.935 -280.961 -349.204C-283.754 -358.61 -286.039 -368.197 -288.622 -377.635Z" fill="#A5C1FF"/>
<path d="M723.579 108.37C724.834 116.8 726.089 125.23 727.345 133.659C693.41 141.711 659.431 150.182 625.331 157.845C549.377 175.048 472.957 189.839 395.258 196.755C342.515 201.507 289.935 203.029 238.334 196.03C188.486 189.287 140.52 177.921 94.1679 163.005C36.5534 144.391 -12.6547 116.769 -51.8111 78.242C-82.5609 47.9756 -105.933 14.0257 -125.533 -21.9333C-158.766 -83.2629 -181.656 -147.787 -201.357 -213.199C-214.332 -256.452 -225.854 -300.025 -237.796 -343.535C-241.386 -356.856 -244.257 -370.387 -247.428 -383.77C-240.093 -384.862 -232.723 -385.959 -225.318 -387.062C-224.205 -381.748 -223.107 -376.534 -221.995 -371.22C-203.671 -289.886 -181.845 -209.487 -151.637 -131.06C-133.329 -83.6385 -111.473 -37.5719 -81.7002 5.55785C-52.3922 47.7228 -15.5129 84.6246 34.0246 112.3C70.7247 132.892 111.671 146.751 154.202 158.306C218.838 175.875 285.456 184.464 355.448 180.453C415.558 176.982 474.87 168.151 533.804 156.067C597.948 143 661.041 126.471 723.579 108.37Z" fill="#A5C1FF"/>
<path d="M717.178 65.3807C718.273 72.7313 719.362 80.0482 720.447 87.3313C703.652 92.5203 686.784 97.9272 669.855 102.929C592.169 125.767 513.538 145.127 432.578 156.044C387.323 162.163 342.095 165.588 296.817 163.645C220.8 160.281 151.193 141.694 85.3667 114.686C40.7634 96.4088 3.69921 70.4947 -27.1265 38.9989C-50.4893 15.1806 -69.4973 -11.0439 -85.9012 -38.4833C-118.589 -93.2766 -141.054 -151.35 -160.046 -210.56C-179.009 -269.569 -193.51 -329.552 -205.197 -390.057C-197.512 -391.201 -189.793 -392.351 -182.038 -393.505C-169.768 -316.853 -150.851 -241.605 -123.432 -168.243C-106.218 -122.416 -85.5619 -77.9283 -57.6915 -36.0663C-32.1748 2.2172 -1.21164 36.7946 40.2858 64.4267C102.008 105.591 175.571 127.725 254.545 140.161C309.62 148.917 366.092 145.471 422.441 138.322C482.907 130.766 542.035 117.826 600.203 101.307C639.465 90.1872 678.261 77.3793 717.178 65.3807Z" fill="#A5C1FF"/>
<path d="M711.523 27.4358C712.487 33.9097 713.451 40.3836 714.415 46.8575C713.816 47.1534 713.217 47.4493 712.499 47.6597C642.72 71.8017 572.056 93.594 498.885 108.625C454.202 117.863 409.216 124.355 363.778 127.088C297.949 130.996 235.881 122.04 175.782 104.002C99.1041 81.0915 35.2759 45.2039 -11.3205 -8.75918C-42.3897 -44.7683 -65.931 -84.173 -84.8327 -125.509C-124.781 -212.516 -148.577 -303.271 -160.878 -396.669C-152.774 -397.876 -144.705 -399.077 -136.671 -400.273C-131.53 -343.446 -120.116 -287.657 -103.074 -232.912C-85.807 -177.373 -63.0316 -123.689 -30.9611 -73.0432C14.2582 -1.71108 80.3326 51.4198 173.98 81.1095C216.138 94.4777 259.133 105.55 305.549 107.944C369.423 111.048 432.539 103.304 495.306 90.3396C566.47 75.5039 635.263 54.0936 703.006 29.9447C705.76 29.0176 708.754 28.2617 711.523 27.4358Z" fill="#A5C1FF"/>
<path d="M-113.412 -403.73C-104.61 -405.041 -95.8072 -406.352 -87.0047 -407.662C-86.8628 -399.515 -87.0502 -391.422 -86.6986 -383.306C-84.0275 -325.801 -71.9551 -269.903 -52.6974 -215.385C-35.8564 -167.744 -13.6572 -122.246 17.5823 -80.0583C81.1254 5.70941 177.843 53.14 300.629 69.1852C351.196 75.7179 402.8 70.5155 453.922 62.0762C520 51.2033 583.825 33.1177 646.405 11.702C666.491 4.88541 686.173 -2.49131 706.005 -9.58019C706.959 -3.1737 707.918 3.2666 708.882 9.74052C706.567 10.4988 704.257 11.2908 701.952 12.1165C671.552 22.3299 641.348 33.1345 610.649 42.7722C542.919 64.1275 473.837 80.7211 402.501 87.931C340.043 94.3358 279.463 91.7755 221.237 75.5265C164.224 59.5105 111.548 38.0925 67.9041 4.67949C29.2348 -24.8213 0.217408 -59.9985 -22.7993 -98.7576C-74.2456 -185.293 -101.353 -278.14 -111.74 -375.235C-112.721 -384.705 -112.865 -394.299 -113.412 -403.73Z" fill="#A5C1FF"/>
<path d="M-2.53848 -420.233C9.40773 -422.012 21.3539 -423.79 33.3002 -425.569C25.1326 -400.572 20.334 -375.248 19.8476 -349.74C18.8085 -289.098 35.6127 -232.353 64.7516 -178.375C110.642 -93.1846 189.445 -38.0199 301.428 -13.2318C347.073 -3.071 394.085 -3.86724 441.631 -9.70612C492.65 -15.9588 542.407 -27.8136 591.024 -43.0142C626.243 -53.9453 660.938 -66.2459 695.843 -77.8539C696.716 -71.9869 697.595 -66.0862 698.479 -60.1517C684.245 -55.0338 670.13 -49.8302 655.777 -44.7977C592.928 -23.0318 529.179 -3.71674 462.667 7.11744C418.131 14.4726 373.398 19.0653 329.316 13.6351C224.768 0.664436 140.111 -38.4289 81.7174 -108.316C23.6833 -177.947 -3.9808 -257.27 -9.6564 -342.865C-11.3562 -368.669 -8.54934 -394.419 -2.53848 -420.233Z" fill="#A5C1FF"/>
<path d="M700.854 -44.1887C701.777 -37.9846 702.696 -31.8141 703.61 -25.6773C680.096 -17.4198 656.627 -8.85889 632.859 -0.873628C569.395 20.3634 504.776 38.1537 437.62 47.5329C387.888 54.5243 338.019 57.7105 289.412 49.2317C175.935 29.5256 87.4522 -17.9938 29.7674 -98.9469C0.130589 -140.443 -20.9598 -184.969 -36.3777 -231.683C-53.522 -283.518 -63.6602 -336.499 -63.0352 -391.289C-62.8813 -397.93 -62.7675 -404.599 -62.6936 -411.296C-52.4939 -412.815 -42.2942 -414.333 -32.0945 -415.852C-32.9854 -407.448 -34.2954 -398.981 -34.8568 -390.522C-37.839 -342.929 -30.7159 -296.53 -17.3054 -251.067C-2.00286 -199.372 20.5139 -150.302 54.9147 -105.587C113.119 -29.7772 199.547 14.0156 309.039 30.6962C355.608 37.7207 403.231 33.8349 450.672 26.5643C513.187 16.9456 573.54 -0.00264819 632.797 -19.993C655.652 -27.6355 678.178 -36.0561 700.854 -44.1887Z" fill="#A5C1FF"/>
</g>
</g>
</svg>
