<svg width="81" height="81" viewBox="0 0 81 81" fill="none" xmlns="http://www.w3.org/2000/svg">
<g clip-path="url(#clip0_2003_4323)">
<path d="M81 40.5C81 62.8675 62.8675 81 40.5 81C18.1325 81 0 62.8675 0 40.5C0 18.1325 18.1325 0 40.5 0C62.8675 0 81 18.1325 81 40.5Z" fill="#6A61B4"/>
<path d="M81.0002 40.4998C81.0002 53.6528 74.7301 65.3413 65.016 72.7395H19.166C17.8555 72.7395 16.793 71.677 16.793 70.3665V30.8157C16.793 29.5051 17.8555 28.4426 19.166 28.4426H79.1751C80.3612 32.2512 81.0002 36.3007 81.0002 40.4998Z" fill="#51489A"/>
<path d="M67.3947 64.1902H5.6955C4.38494 64.1902 3.32245 63.1277 3.32245 61.8171V22.2664C3.32245 20.9558 4.38494 19.8933 5.6955 19.8933H67.3947C68.7053 19.8933 69.7678 20.9558 69.7678 22.2664V61.8171C69.7678 63.1279 68.7053 64.1902 67.3947 64.1902Z" fill="#FFC14F"/>
<path d="M9.98913 64.1902H5.6955C4.38494 64.1902 3.32245 63.1277 3.32245 61.8171V22.2664C3.32245 20.9558 4.38494 19.8933 5.6955 19.8933H9.98913C8.67857 19.8933 7.61608 20.9558 7.61608 22.2664V61.8171C7.61608 63.1279 8.67842 64.1902 9.98913 64.1902Z" fill="#FFB52D"/>
<path d="M75.1467 55.0706H13.4474C12.1369 55.0706 11.0744 54.0081 11.0744 52.6975V13.1467C11.0744 11.8362 12.1369 10.7737 13.4474 10.7737H75.1467C76.4572 10.7737 77.5197 11.8362 77.5197 13.1467V52.6975C77.5197 54.0081 76.4572 55.0706 75.1467 55.0706Z" fill="#DEF4F8"/>
<path d="M17.2712 55.0706H13.4474C12.1369 55.0706 11.0744 54.0081 11.0744 52.6975V13.1467C11.0744 11.8362 12.1369 10.7737 13.4474 10.7737H17.2712C15.9607 10.7737 14.8982 11.8362 14.8982 13.1467V52.6975C14.8982 54.0081 15.9607 55.0706 17.2712 55.0706Z" fill="#C2EAF2"/>
<path d="M17.4025 49.438V49.2134C17.4025 48.5581 17.9338 48.0269 18.5891 48.0269H24.1262C24.7814 48.0269 25.3127 48.5581 25.3127 49.2134V49.438C25.3127 50.0933 24.7814 50.6245 24.1262 50.6245H18.5891C17.9338 50.6245 17.4025 50.0933 17.4025 49.438ZM70.7961 17.4019H71.5871C72.2424 17.4019 72.7736 16.8706 72.7736 16.2154V15.9907C72.7736 15.3354 72.2424 14.8042 71.5871 14.8042H70.7961C70.1408 14.8042 69.6096 15.3354 69.6096 15.9907V16.2154C69.6096 16.8706 70.1408 17.4019 70.7961 17.4019Z" fill="#A6E0EC"/>
<path d="M21.1994 24.79V24.5653C21.1994 23.9101 21.7306 23.3788 22.3859 23.3788H39.4238C40.079 23.3788 40.6103 23.9101 40.6103 24.5653V24.79C40.6103 25.4453 40.079 25.9765 39.4238 25.9765H22.3859C21.7306 25.9765 21.1994 25.4453 21.1994 24.79ZM22.3859 31.1719H39.4238C40.079 31.1719 40.6103 30.6406 40.6103 29.9854V29.7607C40.6103 29.1054 40.079 28.5742 39.4238 28.5742H22.3859C21.7306 28.5742 21.1994 29.1054 21.1994 29.7607V29.9854C21.1994 30.6406 21.7306 31.1719 22.3859 31.1719ZM22.3859 36.3673H39.4238C40.079 36.3673 40.6103 35.836 40.6103 35.1808V34.9561C40.6103 34.3008 40.079 33.7696 39.4238 33.7696H22.3859C21.7306 33.7696 21.1994 34.3008 21.1994 34.9561V35.1808C21.1994 35.8362 21.7306 36.3673 22.3859 36.3673ZM22.3859 41.5628H39.4238C40.079 41.5628 40.6103 41.0316 40.6103 40.3763V40.1517C40.6103 39.4964 40.079 38.9651 39.4238 38.9651H22.3859C21.7306 38.9651 21.1994 39.4964 21.1994 40.1517V40.3763C21.1994 41.0316 21.7306 41.5628 22.3859 41.5628ZM18.5891 17.4019H35.6269C36.2822 17.4019 36.8134 16.8706 36.8134 16.2154V15.9907C36.8134 15.3354 36.2822 14.8042 35.6269 14.8042H18.5891C17.9338 14.8042 17.4025 15.3354 17.4025 15.9907V16.2154C17.4025 16.8706 17.9338 17.4019 18.5891 17.4019ZM56.2903 37.2293C56.0576 37.2676 55.8188 37.2877 55.5752 37.2877C53.164 37.2877 51.2094 35.3331 51.2094 32.9219C51.2094 32.2996 51.3396 31.7077 51.5742 31.1719H43.8843C43.7995 31.743 43.7557 32.3273 43.7557 32.9219C43.7557 39.4497 49.0474 44.7414 55.5752 44.7414C55.8154 44.7414 56.0536 44.7342 56.2903 44.7201V37.2293Z" fill="#7CD2E3"/>
<path d="M64.8634 49.4384V49.2137C64.8634 48.5585 65.3946 48.0272 66.0499 48.0272H71.587C72.2423 48.0272 72.7736 48.5585 72.7736 49.2137V49.4384C72.7736 50.0937 72.2423 50.6249 71.587 50.6249H66.0499C65.3946 50.6249 64.8634 50.0937 64.8634 49.4384ZM22.3859 25.9769H27.0714C27.7266 25.9769 28.2579 25.4456 28.2579 24.7903V24.5657C28.2579 23.9104 27.7266 23.3792 27.0714 23.3792H22.3859C21.7306 23.3792 21.1993 23.9104 21.1993 24.5657V24.7903C21.1993 25.4456 21.7306 25.9769 22.3859 25.9769ZM37.4338 29.7611V29.9857C37.4338 30.641 36.9026 31.1723 36.2473 31.1723H22.3859C21.7306 31.1723 21.1993 30.641 21.1993 29.9857V29.7611C21.1993 29.1058 21.7306 28.5746 22.3859 28.5746H36.2473C36.9026 28.5746 37.4338 29.1058 37.4338 29.7611ZM31.2577 34.9565V35.1811C31.2577 35.8364 30.7265 36.3676 30.0712 36.3676H22.3859C21.7306 36.3676 21.1993 35.8364 21.1993 35.1811V34.9565C21.1993 34.3012 21.7306 33.7699 22.3859 33.7699H30.0712C30.7265 33.7699 31.2577 34.3012 31.2577 34.9565ZM25.0815 40.152V40.3767C25.0815 41.0319 24.5502 41.5632 23.895 41.5632H22.3859C21.7306 41.5632 21.1993 41.0319 21.1993 40.3767V40.152C21.1993 39.4967 21.7306 38.9655 22.3859 38.9655H23.895C24.5502 38.9655 25.0815 39.4966 25.0815 40.152ZM67.3947 32.9223C67.3947 39.4501 62.1029 44.7418 55.5751 44.7418C55.5395 44.7418 55.5041 44.7417 55.4687 44.7413V37.2868C55.5041 37.2876 55.5395 37.2881 55.5751 37.2881C57.9863 37.2881 59.9409 35.3335 59.9409 32.9223C59.9409 30.5111 57.9863 28.5565 55.5751 28.5565C53.5698 28.5565 51.8803 29.9087 51.3684 31.751H43.8131C44.4011 25.7731 49.4427 21.1028 55.5751 21.1028C62.1029 21.1028 67.3947 26.3945 67.3947 32.9223Z" fill="#FB5858"/>
</g>
<defs>
<clipPath id="clip0_2003_4323">
<rect width="81" height="81" fill="white"/>
</clipPath>
</defs>
</svg>
