<svg width="81" height="81" viewBox="0 0 81 81" fill="none" xmlns="http://www.w3.org/2000/svg">
<g clip-path="url(#clip0_2003_4067)">
<path d="M75.5798 20.25V20.4921C75.5798 36.3978 62.6847 49.2929 46.7789 49.2929H34.2208C18.2185 49.2929 5.28542 36.2507 5.41989 20.25C12.422 8.1443 25.5101 0 40.4999 0C55.4896 0 68.5778 8.1443 75.5798 20.25Z" fill="#7D62EE"/>
<path d="M80.9999 40.5005C80.9999 54.8258 73.5628 67.414 62.3382 74.6138C56.037 78.6559 48.5413 81.0005 40.4999 81.0005C32.4584 81.0005 24.9627 78.6559 18.6615 74.6138C7.43701 67.414 -0.00012207 54.8258 -0.00012207 40.5005C-0.00012207 33.1235 1.97267 26.2084 5.41992 20.2505C8.66466 25.8604 13.2177 30.6207 18.6615 34.1122C24.9612 38.1559 32.4568 40.5005 40.4999 40.5005C48.5429 40.5005 56.0386 38.1559 62.3382 34.1122C67.782 30.6207 72.3351 25.8604 75.5798 20.2505C79.0271 26.2084 80.9999 33.1235 80.9999 40.5005Z" fill="#7D62EE"/>
<path d="M23.4755 11.6218C20.8168 11.6218 18.6615 13.7771 18.6615 16.4359V74.6136C24.9627 78.6557 32.4584 81.0002 40.4998 81.0002L48.4922 50.5792L40.4998 11.6218H23.4755Z" fill="#3E3E3E"/>
<path d="M57.5243 11.6218C60.183 11.6218 62.3383 13.7771 62.3383 16.4359V74.6136C56.0371 78.6557 48.5414 81.0002 40.4999 81.0002V11.6218H57.5243Z" fill="#141414"/>
<path d="M40.4999 17.4753L47.223 44.3925L40.4999 75.1467H24.515V17.4753H40.4999Z" fill="#3BA9FF"/>
<path d="M40.4999 17.4753H56.4848V75.1467H40.4999V17.4753Z" fill="#0094FF"/>
<path d="M57.9256 20.2278L61.0799 29.6203L57.9256 38.2299H53.3977L48.3105 45.1528V38.2299H44.2534V20.2278H57.9256Z" fill="#FFDD46"/>
<path d="M57.9258 20.2278H71.5984V38.2305H57.9258V20.2278Z" fill="#FFD300"/>
<path d="M57.9263 23.552L58.7132 24.4987L57.9263 25.4453H47.7065V23.552H57.9263Z" fill="#685E68"/>
<path d="M57.9263 27.9099L58.9958 28.8565L57.9263 29.8032H47.7065V27.9099H57.9263Z" fill="#685E68"/>
<path d="M57.9263 32.2688L58.7132 33.0475L57.9263 34.161H47.7065V32.2688H57.9263Z" fill="#685E68"/>
<path d="M57.9258 23.552H68.1466V25.4455H57.9258V23.552Z" fill="#40383F"/>
<path d="M57.9257 27.9104H68.1466V29.8039H57.9257V27.9104Z" fill="#40383F"/>
<path d="M57.9257 32.2688H68.1466V34.161H57.9257V32.2688Z" fill="#40383F"/>
<path d="M23.0742 44.842L19.9199 54.2344L23.0742 61.4534H27.6021L32.6893 68.3763V61.4534H36.7464V44.842H23.0742Z" fill="#D0E8FF"/>
<path d="M9.4021 44.842H23.0748V61.4541H9.4021V44.842Z" fill="#E7F2FF"/>
<path d="M23.0743 47.2151L22.2873 48.4017L23.0743 49.5882H33.294V47.2151H23.0743Z" fill="#40383F"/>
<path d="M12.8539 47.2153H23.0748V49.5885H12.8539V47.2153Z" fill="#685E68"/>
<path d="M23.0743 51.9612L22.2873 53.1478L23.0743 54.3343H33.294V51.9612H23.0743Z" fill="#40383F"/>
<path d="M12.8538 51.9612H23.0746V54.3343H12.8538V51.9612Z" fill="#685E68"/>
<path d="M23.0743 56.7073L22.2873 57.8939L23.0743 59.0804H33.294V56.7073H23.0743Z" fill="#40383F"/>
<path d="M12.8538 56.7073H23.0746V59.0804H12.8538V56.7073Z" fill="#685E68"/>
</g>
<defs>
<clipPath id="clip0_2003_4067">
<rect width="81" height="81" fill="white"/>
</clipPath>
</defs>
</svg>
