<svg width="81" height="81" viewBox="0 0 81 81" fill="none" xmlns="http://www.w3.org/2000/svg">
<g clip-path="url(#clip0_2003_4356)">
<path d="M7.31456 64.9019L40.759 56.9136L66.875 68.92C73.4719 61.9706 77.5202 52.5782 77.5202 42.2398C77.5202 20.8332 60.1667 3.47974 38.7601 3.47974C17.3535 3.47974 -0.00012207 20.8334 -0.00012207 42.24C-0.00012207 50.7015 2.71306 58.5284 7.31456 64.9019Z" fill="#7D62EE"/>
<path d="M24.9727 10.3281H13.8287C10.2459 10.3281 7.31458 13.2595 7.31458 16.8423V64.9019C8.93742 67.1498 10.7947 69.2167 12.8517 71.0666L29.3713 28.5778L24.9727 10.3281Z" fill="#2A428B"/>
<path d="M60.3607 10.3281H24.9727C22.0657 10.9799 19.8757 13.5879 19.8757 16.6841V21.7186L52.4934 30.7335L61.3378 73.7467C63.3333 72.314 65.1878 70.6973 66.8749 68.9199V16.8423C66.875 13.2595 63.9437 10.3281 60.3607 10.3281Z" fill="#3F57A0"/>
<path d="M33.4902 11.2896V7.11083C33.4902 5.12308 35.1073 3.50585 37.095 3.50585C39.0828 3.50585 40.7 5.12292 40.7 7.11083V11.2896H44.2061V7.11083C44.2061 3.18975 41.0161 -0.000244141 37.095 -0.000244141C33.174 -0.000244141 29.9841 3.18975 29.9841 7.11083V11.2896H33.4902Z" fill="#FFC242"/>
<path d="M19.8757 21.7188C17.0668 21.7188 15.2572 21.7188 15.1134 21.7188C13.8874 21.7188 12.8517 22.7545 12.8517 23.9806V71.0669C14.9912 72.9911 17.3462 74.6806 19.8757 76.0949L29.3713 46.4563L19.8757 21.7188Z" fill="#E2ECF2"/>
<path d="M19.8757 76.0947C25.4633 79.2189 31.9033 81.0001 38.76 81.0001C47.1841 81.0001 54.9796 78.3113 61.3378 73.747V23.9806C61.3378 22.7545 60.302 21.7188 59.0761 21.7188C58.499 21.7188 31.1419 21.7188 19.8757 21.7188V76.0947Z" fill="#F2F8FC"/>
<path d="M38.8118 8.00049C32.9676 8.00049 26.484 8.00049 25.9431 8.00049C23.3684 8.00049 21.262 10.1071 21.262 12.6816C21.262 15.2563 23.3685 17.3627 25.9431 17.3627H38.8118L41.3661 12.1904L38.8118 8.00049Z" fill="#FFDA4C"/>
<path d="M34.6546 32.9016C30.3635 31.1875 25.3078 33.2593 24.7022 37.9062C24.2749 41.1843 26.095 44.2631 27.5263 46.1165C28.4921 47.3674 29.1129 48.8518 29.2939 50.4218C29.5083 52.2834 29.7981 53.8164 30.1385 55.1311C30.4099 56.1787 31.3505 56.9132 32.433 56.9132C33.7025 56.9132 34.746 55.9112 34.7987 54.6427C34.8438 53.5554 34.8731 52.6637 34.8731 52.1817C34.8731 51.6106 35.0501 51.1252 35.3077 50.7215C35.3403 50.6704 35.3773 50.625 35.413 50.5778L36.2586 41.1967L34.6546 32.9016Z" fill="#27A6FF"/>
<path d="M43.9801 68.1048C43.9801 67.2458 43.2838 66.5496 42.4249 66.5496H24.8712C24.0026 66.5496 23.3025 67.2609 23.3161 68.1293C23.3294 68.9786 24.0217 69.6601 24.8712 69.6601H42.4249C43.2837 69.66 43.9801 68.9637 43.9801 68.1048Z" fill="#D1DFE8"/>
<path d="M50.8738 74.3256C50.8738 73.4668 50.1776 72.7705 49.3187 72.7705H24.8711C24.0026 72.7705 23.3025 73.4818 23.3161 74.3502C23.3296 75.1994 24.0217 75.8809 24.8711 75.8809H49.3187C50.1776 75.8808 50.8738 75.1845 50.8738 74.3256Z" fill="#D1DFE8"/>
<path d="M43.9797 61.8846C43.9797 61.0256 43.2834 60.3293 42.4244 60.3293H31.7658C30.8972 60.3293 30.1972 61.0407 30.2108 61.9091C30.2241 62.7584 30.9164 63.4399 31.7658 63.4399H42.4244C43.2832 63.4398 43.9797 62.7435 43.9797 61.8846Z" fill="#FF6EAE"/>
<path d="M38.478 33.4083C37.618 33.8992 36.5717 33.8992 35.7117 33.4083C35.3669 33.2115 35.0132 33.0452 34.6547 32.9021C32.6512 33.7518 31.1189 35.4779 30.8023 37.9067C30.375 41.1848 32.1951 44.2636 33.6264 46.1169C34.5922 47.3678 35.213 48.8523 35.394 50.4223C35.4002 50.4754 35.407 50.5257 35.4131 50.5783C36.2912 49.4237 38.0879 49.477 38.8822 50.7219C39.1398 51.1258 39.3168 51.611 39.3168 52.1821C39.3168 52.6642 39.3461 53.5556 39.3912 54.6431C39.4438 55.9116 40.4873 56.9137 41.7569 56.9137H41.7596C42.8419 56.9137 43.7829 56.1794 44.054 55.1317C44.3929 53.8222 44.6805 52.293 44.896 50.4221C45.0692 48.9184 45.6603 47.4161 46.6623 46.1185C48.0936 44.2652 49.915 41.1857 49.4875 37.9067C48.8338 32.8926 42.9792 30.8388 38.478 33.4083Z" fill="#02C0FC"/>
<path d="M41.0496 40.1921H39.0041C38.9107 40.1921 38.8349 40.1163 38.8349 40.0231V37.9776C38.8349 37.6627 38.5797 37.4077 38.2651 37.4077H35.9248C35.6101 37.4077 35.3549 37.6629 35.3549 37.9776V40.0231C35.3549 40.1164 35.2793 40.1921 35.186 40.1921H33.1403C32.8256 40.1921 32.5704 40.4472 32.5704 40.7619V43.1023C32.5704 43.417 32.8256 43.6722 33.1403 43.6722H35.1858C35.2792 43.6722 35.3548 43.7478 35.3548 43.8412V45.8867C35.3548 46.2014 35.61 46.4566 35.9246 46.4566H38.2651C38.5797 46.4566 38.8349 46.2014 38.8349 45.8867V43.8412C38.8349 43.7478 38.9106 43.6722 39.0041 43.6722H41.0496C41.3642 43.6722 41.6194 43.417 41.6194 43.1023V40.7619C41.6194 40.4472 41.3644 40.1921 41.0496 40.1921Z" fill="#E2ECF2"/>
<path d="M51.529 63.2243C50.5582 62.6429 49.2998 62.9585 48.7186 63.9293L46.7697 67.1832C46.1883 68.154 46.5039 69.4122 47.4747 69.9937C48.4455 70.5751 49.7037 70.2595 50.2852 69.2887L52.234 66.0348C52.8154 65.0642 52.4998 63.8057 51.529 63.2243Z" fill="#3F57A0"/>
<path d="M57.5538 54.2798L52.5001 54.4245L48.7323 60.7156C48.0375 61.8758 47.7367 63.2296 47.8748 64.5748C48.0829 66.5998 50.1795 67.8555 52.0628 67.0831C53.3139 66.5699 54.3656 65.6657 55.0604 64.5055L58.7932 58.2729L57.5538 54.2798Z" fill="#27A6FF"/>
<path d="M79.5509 16.436C78.1421 15.5922 76.2991 16.0545 75.4554 17.4634L74.3373 19.3303L75.4016 23.2507L79.4603 22.3986L80.5784 20.5317C81.4221 19.1227 80.9598 17.2797 79.5509 16.436Z" fill="#02C0FC"/>
<path d="M75.5484 22.8307L70.6863 22.3926L67.751 27.2938L71.5784 31.8597L75.5484 31.9637L78.4836 27.0626L75.5484 22.8307Z" fill="#FEF156"/>
<path d="M63.985 43.7136L58.6839 44.1001L52.5 54.4254C52.416 55.9283 53.1468 57.4259 54.5278 58.2528C55.8851 59.0657 57.5175 59.0197 58.7933 58.2739L65.0123 47.8902L63.985 43.7136Z" fill="#02C0FC"/>
<path d="M78.4835 27.0625L79.8537 24.7745C80.3806 23.8949 80.0918 22.744 79.2122 22.2172L74.6135 19.4631C73.7338 18.9362 72.5832 19.225 72.0562 20.1046L70.6859 22.3927L78.4835 27.0625Z" fill="#6AD9FB"/>
<path d="M67.7514 27.2935L58.7529 42.3184C58.226 43.198 58.5148 44.3488 59.3944 44.8757L63.9931 47.6298C64.8728 48.1566 66.0236 47.8679 66.5504 46.9883L75.5489 31.9633L67.7514 27.2935Z" fill="#6AD9FB"/>
<path d="M52.9284 12.6818C52.9284 10.4339 51.3225 8.54331 49.2016 8.09937C48.8932 8.03482 48.5741 8.00049 48.2472 8.00049C47.8044 8.00049 43.5148 8.00049 38.8113 8.00049C36.2365 8.00049 34.1301 10.1071 34.1301 12.6816C34.1301 15.2563 36.2367 17.3627 38.8113 17.3627H48.2472C50.8153 17.3629 52.9284 15.2619 52.9284 12.6818Z" fill="#FEF156"/>
<path d="M47.6944 13.3682C46.6023 13.3682 45.7168 14.2536 45.7168 15.3457V22.4595C45.7168 23.7441 44.6717 24.7893 43.387 24.7893C38.6053 24.7893 35.5515 24.7893 30.8024 24.7893C29.5178 24.7893 28.4725 23.7441 28.4725 22.4595V15.3457C28.4725 14.2536 27.5871 13.3682 26.495 13.3682C25.4029 13.3682 24.5175 14.2536 24.5175 15.3457V22.4595C24.5175 25.9249 27.3368 28.7444 30.8024 28.7444H43.387C46.8524 28.7444 49.6719 25.9251 49.6719 22.4595V15.3457C49.6719 14.2536 48.7866 13.3682 47.6944 13.3682Z" fill="#FFC242"/>
</g>
<defs>
<clipPath id="clip0_2003_4356">
<rect width="81" height="81" fill="white"/>
</clipPath>
</defs>
</svg>
